<svg width="16" height="16" viewBox="0 0 16 16" fill="currentColor" xmlns="http://www.w3.org/2000/svg">
<g id="comment_fill">
<path id="Subtract" fill-rule="evenodd" clip-rule="evenodd" d="M8 2C4.68629 2 2 4.68629 2 8C2 11.3137 4.68629 14 8 14H11C12.6569 14 14 12.6569 14 11V8C14 4.68629 11.3137 2 8 2ZM5.24986 7.3404C5.24986 6.92619 5.58565 6.5904 5.99986 6.5904H9.99986C10.4141 6.5904 10.7499 6.92619 10.7499 7.3404C10.7499 7.75462 10.4141 8.0904 9.99986 8.0904H5.99986C5.58565 8.0904 5.24986 7.75462 5.24986 7.3404ZM7.25042 10.0056C7.25042 9.59137 7.58621 9.25558 8.00042 9.25558H10.0004C10.4146 9.25558 10.7504 9.59137 10.7504 10.0056C10.7504 10.4198 10.4146 10.7556 10.0004 10.7556H8.00042C7.58621 10.7556 7.25042 10.4198 7.25042 10.0056Z" fill="#3387FF"/>
</g>
</svg>
