<svg width="16" height="16" viewBox="0 0 16 16" fill="currentColor" xmlns="http://www.w3.org/2000/svg">
<g id="date-range">
<mask id="mask0_5471_7655" style="mask-type:alpha" maskUnits="userSpaceOnUse" x="0" y="0" width="16" height="16">
<rect id="Bounding box" width="16" height="16" fill="#D9D9D9"/>
</mask>
<g mask="url(#mask0_5471_7655)">
<path id="date_range" d="M5.40342 9.20156C5.23441 9.20156 5.09157 9.1444 4.9749 9.03008C4.85824 8.91575 4.7999 8.77408 4.7999 8.60508C4.7999 8.43607 4.85706 8.29323 4.97139 8.17656C5.08572 8.0599 5.22739 8.00156 5.39639 8.00156C5.5654 8.00156 5.70824 8.05872 5.8249 8.17305C5.94157 8.28738 5.9999 8.42905 5.9999 8.59805C5.9999 8.76706 5.94274 8.9099 5.82842 9.02656C5.71409 9.14323 5.57242 9.20156 5.40342 9.20156ZM8.00342 9.20156C7.83441 9.20156 7.69157 9.1444 7.5749 9.03008C7.45824 8.91575 7.3999 8.77408 7.3999 8.60508C7.3999 8.43607 7.45706 8.29323 7.57139 8.17656C7.68572 8.0599 7.82739 8.00156 7.99639 8.00156C8.1654 8.00156 8.30824 8.05872 8.4249 8.17305C8.54157 8.28738 8.5999 8.42905 8.5999 8.59805C8.5999 8.76706 8.54274 8.9099 8.42842 9.02656C8.31409 9.14323 8.17242 9.20156 8.00342 9.20156ZM10.6034 9.20156C10.4344 9.20156 10.2916 9.1444 10.1749 9.03008C10.0582 8.91575 9.9999 8.77408 9.9999 8.60508C9.9999 8.43607 10.0571 8.29323 10.1714 8.17656C10.2857 8.0599 10.4274 8.00156 10.5964 8.00156C10.7654 8.00156 10.9082 8.05872 11.0249 8.17305C11.1416 8.28738 11.1999 8.42905 11.1999 8.59805C11.1999 8.76706 11.1427 8.9099 11.0284 9.02656C10.9141 9.14323 10.7724 9.20156 10.6034 9.20156ZM3.5999 14.4016C3.2699 14.4016 2.9874 14.2821 2.7524 14.0432C2.5174 13.8043 2.3999 13.5238 2.3999 13.2016V4.40156C2.3999 4.07934 2.5174 3.79878 2.7524 3.5599C2.9874 3.32101 3.2699 3.20156 3.5999 3.20156H4.7999V1.60156H5.9999V3.20156H9.9999V1.60156H11.1999V3.20156H12.3999C12.7299 3.20156 13.0124 3.32101 13.2474 3.5599C13.4824 3.79878 13.5999 4.07934 13.5999 4.40156V13.2016C13.5999 13.5238 13.4824 13.8043 13.2474 14.0432C13.0124 14.2821 12.7299 14.4016 12.3999 14.4016H3.5999ZM3.5999 13.2016H12.3999V7.20156H3.5999V13.2016Z" fill="#C7DEFF"/>
</g>
</g>
</svg>
