<svg width="16" height="16" viewBox="0 0 16 16" fill="currentColor" xmlns="http://www.w3.org/2000/svg">
<g id="Favorite_fill">
<path id="Vector 15" d="M2.96745 9.26954L7.60252 13.6237C7.65436 13.6724 7.68028 13.6967 7.70496 13.7148C7.88082 13.8436 8.11983 13.8436 8.29569 13.7148C8.32037 13.6967 8.34629 13.6724 8.39813 13.6237L13.0332 9.26954C14.3373 8.04446 14.4957 6.02846 13.3989 4.61477L13.1926 4.34896C11.8805 2.65778 9.24675 2.94141 8.32477 4.87316C8.19454 5.14604 7.80612 5.14603 7.67588 4.87316C6.75391 2.94141 4.12014 2.65778 2.80802 4.34896L2.60178 4.61477C1.50496 6.02846 1.66333 8.04446 2.96745 9.26954Z" fill="#F16657"/>
</g>
</svg>
