<svg width="16" height="16" viewBox="0 0 16 16" fill="currentColor" xmlns="http://www.w3.org/2000/svg">
<mask id="mask0_5102_15219" style="mask-type:alpha" maskUnits="userSpaceOnUse" x="0" y="0" width="16" height="16">
<rect width="16" height="16" fill="#D9D9D9"/>
</mask>
<g mask="url(#mask0_5102_15219)">
<path d="M1.59961 12.7992V11.2659C1.59961 10.977 1.66905 10.7131 1.80794 10.4742C1.94683 10.2353 2.1385 10.0437 2.38294 9.89922C2.98294 9.54366 3.61905 9.27144 4.29128 9.08255C4.9635 8.89366 5.66628 8.79922 6.39961 8.79922C7.13294 8.79922 7.83572 8.89366 8.50794 9.08255C9.18017 9.27144 9.81628 9.54366 10.4163 9.89922C10.6607 10.0437 10.8524 10.2353 10.9913 10.4742C11.1302 10.7131 11.1996 10.977 11.1996 11.2659V12.7992H1.59961ZM12.3996 12.7992V11.2659C12.3996 10.7992 12.2913 10.3659 12.0746 9.96589C11.8579 9.56589 11.5663 9.23811 11.1996 8.98255C11.6329 9.07144 12.0524 9.19089 12.4579 9.34089C12.8635 9.49089 13.2496 9.677 13.6163 9.89922C13.8607 10.0437 14.0524 10.2353 14.1913 10.4742C14.3302 10.7131 14.3996 10.977 14.3996 11.2659V12.7992H12.3996ZM6.39961 7.99922C5.73294 7.99922 5.16628 7.76589 4.69961 7.29922C4.23294 6.83255 3.99961 6.26589 3.99961 5.59922C3.99961 4.93255 4.23294 4.36589 4.69961 3.89922C5.16628 3.43255 5.73294 3.19922 6.39961 3.19922C7.06628 3.19922 7.63294 3.43255 8.09961 3.89922C8.56628 4.36589 8.79961 4.93255 8.79961 5.59922C8.79961 6.26589 8.56628 6.83255 8.09961 7.29922C7.63294 7.76589 7.06628 7.99922 6.39961 7.99922ZM11.9996 5.59922C11.9996 6.26589 11.7663 6.83255 11.2996 7.29922C10.8329 7.76589 10.2663 7.99922 9.59961 7.99922C9.51072 7.99922 9.42739 7.99644 9.34961 7.99089C9.27183 7.98533 9.1885 7.97144 9.09961 7.94922C9.37739 7.627 9.59683 7.26866 9.75794 6.87422C9.91905 6.47977 9.99961 6.05477 9.99961 5.59922C9.99961 5.14366 9.91905 4.71866 9.75794 4.32422C9.59683 3.92977 9.37739 3.57144 9.09961 3.24922C9.1885 3.227 9.27183 3.21311 9.34961 3.20755C9.42739 3.202 9.51072 3.19922 9.59961 3.19922C10.2663 3.19922 10.8329 3.43255 11.2996 3.89922C11.7663 4.36589 11.9996 4.93255 11.9996 5.59922Z" fill="#3387FF"/>
</g>
</svg>
