<svg width="16" height="16" viewBox="0 0 16 16" fill="currentColor" xmlns="http://www.w3.org/2000/svg">
<g id="location">
<mask id="mask0_5471_7649" style="mask-type:alpha" maskUnits="userSpaceOnUse" x="0" y="0" width="16" height="16">
<rect id="Bounding box" width="16" height="16" fill="#D9D9D9"/>
</mask>
<g mask="url(#mask0_5471_7649)">
<path id="location_on" d="M8.00334 8.00156C8.33432 8.00156 8.61647 7.88372 8.8498 7.64803C9.08314 7.41233 9.1998 7.129 9.1998 6.79803C9.1998 6.46705 9.08196 6.1849 8.84627 5.95156C8.61057 5.71823 8.32724 5.60156 7.99627 5.60156C7.66529 5.60156 7.38314 5.71941 7.1498 5.9551C6.91647 6.1908 6.7998 6.47413 6.7998 6.8051C6.7998 7.13607 6.91765 7.41823 7.15334 7.65156C7.38904 7.8849 7.67237 8.00156 8.00334 8.00156ZM7.9998 14.4016C6.25564 12.9448 4.95293 11.5917 4.09167 10.3423C3.23043 9.09293 2.7998 7.92934 2.7998 6.85156C2.7998 5.36267 3.29425 4.11545 4.28314 3.1099C5.27203 2.10434 6.50814 1.60156 7.99147 1.60156C9.4748 1.60156 10.7137 2.10434 11.7081 3.1099C12.7026 4.11545 13.1998 5.36267 13.1998 6.85156C13.1998 7.92934 12.772 9.09045 11.9165 10.3349C11.0609 11.5793 9.75536 12.9349 7.9998 14.4016Z" fill="#C7DEFF"/>
</g>
</g>
</svg>
