<svg width="24" height="24" viewBox="0 0 24 24" fill="currentColor" xmlns="http://www.w3.org/2000/svg">
<circle cx="12" cy="12" r="8.25" fill="#F7F7FA" stroke="#A9ABB8" stroke-width="1.5"/>
<path d="M9.60717 16.1609C9.14317 16.1609 8.79117 16.0049 8.55117 15.6929C8.31117 15.3729 8.15117 14.9049 8.07117 14.2889C7.99117 13.6729 7.95117 12.9089 7.95117 11.9969C7.95117 11.0849 7.99117 10.3169 8.07117 9.69287C8.15117 9.06887 8.31117 8.60087 8.55117 8.28887C8.79117 7.96887 9.14317 7.80887 9.60717 7.80887C10.0152 7.80887 10.3272 7.93687 10.5432 8.19287C10.7672 8.44087 10.9232 8.80487 11.0112 9.28487C11.1072 9.76487 11.1632 10.3409 11.1792 11.0129C11.3152 11.0129 11.4552 11.0129 11.5992 11.0129C11.7432 11.0129 11.8872 11.0129 12.0312 11.0129C12.1992 11.0129 12.3632 11.0129 12.5232 11.0129C12.6912 11.0129 12.8512 11.0169 13.0032 11.0249C13.0192 10.3449 13.0712 9.76487 13.1592 9.28487C13.2472 8.80487 13.3992 8.43687 13.6152 8.18087C13.8392 7.92487 14.1552 7.79688 14.5632 7.79688C15.0272 7.79688 15.3792 7.95687 15.6192 8.27687C15.8592 8.59687 16.0192 9.06887 16.0992 9.69287C16.1872 10.3169 16.2312 11.0849 16.2312 11.9969C16.2312 12.9089 16.1872 13.6729 16.0992 14.2889C16.0192 14.9049 15.8592 15.3689 15.6192 15.6809C15.3792 15.9929 15.0272 16.1489 14.5632 16.1489C13.9872 16.1489 13.5952 15.9009 13.3872 15.4049C13.1792 14.9089 13.0552 14.2049 13.0152 13.2929C12.8312 13.3009 12.6352 13.3049 12.4272 13.3049C12.2192 13.3049 12.0072 13.3049 11.7912 13.3049C11.6872 13.3049 11.5832 13.3049 11.4792 13.3049C11.3752 13.3049 11.2712 13.3049 11.1672 13.3049C11.1272 14.2089 10.9992 14.9129 10.7832 15.4169C10.5752 15.9129 10.1832 16.1609 9.60717 16.1609Z" fill="#A9ABB8"/>
</svg>
