<svg width="24" height="24" viewBox="0 0 24 24" fill="currentColor" xmlns="http://www.w3.org/2000/svg">
<path d="M4.60239 16.8594L3.77356 16.2999L3.77356 16.2999L4.60239 16.8594ZM5.69243 13.3814L4.69243 13.3705V13.3814H5.69243ZM5.7153 11.2786L6.7153 11.2895V11.2786H5.7153ZM19.4068 16.8763L20.2462 16.3329L20.2462 16.3329L19.4068 16.8763ZM18.3578 13.3814L17.3578 13.37V13.3814H18.3578ZM18.3806 11.3828L19.3806 11.3943V11.3828H18.3806ZM9.50226 20C8.94998 20 8.50226 20.4477 8.50226 21C8.50226 21.5523 8.94998 22 9.50226 22V20ZM14.5011 22C15.0534 22 15.5011 21.5523 15.5011 21C15.5011 20.4477 15.0534 20 14.5011 20V22ZM3.06524 6.02397C2.86902 6.54023 3.12847 7.1178 3.64472 7.31401C4.16097 7.51023 4.73854 7.25079 4.93476 6.73453L3.06524 6.02397ZM7.31013 3.86946C7.79032 3.59662 7.95841 2.98618 7.68558 2.50599C7.41274 2.0258 6.8023 1.85771 6.32211 2.13054L7.31013 3.86946ZM17.6675 2.14509C17.1904 1.86702 16.5781 2.02844 16.3001 2.50562C16.022 2.9828 16.1834 3.59504 16.6606 3.8731L17.6675 2.14509ZM19.0616 6.71569C19.2525 7.23393 19.8274 7.49929 20.3457 7.30839C20.8639 7.11748 21.1293 6.54261 20.9384 6.02437L19.0616 6.71569ZM5.43122 17.4189C6.06669 16.4775 6.69243 15.0807 6.69243 13.3814H4.69243C4.69243 14.5846 4.24743 15.5979 3.77356 16.2999L5.43122 17.4189ZM6.69237 13.3923L6.71524 11.2895L4.71536 11.2677L4.69248 13.3705L6.69237 13.3923ZM20.2462 16.3329C19.7918 15.6309 19.3578 14.6053 19.3578 13.3814H17.3578C17.3578 15.0799 17.9575 16.4777 18.5673 17.4197L20.2462 16.3329ZM19.3577 13.3929L19.3806 11.3943L17.3807 11.3714L17.3578 13.37L19.3577 13.3929ZM19.3806 11.3828C19.3806 6.98034 16.1847 3.20457 12.0017 3.20457V5.20457C14.8647 5.20457 17.3806 7.85642 17.3806 11.3828H19.3806ZM19.025 18.8508C19.8117 18.8508 20.2352 18.2433 20.3837 17.8505C20.5405 17.4362 20.5767 16.8433 20.2462 16.3329L18.5673 17.4197C18.5129 17.3357 18.502 17.2635 18.5002 17.2289C18.4985 17.1944 18.5037 17.1676 18.5131 17.1429C18.5215 17.1208 18.5475 17.0627 18.6196 16.999C18.6995 16.9284 18.8406 16.8508 19.025 16.8508V18.8508ZM6.7153 11.2786C6.7153 7.80977 9.1898 5.20457 12.0017 5.20457V3.20457C7.86982 3.20457 4.7153 6.93369 4.7153 11.2786H6.7153ZM4.97923 16.8508C5.16755 16.8508 5.31005 16.9314 5.38903 17.0025C5.46011 17.0664 5.4845 17.1236 5.4918 17.1435C5.50013 17.1662 5.50505 17.1913 5.50296 17.2252C5.50088 17.259 5.48918 17.333 5.43122 17.4189L3.77356 16.2999C3.4274 16.8127 3.46135 17.4158 3.61417 17.8323C3.75836 18.2254 4.17987 18.8508 4.97923 18.8508V16.8508ZM19.025 16.8508H4.97923V18.8508H19.025V16.8508ZM9.50226 22H14.5011V20H9.50226V22ZM4.93476 6.73453C5.40846 5.48821 6.24643 4.47383 7.31013 3.86946L6.32211 2.13054C4.81293 2.98803 3.68666 4.38898 3.06524 6.02397L4.93476 6.73453ZM16.6606 3.8731C17.7589 4.5131 18.6172 5.5092 19.0616 6.71569L20.9384 6.02437C20.3275 4.36604 19.1527 3.01052 17.6675 2.14509L16.6606 3.8731Z" fill="#3387FF"/>
</svg>
