<svg width="32" height="32" viewBox="0 0 32 32" fill="currentColor" xmlns="http://www.w3.org/2000/svg">
<g id="add">
<circle id="bg" cx="15.9993" cy="16.0013" r="13.3333" fill="white"/>
<mask id="mask0_5924_11814" style="mask-type:alpha" maskUnits="userSpaceOnUse" x="0" y="0" width="32" height="32">
<rect id="Bounding box" width="32" height="32" fill="#D9D9D9"/>
</mask>
<g mask="url(#mask0_5924_11814)">
<path id="add_circle" d="M14.666 17.3346V21.3346C14.666 21.7124 14.7938 22.0291 15.0493 22.2846C15.3049 22.5402 15.6216 22.668 15.9993 22.668C16.3771 22.668 16.6938 22.5402 16.9493 22.2846C17.2049 22.0291 17.3327 21.7124 17.3327 21.3346V17.3346H21.3327C21.7105 17.3346 22.0271 17.2069 22.2827 16.9513C22.5382 16.6957 22.666 16.3791 22.666 16.0013C22.666 15.6235 22.5382 15.3069 22.2827 15.0513C22.0271 14.7957 21.7105 14.668 21.3327 14.668H17.3327V10.668C17.3327 10.2902 17.2049 9.97352 16.9493 9.71797C16.6938 9.46241 16.3771 9.33463 15.9993 9.33463C15.6216 9.33463 15.3049 9.46241 15.0493 9.71797C14.7938 9.97352 14.666 10.2902 14.666 10.668V14.668H10.666C10.2882 14.668 9.97157 14.7957 9.71601 15.0513C9.46046 15.3069 9.33268 15.6235 9.33268 16.0013C9.33268 16.3791 9.46046 16.6957 9.71601 16.9513C9.97157 17.2069 10.2882 17.3346 10.666 17.3346H14.666ZM15.9993 29.3346C14.1549 29.3346 12.4216 28.9846 10.7993 28.2846C9.17713 27.5846 7.76602 26.6346 6.56602 25.4346C5.36602 24.2346 4.41602 22.8235 3.71602 21.2013C3.01602 19.5791 2.66602 17.8457 2.66602 16.0013C2.66602 14.1569 3.01602 12.4235 3.71602 10.8013C4.41602 9.17908 5.36602 7.76797 6.56602 6.56797C7.76602 5.36797 9.17713 4.41797 10.7993 3.71797C12.4216 3.01797 14.1549 2.66797 15.9993 2.66797C17.8438 2.66797 19.5771 3.01797 21.1993 3.71797C22.8216 4.41797 24.2327 5.36797 25.4327 6.56797C26.6327 7.76797 27.5827 9.17908 28.2827 10.8013C28.9827 12.4235 29.3327 14.1569 29.3327 16.0013C29.3327 17.8457 28.9827 19.5791 28.2827 21.2013C27.5827 22.8235 26.6327 24.2346 25.4327 25.4346C24.2327 26.6346 22.8216 27.5846 21.1993 28.2846C19.5771 28.9846 17.8438 29.3346 15.9993 29.3346Z" fill="#3387FF"/>
</g>
</g>
</svg>
