<svg width="32" height="32" viewBox="0 0 32 32" fill="currentColor" xmlns="http://www.w3.org/2000/svg">
<circle cx="16" cy="16" r="13" fill="white"/>
<mask id="mask0_5203_16946" style="mask-type:alpha" maskUnits="userSpaceOnUse" x="0" y="0" width="32" height="32">
<rect width="32" height="32" fill="#D9D9D9"/>
</mask>
<g mask="url(#mask0_5203_16946)">
<path d="M16 17.365L20.1925 21.5575C20.3875 21.7525 20.615 21.85 20.875 21.85C21.135 21.85 21.3625 21.7525 21.5575 21.5575C21.7525 21.3625 21.85 21.135 21.85 20.875C21.85 20.615 21.7525 20.3875 21.5575 20.1925L17.365 16L21.5575 11.8075C21.7525 11.6125 21.85 11.385 21.85 11.125C21.85 10.865 21.7525 10.6375 21.5575 10.4425C21.3625 10.2475 21.135 10.15 20.875 10.15C20.615 10.15 20.3875 10.2475 20.1925 10.4425L16 14.635L11.8075 10.4425C11.6125 10.2475 11.385 10.15 11.125 10.15C10.865 10.15 10.6375 10.2475 10.4425 10.4425C10.2475 10.6375 10.15 10.865 10.15 11.125C10.15 11.385 10.2475 11.6125 10.4425 11.8075L14.635 16L10.4425 20.1925C10.2475 20.3875 10.15 20.615 10.15 20.875C10.15 21.135 10.2475 21.3625 10.4425 21.5575C10.6375 21.7525 10.865 21.85 11.125 21.85C11.385 21.85 11.6125 21.7525 11.8075 21.5575L16 17.365ZM16 29C14.2233 29 12.5442 28.6587 10.9625 27.9762C9.38083 27.2937 7.99958 26.3621 6.81875 25.1812C5.63792 24.0004 4.70625 22.6192 4.02375 21.0375C3.34125 19.4558 3 17.7767 3 16C3 14.2017 3.34125 12.5117 4.02375 10.93C4.70625 9.34833 5.63792 7.9725 6.81875 6.8025C7.99958 5.6325 9.38083 4.70625 10.9625 4.02375C12.5442 3.34125 14.2233 3 16 3C17.7983 3 19.4883 3.34125 21.07 4.02375C22.6517 4.70625 24.0275 5.6325 25.1975 6.8025C26.3675 7.9725 27.2937 9.34833 27.9762 10.93C28.6587 12.5117 29 14.2017 29 16C29 17.7767 28.6587 19.4558 27.9762 21.0375C27.2937 22.6192 26.3675 24.0004 25.1975 25.1812C24.0275 26.3621 22.6517 27.2937 21.07 27.9762C19.4883 28.6587 17.7983 29 16 29Z" fill="#CDCED6"/>
</g>
</svg>
