<svg width="32" height="32" viewBox="0 0 32 32" fill="currentColor" xmlns="http://www.w3.org/2000/svg">
<g id="draft_orders">
<circle id="bg" cx="15.9993" cy="16.0013" r="13.3333" fill="white"/>
<mask id="mask0_5924_16647" style="mask-type:alpha" maskUnits="userSpaceOnUse" x="0" y="0" width="32" height="32">
<rect id="Bounding box" width="32" height="32" fill="#D9D9D9"/>
</mask>
<g mask="url(#mask0_5924_16647)">
<path id="draft_orders_2" d="M19.966 14.8346L17.166 12.0346L10.2993 18.9013C10.166 19.0346 10.066 19.1846 9.99935 19.3513C9.93268 19.518 9.89935 19.6902 9.89935 19.868V21.4346C9.89935 21.6124 9.96602 21.768 10.0993 21.9013C10.2327 22.0346 10.3882 22.1013 10.566 22.1013H12.1327C12.3105 22.1013 12.4827 22.068 12.6493 22.0013C12.816 21.9346 12.966 21.8346 13.0993 21.7013L19.966 14.8346ZM20.766 14.0346L21.6993 13.1013C21.966 12.8346 22.0993 12.5235 22.0993 12.168C22.0993 11.8124 21.966 11.5013 21.6993 11.2346L20.766 10.3013C20.4993 10.0346 20.1882 9.9013 19.8327 9.9013C19.4771 9.9013 19.166 10.0346 18.8993 10.3013L17.966 11.2346L20.766 14.0346ZM15.9993 29.3346C14.1549 29.3346 12.4216 28.9846 10.7993 28.2846C9.17713 27.5846 7.76602 26.6346 6.56602 25.4346C5.36602 24.2346 4.41602 22.8235 3.71602 21.2013C3.01602 19.5791 2.66602 17.8457 2.66602 16.0013C2.66602 14.1569 3.01602 12.4235 3.71602 10.8013C4.41602 9.17908 5.36602 7.76797 6.56602 6.56797C7.76602 5.36797 9.17713 4.41797 10.7993 3.71797C12.4216 3.01797 14.1549 2.66797 15.9993 2.66797C17.8438 2.66797 19.5771 3.01797 21.1993 3.71797C22.8216 4.41797 24.2327 5.36797 25.4327 6.56797C26.6327 7.76797 27.5827 9.17908 28.2827 10.8013C28.9827 12.4235 29.3327 14.1569 29.3327 16.0013C29.3327 17.8457 28.9827 19.5791 28.2827 21.2013C27.5827 22.8235 26.6327 24.2346 25.4327 25.4346C24.2327 26.6346 22.8216 27.5846 21.1993 28.2846C19.5771 28.9846 17.8438 29.3346 15.9993 29.3346Z" fill="#3387FF"/>
</g>
</g>
</svg>
