<svg width="48" height="48" viewBox="0 0 48 48" fill="currentColor" xmlns="http://www.w3.org/2000/svg">
<mask id="mask0_5789_17349" style="mask-type:alpha" maskUnits="userSpaceOnUse" x="0" y="0" width="48" height="48">
<rect width="48" height="48" fill="#D9D9D9"/>
</mask>
<g mask="url(#mask0_5789_17349)">
<path d="M40.4913 13.2984C40.0638 13.2984 39.7083 13.1547 39.425 12.8672C39.1417 12.5797 39 12.2234 39 11.7984V8.99844H36.2C35.775 8.99844 35.4188 8.85386 35.1313 8.56469C34.8438 8.27549 34.7 7.91716 34.7 7.48969C34.7 7.06219 34.8438 6.70677 35.1313 6.42344C35.4188 6.1401 35.775 5.99844 36.2 5.99844H39V3.14844C39 2.72344 39.1446 2.36719 39.4338 2.07969C39.7229 1.79219 40.0813 1.64844 40.5088 1.64844C40.9363 1.64844 41.2917 1.79219 41.575 2.07969C41.8583 2.36719 42 2.72344 42 3.14844V5.99844H44.85C45.275 5.99844 45.6313 6.14302 45.9188 6.43219C46.2062 6.72139 46.35 7.07972 46.35 7.50719C46.35 7.93469 46.2062 8.2901 45.9188 8.57344C45.6313 8.85677 45.275 8.99844 44.85 8.99844H42V11.7984C42 12.2234 41.8554 12.5797 41.5662 12.8672C41.2771 13.1547 40.9187 13.2984 40.4913 13.2984ZM21.975 34.6484C24.3917 34.6484 26.4167 33.8318 28.05 32.1984C29.6833 30.5651 30.5 28.5401 30.5 26.1234C30.5 23.7068 29.6833 21.6901 28.05 20.0734C26.4167 18.4568 24.3917 17.6484 21.975 17.6484C19.5583 17.6484 17.5417 18.4568 15.925 20.0734C14.3083 21.6901 13.5 23.7068 13.5 26.1234C13.5 28.5401 14.3083 30.5651 15.925 32.1984C17.5417 33.8318 19.5583 34.6484 21.975 34.6484ZM21.975 31.6484C20.3917 31.6484 19.0833 31.1234 18.05 30.0734C17.0167 29.0234 16.5 27.7068 16.5 26.1234C16.5 24.5401 17.0167 23.2318 18.05 22.1984C19.0833 21.1651 20.3917 20.6484 21.975 20.6484C23.5583 20.6484 24.875 21.1651 25.925 22.1984C26.975 23.2318 27.5 24.5401 27.5 26.1234C27.5 27.7068 26.975 29.0234 25.925 30.0734C24.875 31.1234 23.5583 31.6484 21.975 31.6484ZM5 41.9984C4.2 41.9984 3.5 41.6984 2.9 41.0984C2.3 40.4984 2 39.7984 2 38.9984V13.3484C2 12.5818 2.3 11.8901 2.9 11.2734C3.5 10.6568 4.2 10.3484 5 10.3484H12.35L15.1 7.04844C15.3667 6.68177 15.7 6.4151 16.1 6.24844C16.5 6.08177 16.9333 5.99844 17.4 5.99844H30.2C30.625 5.99844 30.9813 6.14219 31.2688 6.42969C31.5563 6.71719 31.7 7.07344 31.7 7.49844V9.74844C31.7 10.3734 31.9188 10.9047 32.3563 11.3422C32.7938 11.7797 33.325 11.9984 33.95 11.9984H36V14.0484C36 14.6734 36.2188 15.2047 36.6562 15.6422C37.0938 16.0797 37.625 16.2984 38.25 16.2984H40.5C40.925 16.2984 41.2813 16.4422 41.5688 16.7297C41.8563 17.0172 42 17.3734 42 17.7984V38.9984C42 39.7984 41.6917 40.4984 41.075 41.0984C40.4583 41.6984 39.7667 41.9984 39 41.9984H5Z" fill="#CDCED6"/>
</g>
</svg>
