<svg width="49" height="48" viewBox="0 0 49 48" fill="currentColor" xmlns="http://www.w3.org/2000/svg">
<g id="cancel">
<mask id="mask0_5600_12200" style="mask-type:alpha" maskUnits="userSpaceOnUse" x="0" y="0" width="49" height="48">
<rect id="Bounding box" x="0.5" width="48" height="48" fill="#D9D9D9"/>
</mask>
<g mask="url(#mask0_5600_12200)">
<path id="cancel_2" d="M24.5 26.1L30.95 32.55C31.25 32.85 31.6 33 32 33C32.4 33 32.75 32.85 33.05 32.55C33.35 32.25 33.5 31.9 33.5 31.5C33.5 31.1 33.35 30.75 33.05 30.45L26.6 24L33.05 17.55C33.35 17.25 33.5 16.9 33.5 16.5C33.5 16.1 33.35 15.75 33.05 15.45C32.75 15.15 32.4 15 32 15C31.6 15 31.25 15.15 30.95 15.45L24.5 21.9L18.05 15.45C17.75 15.15 17.4 15 17 15C16.6 15 16.25 15.15 15.95 15.45C15.65 15.75 15.5 16.1 15.5 16.5C15.5 16.9 15.65 17.25 15.95 17.55L22.4 24L15.95 30.45C15.65 30.75 15.5 31.1 15.5 31.5C15.5 31.9 15.65 32.25 15.95 32.55C16.25 32.85 16.6 33 17 33C17.4 33 17.75 32.85 18.05 32.55L24.5 26.1ZM24.5 44C21.7667 44 19.1833 43.475 16.75 42.425C14.3167 41.375 12.1917 39.9417 10.375 38.125C8.55833 36.3083 7.125 34.1833 6.075 31.75C5.025 29.3167 4.5 26.7333 4.5 24C4.5 21.2333 5.025 18.6333 6.075 16.2C7.125 13.7667 8.55833 11.65 10.375 9.85C12.1917 8.05 14.3167 6.625 16.75 5.575C19.1833 4.525 21.7667 4 24.5 4C27.2667 4 29.8667 4.525 32.3 5.575C34.7333 6.625 36.85 8.05 38.65 9.85C40.45 11.65 41.875 13.7667 42.925 16.2C43.975 18.6333 44.5 21.2333 44.5 24C44.5 26.7333 43.975 29.3167 42.925 31.75C41.875 34.1833 40.45 36.3083 38.65 38.125C36.85 39.9417 34.7333 41.375 32.3 42.425C29.8667 43.475 27.2667 44 24.5 44Z" fill="#CDCED6"/>
</g>
</g>
</svg>
