<svg width="48" height="48" viewBox="0 0 48 48" fill="currentColor" xmlns="http://www.w3.org/2000/svg">
<g id="humor">
<circle id="bg" cx="24" cy="23.5938" r="16" fill="white"/>
<path id="Subtract" fill-rule="evenodd" clip-rule="evenodd" d="M24 39.5938C32.8366 39.5938 40 32.4303 40 23.5938C40 14.7572 32.8366 7.59375 24 7.59375C15.1634 7.59375 8 14.7572 8 23.5938C8 32.4303 15.1634 39.5938 24 39.5938ZM16.2501 18.3945C16.7284 18.6706 17.4519 18.3129 17.8661 17.5954C18.2803 16.878 18.2284 16.0725 17.7501 15.7964C17.2718 15.5203 16.5483 15.878 16.1341 16.5954C15.7199 17.3129 15.7718 18.1183 16.2501 18.3945ZM19.7955 21.4042L13.8084 21.4085L13.8108 21.409C13.5578 23.9263 14.7032 25.156 15.9144 25.7531C17.5554 26.5188 19.4848 26.3052 20.9185 25.2018C22.1299 24.3148 22.8455 22.9041 22.8467 21.403L19.7955 21.4042ZM22.4823 18.5954C22.0681 19.3129 21.3446 19.6706 20.8663 19.3945C20.388 19.1183 20.3361 18.3129 20.7503 17.5954C21.1645 16.878 21.888 16.5203 22.3663 16.7964C22.8446 17.0725 22.8966 17.878 22.4823 18.5954Z" fill="#3387FF"/>
</g>
</svg>
