<svg width="48" height="48" viewBox="0 0 48 48" fill="currentColor" xmlns="http://www.w3.org/2000/svg">
<g id="happy">
<circle id="bg" cx="24" cy="23.5898" r="16" fill="white"/>
<path id="happy_2" fill-rule="evenodd" clip-rule="evenodd" d="M40 23.5898C40 32.4264 32.8366 39.5898 24 39.5898C15.1634 39.5898 8 32.4264 8 23.5898C8 14.7533 15.1634 7.58984 24 7.58984C32.8366 7.58984 40 14.7533 40 23.5898ZM21 17.082C21 16.2536 20.5523 15.582 20 15.582C19.4477 15.582 19 16.2536 19 17.082C19 17.9105 19.4477 18.582 20 18.582C20.5523 18.582 21 17.9105 21 17.082ZM29 17.082C29 16.2536 28.5523 15.582 28 15.582C27.4477 15.582 27 16.2536 27 17.082C27 17.9105 27.4477 18.582 28 18.582C28.5523 18.582 29 17.9105 29 17.082ZM22.2015 20.8693C21.8105 20.4844 21.1815 20.4863 20.7929 20.8749C20.4024 21.2654 20.4024 21.8986 20.7929 22.2891L20.794 22.2902L20.7952 22.2914L20.7978 22.294L20.8043 22.3004L20.8219 22.3174C20.8357 22.3305 20.8537 22.3473 20.8756 22.3671C20.9194 22.4067 20.9795 22.4588 21.055 22.5191C21.2053 22.6394 21.42 22.7952 21.6914 22.9503C22.2299 23.258 23.0262 23.582 24 23.582C24.9738 23.582 25.7701 23.258 26.3086 22.9503C26.58 22.7952 26.7947 22.6394 26.945 22.5191C27.0205 22.4588 27.0806 22.4067 27.1244 22.3671C27.1463 22.3473 27.1643 22.3305 27.1781 22.3174L27.1957 22.3004L27.2022 22.294C27.0597 22.424 27.2025 22.2934 27.206 22.2903L27.206 22.2902L27.2071 22.2891C27.5976 21.8986 27.5976 21.2654 27.2071 20.8749C26.8185 20.4863 26.1895 20.4844 25.7985 20.8693C25.7978 20.87 25.7965 20.8713 25.7946 20.8731C25.792 20.8754 25.7884 20.8787 25.7838 20.8829C25.7671 20.898 25.7374 20.924 25.6956 20.9574C25.6115 21.0247 25.4825 21.1189 25.3164 21.2138C24.9799 21.406 24.5262 21.582 24 21.582C23.4738 21.582 23.0201 21.406 22.6836 21.2138C22.5175 21.1189 22.3885 21.0247 22.3044 20.9574C22.2626 20.924 22.2329 20.898 22.2162 20.8829C22.2082 20.8757 22.2033 20.871 22.2015 20.8693Z" fill="#3387FF"/>
</g>
</svg>
