<svg width="48" height="48" viewBox="0 0 48 48" fill="currentColor" xmlns="http://www.w3.org/2000/svg">
<g id="kind">
<circle id="bg" cx="24" cy="23.5898" r="16" fill="white"/>
<path id="kind_2" fill-rule="evenodd" clip-rule="evenodd" d="M40 23.5898C40 32.4264 32.8366 39.5898 24 39.5898C15.1634 39.5898 8 32.4264 8 23.5898C8 14.7533 15.1634 7.58984 24 7.58984C32.8366 7.58984 40 14.7533 40 23.5898ZM19.6046 17.5937C20.0829 17.8698 20.8065 17.5121 21.2207 16.7947C21.6349 16.0772 21.5829 15.2718 21.1046 14.9956C20.6264 14.7195 19.9028 15.0772 19.4886 15.7947C19.0744 16.5121 19.1264 17.3176 19.6046 17.5937ZM24.1148 20.5894H20.0019H20.0003C20.0003 20.5894 20.0003 23.6745 22.0576 23.6745C24.1148 23.6745 24.1148 20.5894 24.1148 20.5894ZM26.2207 16.7947C25.8065 17.5121 25.0829 17.8698 24.6046 17.5937C24.1264 17.3176 24.0744 16.5121 24.4886 15.7947C24.9028 15.0772 25.6264 14.7195 26.1046 14.9956C26.5829 15.2718 26.6349 16.0772 26.2207 16.7947Z" fill="#3387FF"/>
</g>
</svg>
