<svg width="72" height="72" viewBox="0 0 72 72" fill="none" xmlns="http://www.w3.org/2000/svg">
<path d="M53.893 53.5255C63.7468 43.6717 63.7468 27.6955 53.893 17.8417C44.0391 7.98784 28.0629 7.98785 18.2091 17.8417C8.35529 27.6955 8.35529 43.6717 18.2091 53.5255C28.0629 63.3793 44.0391 63.3793 53.893 53.5255Z" fill="#ABC1FC"/>
<path d="M47.5691 28.3255C47.9868 29.2493 47.7902 30.24 47.1271 30.5406C46.464 30.8412 45.5858 30.3335 45.1681 29.4096C44.7504 28.4858 44.947 27.4951 45.6135 27.1952C46.28 26.8953 47.1548 27.4023 47.5725 28.3262" fill="white"/>
<path d="M41.8054 29.1311C42.2231 30.055 42.0266 31.0456 41.3634 31.3462C40.7003 31.6468 39.8222 31.1391 39.4044 30.2153C38.9867 29.2914 39.1833 28.3008 39.8498 28.0009C40.5163 27.701 41.3911 28.208 41.8088 29.1318" fill="white"/>
<path d="M40.6867 26.9926L37.0503 25.3542C36.7238 25.2128 36.5729 24.8327 36.7143 24.5067C36.8558 24.1807 37.2363 24.0302 37.5627 24.1716C37.5694 24.173 37.5727 24.1737 37.5787 24.1784L41.2151 25.8168C41.5409 25.9616 41.6844 26.3436 41.5397 26.6689C41.3949 26.9942 41.0125 27.1373 40.6867 26.9926Z" fill="white"/>
<path d="M42.224 34.5818L48.3199 33.754C48.3199 33.754 47.323 39.4259 46.0867 41.5169C45.0129 43.3316 43.6557 43.7799 43.6557 43.7799C43.6557 43.7799 39.6441 45.0224 40.6485 40.2165L42.2274 34.5825L42.224 34.5818Z" fill="white"/>
</svg>
