<svg width="10" height="12" viewBox="0 0 10 12" fill="none" xmlns="http://www.w3.org/2000/svg">
<path d="M4.97139 5.03507C6.31918 5.03507 7.41177 3.94247 7.41177 2.59468C7.41177 1.24689 6.31918 0.154297 4.97139 0.154297C3.6236 0.154297 2.53101 1.24689 2.53101 2.59468C2.53101 3.94247 3.6236 5.03507 4.97139 5.03507Z" fill="#ABC1FC"/>
<path d="M9.97223 8.71734C9.96334 8.67022 9.95223 8.6244 9.9389 8.57862C9.92556 8.53284 9.90556 8.47358 9.88334 8.42174C9.86889 8.38404 9.85223 8.34568 9.83334 8.30932C9.81445 8.27297 9.78889 8.22183 9.76334 8.17874C9.73778 8.13565 9.71889 8.10667 9.69445 8.07166C9.67001 8.03665 9.65889 8.02055 9.64111 7.99565C9.62333 7.97074 9.61 7.95388 9.59334 7.93368L9.58778 7.92563C9.55666 7.88591 9.52111 7.8455 9.48444 7.80713C9.45999 7.77885 9.43445 7.75122 9.40667 7.72429C9.36445 7.67941 9.31999 7.63744 9.27332 7.59839L9.16222 7.50085L9.15334 7.49411C9.11408 7.46179 9.07334 7.43078 9.03112 7.40116L8.99222 7.37289C8.95148 7.34282 8.90889 7.31386 8.86444 7.28603C8.85682 7.28036 8.84865 7.27502 8.83999 7.26992C8.79777 7.24232 8.75333 7.21541 8.70666 7.18848C8.66 7.16156 8.62 7.13726 8.57556 7.1137C8.56445 7.10697 8.55334 7.10094 8.54223 7.09488C8.53197 7.08827 8.52082 7.0822 8.50889 7.07672C8.46223 7.05181 8.41667 7.02818 8.37 7.00596C8.32334 6.98375 8.25111 6.94808 8.18888 6.92116C8.14222 6.89961 8.09445 6.87944 8.04667 6.86059C7.99889 6.84174 7.97222 6.83096 7.93555 6.81547C7.83778 6.77643 7.73777 6.74074 7.63333 6.70708C7.59666 6.69429 7.55778 6.68219 7.52223 6.67141C7.50016 6.66342 7.47712 6.65644 7.45332 6.65054C7.4111 6.6364 7.36666 6.62362 7.32222 6.61151C7.21111 6.58054 7.10777 6.55292 6.99666 6.52801C6.96111 6.51926 6.92777 6.51185 6.89333 6.50377C6.85888 6.49569 6.79889 6.48294 6.74889 6.47418C6.57042 6.438 6.38862 6.40807 6.20444 6.38461C6.14333 6.37586 6.08223 6.3685 6.02112 6.36176C5.96038 6.35458 5.8974 6.34854 5.83221 6.3436C5.81106 6.34047 5.7895 6.33842 5.76777 6.33752C5.74555 6.33752 5.72555 6.33344 5.70111 6.3321C5.64777 6.32738 5.59 6.32402 5.53667 6.32133H5.49778C5.42778 6.31729 5.35666 6.31464 5.28444 6.31262H5.26555C5.18222 6.31262 5.09888 6.30859 5.01333 6.30859C4.92777 6.30859 4.84445 6.30858 4.76112 6.31262H4.74223C4.67001 6.31262 4.6 6.31729 4.52889 6.32133H4.49C4.43444 6.32133 4.37889 6.32738 4.32556 6.3321C4.30112 6.3321 4.2811 6.33214 4.25888 6.33752C4.23715 6.33842 4.21559 6.34047 4.19444 6.3436C4.12925 6.34854 4.06629 6.35458 4.00555 6.36176C3.94444 6.3685 3.88334 6.37586 3.82222 6.38461C3.63804 6.40807 3.45625 6.438 3.27777 6.47418C3.22777 6.48294 3.18001 6.493 3.13334 6.50377C3.08667 6.51454 3.06445 6.51859 3.03001 6.52801C2.91889 6.55292 2.80778 6.58054 2.70445 6.61151C2.66001 6.62362 2.61555 6.6364 2.57333 6.65054C2.54953 6.65643 2.5265 6.66341 2.50444 6.67141C2.46778 6.68219 2.4289 6.69429 2.39334 6.70708C2.29001 6.74074 2.19 6.77441 2.09112 6.81547C2.05445 6.83028 2.01666 6.84443 1.98 6.86059C1.94333 6.87675 1.88334 6.89961 1.83779 6.92116C1.77445 6.94808 1.71555 6.97634 1.65666 7.00596C1.59777 7.03559 1.56444 7.05181 1.51777 7.07672C1.49555 7.08749 1.47111 7.10091 1.44889 7.1137C1.40445 7.13794 1.36001 7.1629 1.31778 7.18848C1.27556 7.21407 1.22666 7.24232 1.18444 7.26992C1.17578 7.27502 1.16764 7.28036 1.16001 7.28603C1.11556 7.31386 1.07296 7.34282 1.03222 7.37289C1.01889 7.38164 1.00666 7.39106 0.99333 7.40116C0.950367 7.43078 0.909626 7.46179 0.871107 7.49411L0.862223 7.50085L0.751105 7.59839C0.705179 7.63923 0.66074 7.68121 0.617777 7.72429C0.59 7.75122 0.564436 7.77885 0.539992 7.80713C0.503325 7.84617 0.467784 7.88591 0.436673 7.92563L0.431112 7.93368C0.414445 7.95321 0.397779 7.97478 0.383335 7.99565C0.36889 8.01651 0.346663 8.04541 0.329997 8.07166C0.31333 8.09792 0.282223 8.14239 0.261112 8.17874C0.240001 8.21509 0.211108 8.26556 0.191108 8.30932C0.171108 8.35308 0.155554 8.38404 0.14111 8.42174C0.118888 8.47358 0.0999954 8.52544 0.0855509 8.57862C0.0711065 8.63181 0.0611079 8.67022 0.052219 8.71734C0.0254288 8.81064 0.00799271 8.9048 0 8.99938V11.0937C0.0171798 11.2622 0.143669 11.4197 0.351851 11.5318C0.560032 11.6439 0.83299 11.7016 1.11111 11.6922H8.88889C9.16701 11.7016 9.43997 11.6439 9.64815 11.5318C9.85633 11.4197 9.98282 11.2622 10 11.0937V8.99938C10.0001 8.9051 9.99082 8.81094 9.97223 8.71734Z" fill="#ABC1FC"/>
</svg>
