<svg width="30" height="30" viewBox="0 0 30 30" fill="none" xmlns="http://www.w3.org/2000/svg">
<path d="M23.3337 1H6.66703C3.53742 1 1.00037 3.53705 1.00037 6.66667V23.3333C1.00037 26.4629 3.53742 29 6.66703 29H23.3337C26.4633 29 29.0004 26.4629 29.0004 23.3333V6.66667C29.0004 3.53705 26.4633 1 23.3337 1Z" fill="#E5E5E5"/>
<path d="M15 11H22" stroke="white" stroke-width="2" stroke-linecap="round" stroke-linejoin="round"/>
<path d="M15 18.5H22" stroke="white" stroke-width="2" stroke-linecap="round" stroke-linejoin="round"/>
<path d="M9.18193 12.8639C10.387 12.8639 11.3639 11.887 11.3639 10.6819C11.3639 9.47688 10.387 8.5 9.18193 8.5C7.97688 8.5 7 9.47688 7 10.6819C7 11.887 7.97688 12.8639 9.18193 12.8639Z" fill="white"/>
<path d="M9.18201 12.209C10.0255 12.209 10.7094 11.5252 10.7094 10.6816C10.7094 9.83812 10.0255 9.1543 9.18201 9.1543C8.33848 9.1543 7.65466 9.83812 7.65466 10.6816C7.65466 11.5252 8.33848 12.209 9.18201 12.209Z" fill="white"/>
<path d="M9.18193 20.3639C10.387 20.3639 11.3639 19.387 11.3639 18.1819C11.3639 16.9769 10.387 16 9.18193 16C7.97688 16 7 16.9769 7 18.1819C7 19.387 7.97688 20.3639 9.18193 20.3639Z" fill="white"/>
<path d="M9.18201 19.709C10.0255 19.709 10.7094 19.0252 10.7094 18.1816C10.7094 17.3381 10.0255 16.6543 9.18201 16.6543C8.33848 16.6543 7.65466 17.3381 7.65466 18.1816C7.65466 19.0252 8.33848 19.709 9.18201 19.709Z" fill="white"/>
</svg>
