<svg width="50" height="50" viewBox="0 0 50 50" fill="none" xmlns="http://www.w3.org/2000/svg">
<g clip-path="url(#clip0_783_2025)">
<path d="M36.1113 2.77734H13.8891C13.1524 2.77734 12.4459 3.07 11.9249 3.59094C11.404 4.11187 11.1113 4.81841 11.1113 5.55512V44.3468C11.1109 44.8973 11.2741 45.4356 11.5801 45.8932C11.8862 46.3509 12.3213 46.7072 12.8303 46.9171C13.3393 47.1269 13.8992 47.1808 14.4389 47.0718C14.9785 46.9629 15.4736 46.696 15.8613 46.3051L24.9447 37.2496L34.153 46.4162C34.5423 46.8032 35.0374 47.0662 35.576 47.1719C36.1146 47.2777 36.6725 47.2215 37.1792 47.0105C37.6859 46.7995 38.1187 46.4432 38.423 45.9864C38.7274 45.5296 38.8895 44.9929 38.8891 44.444V5.55512C38.8891 4.81841 38.5964 4.11187 38.0755 3.59094C37.5546 3.07 36.848 2.77734 36.1113 2.77734Z" fill="#1249FC"/>
</g>
<defs>
<clipPath id="clip0_783_2025">
<rect width="50" height="50" fill="white"/>
</clipPath>
</defs>
</svg>
