<svg width="72" height="72" viewBox="0 0 72 72" fill="none" xmlns="http://www.w3.org/2000/svg">
<path d="M53.5258 53.5255C63.3796 43.6717 63.3796 27.6955 53.5258 17.8417C43.672 7.98784 27.6957 7.98785 17.8419 17.8417C7.9881 27.6955 7.9881 43.6717 17.8419 53.5255C27.6957 63.3793 43.672 63.3793 53.5258 53.5255Z" fill="#1249FC"/>
<path d="M29.3515 24C30.0984 24 30.704 25.1193 30.704 26.5C30.704 27.8807 30.0984 29 29.3515 29C28.6045 29 27.999 27.8807 27.999 26.5C27.999 25.1193 28.6045 24 29.3515 24Z" fill="white"/>
<path d="M42.0146 24C42.7615 24 43.367 25.1193 43.367 26.5C43.367 27.8807 42.7615 29 42.0146 29C41.2676 29 40.6621 27.8807 40.6621 26.5C40.6621 25.1193 41.2676 24 42.0146 24Z" fill="white"/>
<path d="M38.9264 32.7031C38.9264 32.7031 35.7773 35.4346 32.4395 32.7031" stroke="white" stroke-width="2" stroke-linecap="round" stroke-linejoin="round"/>
</svg>
