<svg width="18" height="19" viewBox="0 0 18 19" fill="none" xmlns="http://www.w3.org/2000/svg">
<path d="M9 18.2756C13.9706 18.2756 18 14.3156 18 9.43077C18 4.5459 13.9706 0.585938 9 0.585938C4.02944 0.585938 0 4.5459 0 9.43077C0 14.3156 4.02944 18.2756 9 18.2756Z" fill="#CDCDCD"/>
<path d="M9.00021 17.6429C13.6157 17.6429 17.3574 13.9658 17.3574 9.42985C17.3574 4.89391 13.6157 1.2168 9.00021 1.2168C4.38469 1.2168 0.643066 4.89391 0.643066 9.42985C0.643066 13.9658 4.38469 17.6429 9.00021 17.6429Z" fill="#CDCDCD"/>
<path d="M5.14307 9.16195L8.34794 12.3823L12.8574 7.32812" stroke="white" stroke-width="1.5" stroke-linecap="round"/>
</svg>
