<svg width="21" height="20" viewBox="0 0 21 20" fill="none" xmlns="http://www.w3.org/2000/svg">
<path d="M11.6681 0H8.33527C6.06961 0.0572637 3.91931 1.01152 2.35687 2.65325C0.794426 4.29498 -0.0523561 6.48992 0.00250918 8.75564C-0.0519717 11.0211 0.79499 13.2156 2.35739 14.857C3.91979 16.4984 6.06986 17.4524 8.33527 17.5097H15.0023L18.2752 19.7955C18.4457 19.9099 18.6447 19.9746 18.8499 19.9826C19.0551 19.9907 19.2586 19.9417 19.4376 19.841C19.6166 19.7404 19.7641 19.592 19.8638 19.4124C19.9635 19.2329 20.0114 19.0292 20.0022 18.824V8.74849C20.0552 6.48375 19.2073 4.2905 17.6448 2.65029C16.0822 1.01007 13.9327 0.0569046 11.6681 0Z" fill="white"/>
<path d="M8.33311 0H11.6665C16.2688 0 19.9997 3.91945 19.9997 8.75494V18.8305C19.9999 19.7629 19.0112 20.319 18.2723 19.8015L14.9996 17.5097H8.33311C3.73077 17.5097 0 13.5901 0 8.75494C0 3.91945 3.73077 0 8.33311 0Z" fill="white"/>
</svg>
