<svg width="14" height="14" viewBox="0 0 14 14" fill="none" xmlns="http://www.w3.org/2000/svg">
<path d="M8.16777 0H5.83476C4.24878 0.0400851 2.74355 0.708076 1.64983 1.8573C0.556105 3.00652 -0.0366498 4.543 0.00175645 6.12903C-0.0363806 7.71488 0.5565 9.25102 1.65019 10.4C2.74389 11.549 4.24896 12.2169 5.83476 12.257H10.5018L12.7928 13.8571C12.9122 13.9371 13.0515 13.9824 13.1951 13.988C13.3388 13.9937 13.4812 13.9594 13.6065 13.8889C13.7318 13.8184 13.835 13.7146 13.9048 13.5889C13.9746 13.4632 14.0082 13.3206 14.0018 13.177V6.12402C14.0388 4.53869 13.4453 3.00339 12.3515 1.85522C11.2577 0.70706 9.75304 0.0398337 8.16777 0Z" fill="#AAAAAA"/>
<path d="M5.83325 0H8.16663C11.3883 0 14 2.74365 14 6.12854V13.1815C14.0001 13.8342 13.308 14.2235 12.7908 13.8612L10.4999 12.257H5.83325C2.61157 12.257 0 9.51318 0 6.12854C0 2.74365 2.61157 0 5.83325 0Z" fill="#AAAAAA"/>
</svg>
