<svg width="9" height="9" viewBox="0 0 9 9" fill="none" xmlns="http://www.w3.org/2000/svg">
<path d="M5.24944 0H3.75001C2.7307 0.025613 1.76328 0.452435 1.06035 1.18675C0.35741 1.92106 -0.0235549 2.90282 0.00112887 3.91623V3.91623C-0.0233819 4.92954 0.357664 5.91107 1.06058 6.64525C1.7635 7.37942 2.73081 7.80615 3.75001 7.83176H6.74949L8.22193 8.85417C8.29867 8.90533 8.38819 8.93426 8.48052 8.93786C8.57285 8.94146 8.66438 8.91956 8.74491 8.87453C8.82544 8.8295 8.8918 8.76312 8.93666 8.68281C8.98151 8.6025 9.00307 8.51141 8.99895 8.41964V3.91304C9.02277 2.90006 8.6413 1.91906 7.93832 1.18542C7.23534 0.451786 6.26829 0.0254523 5.24944 0Z" fill="#AAAAAA"/>
<path d="M3.74953 0H5.24919C7.31977 0 8.99831 1.7531 8.99831 3.91592V8.42253C8.99839 8.83958 8.55355 9.08832 8.22113 8.85682L6.74877 7.83176H3.74953C1.67895 7.83176 0.000488281 6.07859 0.000488281 3.91592C0.000488281 1.7531 1.67895 0 3.74953 0Z" fill="#AAAAAA"/>
</svg>
