<svg width="35" height="36" viewBox="0 0 35 36" fill="none" xmlns="http://www.w3.org/2000/svg">
<path fill-rule="evenodd" clip-rule="evenodd" d="M18.0194 2.54754C17.6763 2.48155 17.3238 2.48155 16.9806 2.54754C16.5908 2.62252 16.231 2.80784 15.7736 3.04351L15.7736 3.04351L15.6935 3.08475L6.63668 7.74252L6.52423 7.80031C5.68682 8.23054 5.10823 8.5278 4.67509 8.97713C4.29332 9.37318 4.00335 9.84837 3.82575 10.369C3.62426 10.9597 3.62453 11.6102 3.62491 12.5516L3.62494 12.6781L3.62495 23.499V23.5326C3.62495 24.9043 3.62495 25.9798 3.69557 26.8441C3.76748 27.7243 3.91634 28.4514 4.25167 29.1095C4.80295 30.1914 5.68259 31.0711 6.76453 31.6224C7.42266 31.9577 8.14978 32.1065 9.02992 32.1784C9.89425 32.2491 10.9697 32.2491 12.3413 32.249H12.375L13.5341 32.249L13.5451 32.249H13.5451C13.5901 32.2491 13.6612 32.2492 13.7266 32.2438C13.8063 32.2373 13.9407 32.2192 14.0854 32.1455C14.2642 32.0544 14.4095 31.9091 14.5006 31.7303C14.5743 31.5856 14.5924 31.4512 14.5989 31.3715C14.6043 31.3061 14.6042 31.235 14.6041 31.19L14.6041 31.179V25.3949C14.6041 23.7956 15.9006 22.4991 17.5 22.4991C19.0993 22.4991 20.3958 23.7956 20.3958 25.3949V31.1791L20.3958 31.1901V31.1902C20.3957 31.2351 20.3957 31.3062 20.401 31.3715C20.4075 31.4512 20.4256 31.5856 20.4993 31.7304C20.5904 31.9091 20.7358 32.0545 20.9145 32.1455C21.0592 32.2193 21.1936 32.2373 21.2734 32.2439C21.3387 32.2492 21.4099 32.2491 21.4548 32.2491L21.4658 32.2491H22.625H22.6585H22.6586C24.0303 32.2491 25.1057 32.2491 25.97 32.1785C26.8502 32.1066 27.5773 31.9577 28.2354 31.6224C29.3173 31.0711 30.197 30.1915 30.7482 29.1095C31.0836 28.4514 31.2324 27.7243 31.3043 26.8441C31.375 25.9798 31.375 24.9044 31.375 23.5327V23.5327V23.4991V12.6781L31.375 12.5516V12.5516C31.3754 11.6102 31.3756 10.9597 31.1742 10.369C30.9966 9.84837 30.7066 9.37318 30.3248 8.97713C29.8917 8.5278 29.3131 8.23054 28.4757 7.8003L28.3632 7.74251L19.3065 3.08476L19.2264 3.04352C18.769 2.80785 18.4093 2.62252 18.0194 2.54754Z" fill="#E5E5E5"/>
</svg>
