<svg width="72" height="72" viewBox="0 0 72 72" fill="none" xmlns="http://www.w3.org/2000/svg">
<path d="M53.893 53.5255C63.7468 43.6717 63.7468 27.6955 53.893 17.8417C44.0391 7.98784 28.0629 7.98785 18.2091 17.8417C8.35529 27.6955 8.35529 43.6717 18.2091 53.5255C28.0629 63.3793 44.0391 63.3793 53.893 53.5255Z" fill="#1249FC"/>
<path d="M35.3855 23.7572C34.5965 24.4692 34.3694 25.5031 34.8801 26.0702C35.3908 26.6373 36.4473 26.5183 37.2363 25.8064C38.0253 25.0944 38.2523 24.0605 37.7381 23.4927C37.2239 22.9249 36.1709 23.0446 35.382 23.7565" fill="white"/>
<path d="M29.6648 23.0189C28.8758 23.7309 28.6487 24.7648 29.1594 25.3319C29.6701 25.899 30.7266 25.78 31.5156 25.0681C32.3045 24.3561 32.5316 23.3222 32.0174 22.7544C31.5032 22.1866 30.4502 22.3063 29.6612 23.0182" fill="white"/>
<path d="M24.5687 29.6696L33.4706 29.6632L38.0072 29.6614C38.0053 31.8933 36.9413 33.9908 35.1402 35.3096C33.0085 36.9502 30.1399 37.2677 27.7 36.1294C25.8992 35.2415 24.1961 33.4132 24.5723 29.6703" fill="white"/>
<path d="M33.3687 32.9163C33.2074 32.8826 33.0956 32.735 33.1082 32.5695L33.3354 29.6797C33.3545 29.501 33.5171 29.3705 33.6995 29.3904C33.8707 29.4116 33.9973 29.5586 33.9909 29.729L33.7637 32.6189C33.7482 32.7983 33.5918 32.9337 33.4122 32.918C33.3982 32.9151 33.3842 32.9122 33.3701 32.9092" fill="#ABC1FC"/>
<path d="M35.3346 32.1548C35.1734 32.1211 35.0615 31.9735 35.0742 31.8081L35.2604 29.4467C35.2689 29.2658 35.4225 29.1262 35.6036 29.1348C35.7847 29.1435 35.9246 29.2969 35.916 29.4778C35.9146 29.4848 35.9131 29.4918 35.9117 29.4988L35.7254 31.8602C35.7099 32.0396 35.5535 32.175 35.3739 32.1594C35.3599 32.1564 35.3458 32.1535 35.3318 32.1506" fill="#ABC1FC"/>
</svg>
