<svg width="26" height="26" viewBox="0 0 26 26" fill="none" xmlns="http://www.w3.org/2000/svg">
<path d="M21.8396 0H4.16044C1.86269 0 0 1.86269 0 4.16044V21.8396C0 24.1373 1.86269 26 4.16044 26H21.8396C24.1373 26 26 24.1373 26 21.8396V4.16044C26 1.86269 24.1373 0 21.8396 0Z" fill="#DFE7FF"/>
<path d="M7.30489 11.4259C7.88044 10.546 9.31911 10.546 9.89467 11.4259L14.2458 18.0803L15.2338 19.5911L17.7049 15.812C18.2804 14.9321 19.7191 14.9321 20.2947 15.812L24.6458 22.4664L25.4653 23.7193C25.8058 23.1075 26 22.4035 26 21.6547V4.2629C26 1.9086 24.0853 0 21.7236 0H4.27644C1.91467 0 0 1.9086 0 4.2629V21.6547C0 21.9356 0.0275556 22.2103 0.0795556 22.4761L2.95378 18.0803L7.30489 11.4259Z" fill="#1249FC"/>
</svg>
