<svg width="72" height="72" viewBox="0 0 72 72" fill="none" xmlns="http://www.w3.org/2000/svg">
<path d="M53.893 53.5255C63.7468 43.6717 63.7468 27.6955 53.893 17.8417C44.0391 7.98784 28.0629 7.98785 18.2091 17.8417C8.35529 27.6955 8.35529 43.6717 18.2091 53.5255C28.0629 63.3793 44.0391 63.3793 53.893 53.5255Z" fill="#ABC1FC"/>
<path d="M36.9353 24.9508C36.2804 25.7877 36.2344 26.8453 36.8349 27.3162C37.4354 27.7871 38.4558 27.4884 39.1107 26.6515C39.7656 25.8146 39.8117 24.757 39.2076 24.286C38.6035 23.815 37.5867 24.1138 36.9318 24.9507" fill="white"/>
<path d="M29.9295 24.6901C29.2746 25.527 29.2285 26.5846 29.829 27.0555C30.4296 27.5264 31.4499 27.2277 32.1048 26.3908C32.7598 25.5539 32.8058 24.4963 32.2017 24.0253C31.5976 23.5542 30.5808 23.8531 29.9259 24.69" fill="white"/>
<path d="M31.0638 33H37.1791C37.1791 33 37.1791 37.587 34.1203 37.587C31.0615 37.587 31.0615 33 31.0615 33H31.0638Z" fill="white"/>
</svg>
