<svg width="9" height="9" viewBox="0 0 9 9" fill="none" xmlns="http://www.w3.org/2000/svg">
<path d="M5.48707 3.14998V1.34999C5.48707 0.991951 5.34254 0.648576 5.08529 0.395403C4.82803 0.142231 4.47912 0 4.1153 0L2.28628 4.04997V8.99994H7.44412C7.66467 9.0024 7.87869 8.92633 8.04674 8.78575C8.2148 8.64517 8.32556 8.44955 8.35863 8.23495L8.98964 4.18497C9.00954 4.05598 9.0007 3.92428 8.96374 3.79899C8.92677 3.6737 8.86257 3.55781 8.77558 3.45936C8.68859 3.36091 8.5809 3.28225 8.45995 3.22883C8.339 3.17541 8.2077 3.1485 8.07513 3.14998H5.48707ZM2.28628 8.99994H0.914511C0.671968 8.99994 0.439358 8.90512 0.267854 8.73634C0.09635 8.56756 0 8.33864 0 8.09995V4.94997C0 4.71128 0.09635 4.48236 0.267854 4.31358C0.439358 4.14479 0.671968 4.04997 0.914511 4.04997H2.28628" fill="#AAAAAA"/>
</svg>
