<svg width="10" height="12" viewBox="0 0 10 12" fill="none" xmlns="http://www.w3.org/2000/svg">
<path d="M4.62638 0.00116614C3.40822 0.0828665 2.26234 0.628658 1.40957 1.53339C0.556805 2.43813 0.0574941 3.6378 0.00782095 4.90119C-0.035217 5.71228 0.0997802 6.52289 0.402674 7.27216C0.606354 7.7766 0.898339 8.23766 1.26385 8.63215L1.93483 9.35517L4.06936 11.6552C4.1669 11.7621 4.28445 11.8472 4.41484 11.9053C4.54523 11.9635 4.68569 11.9935 4.82766 11.9935C4.96964 11.9935 5.11015 11.9635 5.24055 11.9053C5.37094 11.8472 5.48848 11.7621 5.58602 11.6552L7.72056 9.35517L8.39636 8.62421C8.75667 8.23527 9.04435 7.78055 9.24493 7.28315V7.27216C9.51157 6.61353 9.64843 5.9064 9.6475 5.19221C9.66041 4.506 9.53932 3.82407 9.29142 3.18757C9.04353 2.55107 8.67396 1.97308 8.20498 1.48823C7.73599 1.00338 7.17724 0.621702 6.56228 0.366156C5.94732 0.11061 5.28883 -0.0135182 4.62638 0.00116614Z" fill="#ABC1FC"/>
<path d="M4.82732 3C5.2092 3 5.58251 3.1173 5.90003 3.33706C6.21756 3.55682 6.46504 3.86918 6.61118 4.23463C6.75732 4.60009 6.79556 5.00222 6.72106 5.39018C6.64655 5.77814 6.46266 6.13451 6.19263 6.41421C5.9226 6.69392 5.57855 6.8844 5.20401 6.96157C4.82946 7.03874 4.44124 6.99913 4.08842 6.84776C3.73561 6.69638 3.43405 6.44004 3.22189 6.11114C3.00973 5.78224 2.89648 5.39556 2.89648 5C2.89648 4.46957 3.09991 3.96086 3.46201 3.58579C3.82412 3.21071 4.31523 3 4.82732 3V3Z" fill="white"/>
</svg>
