<svg width="15" height="15" viewBox="0 0 15 15" fill="none" xmlns="http://www.w3.org/2000/svg">
<path d="M7.5 15C11.6421 15 15 11.6421 15 7.5C15 3.35786 11.6421 0 7.5 0C3.35786 0 0 3.35786 0 7.5C0 11.6421 3.35786 15 7.5 15Z" fill="#1249FC"/>
<path d="M7.93608 3.30064L8.8373 5.55586C8.87067 5.63977 8.92541 5.7124 8.99559 5.76596C9.06578 5.81953 9.14869 5.85195 9.23526 5.85958L11.564 6.05826C11.6572 6.06613 11.7461 6.10264 11.8196 6.16331C11.893 6.22397 11.9477 6.30612 11.9767 6.39921C12.0057 6.4923 12.0077 6.59228 11.9824 6.68656C11.9572 6.78084 11.9059 6.86513 11.8349 6.92895L10.0626 8.52235C9.9967 8.58148 9.94761 8.65842 9.92073 8.74481C9.89384 8.8312 9.89022 8.92367 9.91024 9.01208L10.4486 11.3901C10.4701 11.4853 10.464 11.5849 10.4315 11.6765C10.399 11.7682 10.3413 11.8479 10.2657 11.9053C10.1901 11.9628 10.0999 11.9955 10.0065 11.9996C9.91314 12.0036 9.82075 11.9788 9.74087 11.928L7.74486 10.6625C7.67065 10.6153 7.58551 10.5903 7.4987 10.5903C7.41188 10.5903 7.32674 10.6153 7.25254 10.6625L5.25652 11.928C5.17664 11.9788 5.08425 12.0036 4.99087 11.9996C4.8975 11.9955 4.80733 11.9628 4.73172 11.9053C4.65611 11.8479 4.59842 11.7682 4.56589 11.6765C4.53336 11.5849 4.52746 11.4853 4.54891 11.3901L5.0873 9.01208C5.10746 8.92378 5.10393 8.83135 5.07726 8.74497C5.05059 8.65858 5.00181 8.58162 4.93609 8.52235L3.16379 6.92895C3.09324 6.86504 3.04229 6.78079 3.01731 6.68671C2.99232 6.59264 2.99443 6.49297 3.02336 6.40014C3.05229 6.30731 3.10685 6.22544 3.18004 6.16485C3.25322 6.10427 3.34176 6.06761 3.43476 6.05949L5.76346 5.86082C5.85024 5.85341 5.93345 5.82124 6.00387 5.76766C6.07428 5.71409 6.12913 5.64119 6.16261 5.55709L7.06382 3.30187C7.10019 3.21243 7.1609 3.13617 7.23836 3.0825C7.31582 3.02883 7.40668 3.00014 7.49958 3C7.59249 2.99987 7.68335 3.02828 7.76095 3.08172C7.83855 3.13517 7.89948 3.2113 7.93608 3.30064V3.30064Z" fill="white"/>
</svg>
