<svg width="197" height="200" viewBox="0 0 197 200" fill="none" xmlns="http://www.w3.org/2000/svg">
<g clip-path="url(#clip0_695_2265)">
<path d="M111.47 177.904C157.476 177.904 194.772 140.52 194.772 94.4033C194.772 48.287 157.476 10.9023 111.47 10.9023C65.4633 10.9023 28.1677 48.287 28.1677 94.4033C28.1677 140.52 65.4633 177.904 111.47 177.904Z" fill="#1249FC"/>
<path d="M90.1477 69.6884C90.8698 66.5876 88.9475 63.487 85.854 62.7631C82.7606 62.0393 79.6674 63.9662 78.9453 67.067C78.2231 70.1679 80.1454 73.2685 83.2389 73.9923C86.3324 74.7162 89.4255 72.7893 90.1477 69.6884Z" fill="white"/>
<path d="M142.461 72.4519C144.707 70.2003 144.707 66.5497 142.461 64.2981C140.215 62.0465 136.573 62.0465 134.327 64.2981C132.08 66.5497 132.08 70.2003 134.327 72.4519C136.573 74.7035 140.215 74.7035 142.461 72.4519Z" fill="white"/>
<path d="M122.176 91.3671C121.551 91.3671 120.92 91.1588 120.397 90.7308C111.312 83.2784 102.95 90.3715 102.599 90.6782C101.425 91.6967 99.6508 91.5708 98.6347 90.3967C97.6186 89.2225 97.7442 87.4418 98.9156 86.4233C103.131 82.7588 113.787 78.0301 123.955 86.3706C125.156 87.3548 125.334 89.1309 124.35 90.3349C123.795 91.0146 122.987 91.3671 122.174 91.3671H122.176Z" fill="white"/>
<path d="M104.941 175.213H94.8672V200.001H104.941V175.213Z" fill="#1249FC"/>
<path d="M92.8304 190.656H104.941V200.002H83.5051C83.5051 194.843 87.6837 190.656 92.8281 190.656H92.8304Z" fill="#1249FC"/>
<path d="M117.998 200H128.072V175.212H117.998V200Z" fill="#1249FC"/>
<path d="M139.432 200.004H117.995V190.659H130.106C135.253 190.659 139.429 194.847 139.429 200.004H139.432Z" fill="#1249FC"/>
<path d="M120.868 102.963H102.071C99.9424 102.963 98.2168 104.693 98.2168 106.826V139.19C98.2168 141.324 99.9424 143.054 102.071 143.054H120.868C122.997 143.054 124.722 141.324 124.722 139.19V106.826C124.722 104.693 122.997 102.963 120.868 102.963Z" fill="#1A1A1A"/>
<path d="M103.706 110.89C104.97 110.89 105.994 109.863 105.994 108.596C105.994 107.33 104.97 106.303 103.706 106.303C102.443 106.303 101.418 107.33 101.418 108.596C101.418 109.863 102.443 110.89 103.706 110.89Z" fill="white"/>
<path d="M154.607 4.65087C156.591 2.12629 160.24 1.69371 162.759 3.6827C165.277 5.67169 165.709 9.32923 163.724 11.8538" fill="#ABC1FC"/>
<path d="M170.623 17.3032C172.607 14.7786 176.256 14.3461 178.774 16.335C181.293 18.324 181.724 21.9816 179.74 24.5062" fill="#ABC1FC"/>
<path d="M186.636 29.9536C188.62 27.429 192.269 26.9964 194.787 28.9854C197.306 30.9744 197.737 34.632 195.753 37.1565" fill="#ABC1FC"/>
<path d="M169.501 2.21728C171.486 -0.307299 175.135 -0.739888 177.653 1.2491C180.172 3.23809 180.603 6.89564 178.619 9.42022" fill="#ABC1FC"/>
<path d="M185.517 14.8677C187.501 12.3431 191.15 11.9105 193.668 13.8995C196.187 15.8885 196.619 19.546 194.634 22.0706" fill="#ABC1FC"/>
<path d="M126.129 132.777C125.117 132.777 124.094 132.754 123.053 132.71C120.468 132.601 118.461 130.412 118.571 127.821C118.681 125.231 120.85 123.223 123.448 123.329C135.347 123.832 144.599 121.026 150.949 114.99C160.11 106.288 160.359 93.7637 160.361 93.6378C160.391 91.0629 162.482 88.9961 165.044 88.9961C165.063 88.9961 165.081 88.9961 165.099 88.9961C167.686 89.0258 169.757 91.1522 169.728 93.7454C169.721 94.4206 169.401 110.399 157.395 121.804C149.725 129.089 139.217 132.774 126.131 132.774L126.129 132.777Z" fill="#3A6DFC"/>
<path d="M45.7039 56.4204C44.9276 58.8992 42.2948 60.2702 39.8311 59.4897C38.6414 59.1143 37.4244 58.8145 36.2051 58.5696C37.6002 55.6216 39.1643 52.7674 40.8974 50.0254C41.4865 50.1765 42.0688 50.3435 42.6487 50.5335C45.1125 51.3117 46.4802 53.9507 45.7016 56.4204H45.7039Z" fill="#1249FC"/>
<path d="M45.704 56.4189C44.9276 58.8977 42.2949 60.2687 39.8311 59.4882C38.6415 59.1128 37.4245 58.813 36.2051 58.5681C28.6746 57.1307 20.8609 58.4468 15.5315 62.1913C11.6247 64.9425 9.55594 68.6046 9.37784 73.0838C8.93715 84.1732 19.0159 90.4835 28.186 92.651C28.1768 93.2324 28.1677 93.816 28.1677 94.3974C28.1677 97.0181 28.2887 99.5999 28.533 102.152C28.4394 102.161 28.3367 102.161 28.2339 102.161C27.9165 102.161 27.5968 102.134 27.2795 102.067C13.239 99.1604 -0.625606 88.9546 0.0228707 72.7108C0.312859 65.3682 3.90917 58.9091 10.1496 54.5146C18.3355 48.749 29.9693 47.0873 40.902 50.0262C41.4911 50.1773 42.0734 50.3443 42.6534 50.5343C45.1171 51.3125 46.4849 53.9515 45.7062 56.4212L45.704 56.4189Z" fill="#3A6DFC"/>
</g>
<defs>
<clipPath id="clip0_695_2265">
<rect width="197" height="200" fill="white"/>
</clipPath>
</defs>
</svg>
