<svg width="186" height="213" viewBox="0 0 186 213" fill="none" xmlns="http://www.w3.org/2000/svg">
<g clip-path="url(#clip0_695_2363)">
<path d="M82.7327 191.169C128.425 191.169 165.465 154.238 165.465 108.681C165.465 63.1243 128.425 26.1934 82.7327 26.1934C37.0407 26.1934 0 63.1243 0 108.681C0 154.238 37.0407 191.169 82.7327 191.169Z" fill="#1249FC"/>
<path d="M60.0299 86.9961C62.2608 84.7719 62.2608 81.1656 60.0299 78.9414C57.799 76.7171 54.1821 76.7171 51.9512 78.9414C49.7203 81.1656 49.7203 84.7719 51.9512 86.9961C54.1821 89.2204 57.799 89.2204 60.0299 86.9961Z" fill="white"/>
<path d="M111.658 88.2331C114.573 87.0294 115.957 83.6976 114.749 80.7915C113.542 77.8854 110.2 76.5053 107.286 77.7091C104.371 78.9128 102.987 82.2446 104.194 85.1507C105.401 88.0568 108.743 89.4369 111.658 88.2331Z" fill="white"/>
<path d="M93.3663 105.684C92.745 105.684 92.1191 105.478 91.602 105.055C82.5808 97.6955 74.274 104.702 73.9248 105.003C72.7614 106.009 70.9993 105.885 69.9879 104.725C68.9788 103.565 69.1035 101.806 70.2669 100.8C74.4531 97.1799 85.0346 92.5086 95.1352 100.748C96.328 101.72 96.5049 103.475 95.5275 104.664C94.9742 105.336 94.1736 105.684 93.3663 105.684Z" fill="white"/>
<path d="M76.249 188.51H66.2437V212.997H76.249V188.51Z" fill="#1249FC"/>
<path d="M64.2208 203.766H76.249V212.997H54.9592C54.9592 207.901 59.1092 203.766 64.2185 203.766H64.2208Z" fill="#1249FC"/>
<path d="M89.216 213H99.2214V188.513H89.216V213Z" fill="#1249FC"/>
<path d="M110.504 213H89.2139V203.768H101.242C106.354 203.768 110.501 207.906 110.501 213H110.504Z" fill="#1249FC"/>
<path d="M180.507 135.653C176.525 139.447 172.423 140.318 169.418 140.949C167.409 141.376 166.71 141.58 166.515 141.941C165.669 143.472 164.077 144.343 162.431 144.343C161.678 144.343 160.905 144.157 160.197 143.768C159.426 143.35 158.83 142.748 158.41 142.043C157.628 140.68 157.544 138.954 158.365 137.471C159.211 135.922 160.299 134.837 161.472 134.057C163.445 132.73 165.676 132.257 167.49 131.877C169.91 131.366 172.003 130.921 174.067 128.956C175.899 127.204 177.761 122.659 175.917 118.456C174.568 115.367 169.062 112.706 166.354 113.233C166.01 113.298 165.665 113.325 165.322 113.307C165.415 111.777 165.463 110.228 165.463 108.679C165.463 107.13 165.415 105.563 165.322 104.014C172.43 103.078 181.546 108.123 184.449 114.745C187.918 122.675 185.091 131.265 180.505 135.653H180.507Z" fill="#3A6DFC"/>
<path d="M69.693 144.59C32.0549 144.59 21.1265 120.324 20.6548 119.232C19.6389 116.881 20.7296 114.152 23.0881 113.139C25.4353 112.13 28.1634 113.204 29.1884 115.54C29.6261 116.514 39.6542 137.755 75.9067 135.08C78.5033 134.894 80.7008 136.81 80.889 139.362C81.0795 141.917 79.1564 144.14 76.5938 144.33C74.2013 144.506 71.8995 144.59 69.693 144.59Z" fill="#3A6DFC"/>
<path d="M155.081 42.1053C166.743 42.1053 176.196 32.6797 176.196 21.0526C176.196 9.42559 166.743 0 155.081 0C143.42 0 133.966 9.42559 133.966 21.0526C133.966 32.6797 143.42 42.1053 155.081 42.1053Z" fill="#ABC1FC"/>
<path d="M162.343 30.6645C161.928 30.6645 161.508 30.5718 161.114 30.3773L152.117 25.9638C151.163 25.4957 150.559 24.528 150.559 23.4676V10.8712C150.559 9.33373 151.809 8.08789 153.351 8.08789C154.893 8.08789 156.143 9.33373 156.143 10.8712V21.7356L163.579 25.3827C164.962 26.061 165.531 27.7296 164.851 29.1089C164.365 30.0924 163.374 30.6645 162.345 30.6645H162.343Z" fill="white"/>
<path d="M69.3415 135.259H64.6677C63.629 135.259 62.7854 134.418 62.7854 133.383C62.7854 132.347 63.629 131.506 64.6677 131.506H69.3415C70.3802 131.506 71.2238 132.347 71.2238 133.383C71.2238 134.418 70.3802 135.259 69.3415 135.259Z" fill="#7AA1FC"/>
<path d="M69.7315 135.258H64.2798V144.512H69.7315V135.258Z" fill="#7AA1FC"/>
<path d="M161.474 134.059C160.59 136.785 159.567 139.447 158.412 142.045C157.63 140.681 157.546 138.956 158.367 137.473C159.213 135.924 160.302 134.839 161.474 134.059Z" fill="#1249FC"/>
</g>
<defs>
<clipPath id="clip0_695_2363">
<rect width="186" height="213" fill="white"/>
</clipPath>
</defs>
</svg>
