<svg width="15" height="15" viewBox="0 0 15 15" fill="none" xmlns="http://www.w3.org/2000/svg">
<path d="M10.3846 6.34615C10.3846 5.23438 9.98948 4.28335 9.19922 3.49309C8.40895 2.70282 7.45793 2.30769 6.34615 2.30769C5.23438 2.30769 4.28335 2.70282 3.49309 3.49309C2.70282 4.28335 2.30769 5.23438 2.30769 6.34615C2.30769 7.45793 2.70282 8.40895 3.49309 9.19922C4.28335 9.98948 5.23438 10.3846 6.34615 10.3846C7.45793 10.3846 8.40895 9.98948 9.19922 9.19922C9.98948 8.40895 10.3846 7.45793 10.3846 6.34615ZM15 13.8462C15 14.1587 14.8858 14.4291 14.6575 14.6575C14.4291 14.8858 14.1587 15 13.8462 15C13.5216 15 13.2512 14.8858 13.0349 14.6575L9.94291 11.5745C8.86719 12.3197 7.66827 12.6923 6.34615 12.6923C5.48678 12.6923 4.66496 12.5255 3.88071 12.192C3.09645 11.8585 2.42037 11.4078 1.85246 10.8398C1.28456 10.2719 0.833834 9.59585 0.5003 8.8116C0.166767 8.02734 0 7.20553 0 6.34615C0 5.48678 0.166767 4.66496 0.5003 3.88071C0.833834 3.09645 1.28456 2.42037 1.85246 1.85246C2.42037 1.28456 3.09645 0.833834 3.88071 0.5003C4.66496 0.166767 5.48678 0 6.34615 0C7.20553 0 8.02734 0.166767 8.8116 0.5003C9.59585 0.833834 10.2719 1.28456 10.8398 1.85246C11.4078 2.42037 11.8585 3.09645 12.192 3.88071C12.5255 4.66496 12.6923 5.48678 12.6923 6.34615C12.6923 7.66827 12.3197 8.86719 11.5745 9.94291L14.6665 13.0349C14.8888 13.2572 15 13.5276 15 13.8462Z" fill="black"/>
</svg>
