<svg width="24" height="24" viewBox="0 0 24 24" fill="none" xmlns="http://www.w3.org/2000/svg">
<g clip-path="url(#clip0_4805_26568)">
<path fill-rule="evenodd" clip-rule="evenodd" d="M4.76145 19.3789C5.9436 20.6089 7.42408 21.5119 9.05878 22C9.25074 21.4017 9.62772 20.8798 10.1354 20.5095C10.643 20.1393 11.2551 19.9398 11.8835 19.9398C12.5118 19.9398 13.1239 20.1393 13.6316 20.5095C14.1392 20.8798 14.5162 21.4017 14.7082 22C16.3428 21.5121 17.8233 20.6092 19.0055 19.3794C18.6252 18.9283 18.3881 18.3739 18.3246 17.7873C18.261 17.2007 18.374 16.6084 18.649 16.0863C18.924 15.5643 19.3485 15.1361 19.8682 14.8567C20.3879 14.5772 20.9792 14.4592 21.5663 14.5177C21.6978 13.8743 21.767 13.2082 21.767 12.5262C21.7679 11.5206 21.6152 10.5207 21.3143 9.56115C20.8069 9.56844 20.306 9.44537 19.8598 9.2037C19.4135 8.96204 19.0367 8.60988 18.7655 8.18093C18.4943 7.75198 18.3378 7.2606 18.3108 6.75382C18.2839 6.24704 18.3875 5.74183 18.6117 5.28654C17.453 4.20767 16.0518 3.42342 14.5263 3C14.2781 3.48745 13.8998 3.89673 13.4334 4.18253C12.9669 4.46834 12.4305 4.61954 11.8835 4.61941C11.3364 4.61954 10.8 4.46834 10.3336 4.18253C9.86717 3.89673 9.4889 3.48745 9.24064 3C7.71515 3.42342 6.31394 4.20767 5.1553 5.28654C5.37788 5.73866 5.48154 6.24005 5.45651 6.74337C5.43148 7.24668 5.27858 7.73531 5.01225 8.16312C4.74593 8.59093 4.37495 8.9438 3.93436 9.18842C3.49378 9.43303 2.99811 9.56131 2.49418 9.56115H2.45267C2.15814 10.4971 2 11.4934 2 12.5262C1.99965 13.1949 2.06687 13.862 2.20064 14.5172C2.7878 14.4587 3.37906 14.5767 3.89876 14.8562C4.41846 15.1356 4.84297 15.5638 5.11796 16.0858C5.39296 16.6079 5.50592 17.2002 5.44241 17.7868C5.3789 18.3734 5.1418 18.9278 4.76145 19.3789ZM13.3965 16.0414C12.9168 16.2401 12.4027 16.3423 11.8836 16.3423C10.8351 16.3423 9.8295 15.9258 9.0881 15.1844C8.34669 14.443 7.93018 13.4374 7.93018 12.3889C7.93018 11.3404 8.34669 10.3349 9.0881 9.59347C9.8295 8.85206 10.8351 8.43555 11.8836 8.43555C12.4027 8.43555 12.9168 8.5378 13.3965 8.73648C13.8761 8.93516 14.3119 9.22636 14.679 9.59347C15.0461 9.96058 15.3373 10.3964 15.536 10.876C15.7347 11.3557 15.837 11.8698 15.837 12.3889C15.837 12.9081 15.7347 13.4222 15.536 13.9018C15.3373 14.3815 15.0461 14.8173 14.679 15.1844C14.3119 15.5515 13.8761 15.8427 13.3965 16.0414Z" fill="white"/>
</g>
<defs>
<clipPath id="clip0_4805_26568">
<rect width="24" height="24" fill="white"/>
</clipPath>
</defs>
</svg>
