<svg width="20" height="19" viewBox="0 0 20 19" fill="none" xmlns="http://www.w3.org/2000/svg">
<path fill-rule="evenodd" clip-rule="evenodd" d="M2.88254 16.3789C4.06469 17.6089 5.54518 18.5119 7.17988 19C7.37184 18.4017 7.74881 17.8798 8.25647 17.5095C8.76412 17.1393 9.37623 16.9398 10.0046 16.9398C10.6329 16.9398 11.245 17.1393 11.7527 17.5095C12.2603 17.8798 12.6373 18.4017 12.8293 19C14.4639 18.5121 15.9444 17.6092 17.1266 16.3794C16.7463 15.9283 16.5092 15.3739 16.4456 14.7873C16.3821 14.2007 16.4951 13.6084 16.7701 13.0863C17.0451 12.5643 17.4696 12.1361 17.9893 11.8567C18.509 11.5772 19.1003 11.4592 19.6874 11.5177C19.8189 10.8743 19.8881 10.2082 19.8881 9.52619C19.889 8.52056 19.7363 7.52069 19.4354 6.56115C18.9279 6.56844 18.4271 6.44537 17.9809 6.2037C17.5346 5.96204 17.1578 5.60988 16.8866 5.18093C16.6154 4.75198 16.4589 4.2606 16.4319 3.75382C16.405 3.24704 16.5086 2.74183 16.7328 2.28654C15.5741 1.20767 14.1729 0.423421 12.6474 0C12.3992 0.487454 12.0209 0.896726 11.5544 1.18253C11.088 1.46834 10.5516 1.61954 10.0046 1.61941C9.45754 1.61954 8.92113 1.46834 8.4547 1.18253C7.98827 0.896726 7.60999 0.487454 7.36173 0C5.83624 0.423421 4.43503 1.20767 3.2764 2.28654C3.49897 2.73866 3.60263 3.24005 3.5776 3.74337C3.55258 4.24668 3.39968 4.73531 3.13335 5.16312C2.86702 5.59093 2.49604 5.9438 2.05546 6.18842C1.61487 6.43303 1.11921 6.56131 0.615269 6.56115H0.573758C0.279231 7.49711 0.121094 8.49337 0.121094 9.52619C0.120746 10.1949 0.187965 10.862 0.32173 11.5172C0.908889 11.4587 1.50015 11.5767 2.01985 11.8562C2.53956 12.1356 2.96406 12.5638 3.23906 13.0858C3.51405 13.6079 3.62702 14.2002 3.56351 14.7868C3.49999 15.3734 3.26289 15.9278 2.88254 16.3789ZM11.5176 13.0414C11.0379 13.2401 10.5238 13.3423 10.0047 13.3423C8.95616 13.3423 7.9506 12.9258 7.20919 12.1844C6.46779 11.443 6.05127 10.4374 6.05127 9.38894C6.05127 8.34043 6.46779 7.33487 7.20919 6.59347C7.9506 5.85206 8.95616 5.43555 10.0047 5.43555C10.5238 5.43555 11.0379 5.5378 11.5176 5.73648C11.9972 5.93516 12.433 6.22636 12.8001 6.59347C13.1672 6.96058 13.4584 7.39639 13.6571 7.87604C13.8558 8.35569 13.9581 8.86977 13.9581 9.38894C13.9581 9.9081 13.8558 10.4222 13.6571 10.9018C13.4584 11.3815 13.1672 11.8173 12.8001 12.1844C12.433 12.5515 11.9972 12.8427 11.5176 13.0414Z" fill="white"/>
</svg>
