<svg width="20" height="19" viewBox="0 0 20 19" fill="none" xmlns="http://www.w3.org/2000/svg">
<path fill-rule="evenodd" clip-rule="evenodd" d="M2.76145 16.3789C3.9436 17.6089 5.42408 18.5119 7.05878 19C7.25074 18.4017 7.62772 17.8798 8.13537 17.5095C8.64303 17.1393 9.25514 16.9398 9.88348 16.9398C10.5118 16.9398 11.1239 17.1393 11.6316 17.5095C12.1392 17.8798 12.5162 18.4017 12.7082 19C14.3428 18.5121 15.8233 17.6092 17.0055 16.3794C16.6252 15.9283 16.3881 15.3739 16.3246 14.7873C16.261 14.2007 16.374 13.6084 16.649 13.0863C16.924 12.5643 17.3485 12.1361 17.8682 11.8567C18.3879 11.5772 18.9792 11.4592 19.5663 11.5177C19.6978 10.8743 19.767 10.2082 19.767 9.52619C19.7679 8.52056 19.6152 7.52069 19.3143 6.56115C18.8069 6.56844 18.306 6.44537 17.8598 6.2037C17.4135 5.96204 17.0367 5.60988 16.7655 5.18093C16.4943 4.75198 16.3378 4.2606 16.3108 3.75382C16.2839 3.24704 16.3875 2.74183 16.6117 2.28654C15.453 1.20767 14.0518 0.423421 12.5263 0C12.2781 0.487454 11.8998 0.896726 11.4334 1.18253C10.9669 1.46834 10.4305 1.61954 9.88348 1.61941C9.33645 1.61954 8.80004 1.46834 8.33361 1.18253C7.86717 0.896726 7.4889 0.487454 7.24064 0C5.71515 0.423421 4.31394 1.20767 3.1553 2.28654C3.37788 2.73866 3.48154 3.24005 3.45651 3.74337C3.43148 4.24668 3.27858 4.73531 3.01225 5.16312C2.74593 5.59093 2.37495 5.9438 1.93436 6.18842C1.49378 6.43303 0.998114 6.56131 0.494177 6.56115H0.452666C0.158138 7.49711 1.34519e-06 8.49337 1.34519e-06 9.52619C-0.000346774 10.1949 0.0668729 10.862 0.200637 11.5172C0.787797 11.4587 1.37906 11.5767 1.89876 11.8562C2.41846 12.1356 2.84297 12.5638 3.11796 13.0858C3.39296 13.6079 3.50592 14.2002 3.44241 14.7868C3.3789 15.3734 3.1418 15.9278 2.76145 16.3789ZM11.3965 13.0414C10.9168 13.2401 10.4027 13.3423 9.88357 13.3423C8.83506 13.3423 7.8295 12.9258 7.0881 12.1844C6.34669 11.443 5.93018 10.4374 5.93018 9.38894C5.93018 8.34043 6.34669 7.33487 7.0881 6.59347C7.8295 5.85206 8.83506 5.43555 9.88357 5.43555C10.4027 5.43555 10.9168 5.5378 11.3965 5.73648C11.8761 5.93516 12.3119 6.22636 12.679 6.59347C13.0461 6.96058 13.3373 7.39639 13.536 7.87604C13.7347 8.35569 13.837 8.86977 13.837 9.38894C13.837 9.9081 13.7347 10.4222 13.536 10.9018C13.3373 11.3815 13.0461 11.8173 12.679 12.1844C12.3119 12.5515 11.8761 12.8427 11.3965 13.0414Z" fill="black"/>
</svg>
