<svg width="24" height="24" viewBox="0 0 24 24" fill="none" xmlns="http://www.w3.org/2000/svg">
<g id="arrow-back">
<mask id="mask0_5068_16981" style="mask-type:alpha" maskUnits="userSpaceOnUse" x="0" y="0" width="24" height="24">
<rect id="Bounding box" width="24" height="24" fill="#D9D9D9"/>
</mask>
<g mask="url(#mask0_5068_16981)">
<path id="arrow_back" d="M7.8248 13.0008L12.7248 17.9008C12.9248 18.1008 13.0206 18.3341 13.0123 18.6008C13.004 18.8674 12.8998 19.1008 12.6998 19.3008C12.4998 19.4841 12.2665 19.5799 11.9998 19.5883C11.7331 19.5966 11.4998 19.5008 11.2998 19.3008L4.6998 12.7008C4.5998 12.6008 4.52897 12.4924 4.4873 12.3758C4.44564 12.2591 4.4248 12.1341 4.4248 12.0008C4.4248 11.8674 4.44564 11.7424 4.4873 11.6258C4.52897 11.5091 4.5998 11.4008 4.6998 11.3008L11.2998 4.70078C11.4831 4.51745 11.7123 4.42578 11.9873 4.42578C12.2623 4.42578 12.4998 4.51745 12.6998 4.70078C12.8998 4.90078 12.9998 5.13828 12.9998 5.41328C12.9998 5.68828 12.8998 5.92578 12.6998 6.12578L7.8248 11.0008H18.9998C19.2831 11.0008 19.5206 11.0966 19.7123 11.2883C19.904 11.4799 19.9998 11.7174 19.9998 12.0008C19.9998 12.2841 19.904 12.5216 19.7123 12.7133C19.5206 12.9049 19.2831 13.0008 18.9998 13.0008H7.8248Z" fill="#525463"/>
</g>
</g>
</svg>
