<svg width="24" height="24" viewBox="0 0 24 24" fill="none" xmlns="http://www.w3.org/2000/svg">
<g id="arrow-down">
<mask id="mask0_5068_17029" style="mask-type:alpha" maskUnits="userSpaceOnUse" x="0" y="0" width="24" height="24">
<rect id="Bounding box" width="24" height="24" fill="#D9D9D9"/>
</mask>
<g mask="url(#mask0_5068_17029)">
<path id="keyboard_arrow_down" d="M11.9998 14.9758C11.8665 14.9758 11.7415 14.9549 11.6248 14.9133C11.5081 14.8716 11.3998 14.8008 11.2998 14.7008L6.6998 10.1008C6.51647 9.91745 6.4248 9.68411 6.4248 9.40078C6.4248 9.11745 6.51647 8.88411 6.6998 8.70078C6.88314 8.51745 7.11647 8.42578 7.3998 8.42578C7.68314 8.42578 7.91647 8.51745 8.0998 8.70078L11.9998 12.6008L15.8998 8.70078C16.0831 8.51745 16.3165 8.42578 16.5998 8.42578C16.8831 8.42578 17.1165 8.51745 17.2998 8.70078C17.4831 8.88411 17.5748 9.11745 17.5748 9.40078C17.5748 9.68411 17.4831 9.91745 17.2998 10.1008L12.6998 14.7008C12.5998 14.8008 12.4915 14.8716 12.3748 14.9133C12.2581 14.9549 12.1331 14.9758 11.9998 14.9758Z" fill="#A9ABB8"/>
</g>
</g>
</svg>
