<svg width="24" height="24" viewBox="0 0 24 24" fill="none" xmlns="http://www.w3.org/2000/svg">
<g id="backspace">
<mask id="mask0_5142_8506" style="mask-type:alpha" maskUnits="userSpaceOnUse" x="0" y="0" width="24" height="24">
<rect id="Bounding box" width="24" height="24" fill="#D9D9D9"/>
</mask>
<g mask="url(#mask0_5142_8506)">
<path id="backspace_2" d="M9.0002 19C8.66686 19 8.35436 18.925 8.0627 18.775C7.77103 18.625 7.53353 18.4167 7.3502 18.15L3.8252 13.15C3.5752 12.8 3.4502 12.4167 3.4502 12C3.4502 11.5833 3.5752 11.2 3.8252 10.85L7.3502 5.85C7.53353 5.58333 7.77103 5.375 8.0627 5.225C8.35436 5.075 8.66686 5 9.0002 5H19.0002C19.5502 5 20.021 5.19583 20.4127 5.5875C20.8044 5.97917 21.0002 6.45 21.0002 7V17C21.0002 17.55 20.8044 18.0208 20.4127 18.4125C20.021 18.8042 19.5502 19 19.0002 19H9.0002ZM14.0002 13.4L15.9002 15.3C16.0835 15.4833 16.3169 15.575 16.6002 15.575C16.8835 15.575 17.1169 15.4833 17.3002 15.3C17.4835 15.1167 17.5752 14.8833 17.5752 14.6C17.5752 14.3167 17.4835 14.0833 17.3002 13.9L15.4002 12L17.3002 10.1C17.4835 9.91667 17.5752 9.68333 17.5752 9.4C17.5752 9.11667 17.4835 8.88333 17.3002 8.7C17.1169 8.51667 16.8835 8.425 16.6002 8.425C16.3169 8.425 16.0835 8.51667 15.9002 8.7L14.0002 10.6L12.1002 8.7C11.9169 8.51667 11.6835 8.425 11.4002 8.425C11.1169 8.425 10.8835 8.51667 10.7002 8.7C10.5169 8.88333 10.4252 9.11667 10.4252 9.4C10.4252 9.68333 10.5169 9.91667 10.7002 10.1L12.6002 12L10.7002 13.9C10.5169 14.0833 10.4252 14.3167 10.4252 14.6C10.4252 14.8833 10.5169 15.1167 10.7002 15.3C10.8835 15.4833 11.1169 15.575 11.4002 15.575C11.6835 15.575 11.9169 15.4833 12.1002 15.3L14.0002 13.4Z" fill="#A9ABB8"/>
</g>
</g>
</svg>
