<svg width="24" height="24" viewBox="0 0 24 24" fill="none" xmlns="http://www.w3.org/2000/svg">
<g id="delete-menu">
<mask id="mask0_5068_16813" style="mask-type:alpha" maskUnits="userSpaceOnUse" x="0" y="0" width="24" height="24">
<rect id="Bounding box" width="24" height="24" fill="#D9D9D9"/>
</mask>
<g mask="url(#mask0_5068_16813)">
<path id="delete_sweep" d="M5 19C4.45 19 3.97917 18.8042 3.5875 18.4125C3.19583 18.0208 3 17.55 3 17V8C2.71667 8 2.47917 7.90417 2.2875 7.7125C2.09583 7.52083 2 7.28333 2 7C2 6.71667 2.09583 6.47917 2.2875 6.2875C2.47917 6.09583 2.71667 6 3 6H6V5.5C6 5.21667 6.09583 4.97917 6.2875 4.7875C6.47917 4.59583 6.71667 4.5 7 4.5H9C9.28333 4.5 9.52083 4.59583 9.7125 4.7875C9.90417 4.97917 10 5.21667 10 5.5V6H13C13.2833 6 13.5208 6.09583 13.7125 6.2875C13.9042 6.47917 14 6.71667 14 7C14 7.28333 13.9042 7.52083 13.7125 7.7125C13.5208 7.90417 13.2833 8 13 8V17C13 17.55 12.8042 18.0208 12.4125 18.4125C12.0208 18.8042 11.55 19 11 19H5ZM16 18C15.7167 18 15.4792 17.9042 15.2875 17.7125C15.0958 17.5208 15 17.2833 15 17C15 16.7167 15.0958 16.4792 15.2875 16.2875C15.4792 16.0958 15.7167 16 16 16H18C18.2833 16 18.5208 16.0958 18.7125 16.2875C18.9042 16.4792 19 16.7167 19 17C19 17.2833 18.9042 17.5208 18.7125 17.7125C18.5208 17.9042 18.2833 18 18 18H16ZM16 14C15.7167 14 15.4792 13.9042 15.2875 13.7125C15.0958 13.5208 15 13.2833 15 13C15 12.7167 15.0958 12.4792 15.2875 12.2875C15.4792 12.0958 15.7167 12 16 12H20C20.2833 12 20.5208 12.0958 20.7125 12.2875C20.9042 12.4792 21 12.7167 21 13C21 13.2833 20.9042 13.5208 20.7125 13.7125C20.5208 13.9042 20.2833 14 20 14H16ZM16 10C15.7167 10 15.4792 9.90417 15.2875 9.7125C15.0958 9.52083 15 9.28333 15 9C15 8.71667 15.0958 8.47917 15.2875 8.2875C15.4792 8.09583 15.7167 8 16 8H21C21.2833 8 21.5208 8.09583 21.7125 8.2875C21.9042 8.47917 22 8.71667 22 9C22 9.28333 21.9042 9.52083 21.7125 9.7125C21.5208 9.90417 21.2833 10 21 10H16Z" fill="#525463"/>
</g>
</g>
</svg>
