<svg width="24" height="24" viewBox="0 0 24 24" fill="none" xmlns="http://www.w3.org/2000/svg">
<g id="draft_orders">
<circle id="bg" cx="12" cy="12" r="10" fill="white"/>
<mask id="mask0_5117_13620" style="mask-type:alpha" maskUnits="userSpaceOnUse" x="0" y="0" width="24" height="24">
<rect id="Bounding box" width="24" height="24" fill="#D9D9D9"/>
</mask>
<g mask="url(#mask0_5117_13620)">
<path id="draft_orders_2" d="M14.975 11.125L12.875 9.025L7.725 14.175C7.625 14.275 7.55 14.3875 7.5 14.5125C7.45 14.6375 7.425 14.7667 7.425 14.9V16.075C7.425 16.2083 7.475 16.325 7.575 16.425C7.675 16.525 7.79167 16.575 7.925 16.575H9.1C9.23333 16.575 9.3625 16.55 9.4875 16.5C9.6125 16.45 9.725 16.375 9.825 16.275L14.975 11.125ZM15.575 10.525L16.275 9.825C16.475 9.625 16.575 9.39167 16.575 9.125C16.575 8.85833 16.475 8.625 16.275 8.425L15.575 7.725C15.375 7.525 15.1417 7.425 14.875 7.425C14.6083 7.425 14.375 7.525 14.175 7.725L13.475 8.425L15.575 10.525ZM12 22C10.6167 22 9.31667 21.7375 8.1 21.2125C6.88333 20.6875 5.825 19.975 4.925 19.075C4.025 18.175 3.3125 17.1167 2.7875 15.9C2.2625 14.6833 2 13.3833 2 12C2 10.6167 2.2625 9.31667 2.7875 8.1C3.3125 6.88333 4.025 5.825 4.925 4.925C5.825 4.025 6.88333 3.3125 8.1 2.7875C9.31667 2.2625 10.6167 2 12 2C13.3833 2 14.6833 2.2625 15.9 2.7875C17.1167 3.3125 18.175 4.025 19.075 4.925C19.975 5.825 20.6875 6.88333 21.2125 8.1C21.7375 9.31667 22 10.6167 22 12C22 13.3833 21.7375 14.6833 21.2125 15.9C20.6875 17.1167 19.975 18.175 19.075 19.075C18.175 19.975 17.1167 20.6875 15.9 21.2125C14.6833 21.7375 13.3833 22 12 22Z" fill="#3387FF"/>
</g>
</g>
</svg>
