<svg width="24" height="24" viewBox="0 0 24 24" fill="none" xmlns="http://www.w3.org/2000/svg">
<g id="navigate-next">
<mask id="mask0_5068_17020" style="mask-type:alpha" maskUnits="userSpaceOnUse" x="0" y="0" width="24" height="24">
<rect id="Bounding box" width="24" height="24" fill="#D9D9D9"/>
</mask>
<g mask="url(#mask0_5068_17020)">
<path id="navigate_next" d="M12.5998 12.0008L8.6998 8.10078C8.51647 7.91745 8.4248 7.68411 8.4248 7.40078C8.4248 7.11745 8.51647 6.88411 8.6998 6.70078C8.88314 6.51745 9.11647 6.42578 9.3998 6.42578C9.68314 6.42578 9.91647 6.51745 10.0998 6.70078L14.6998 11.3008C14.7998 11.4008 14.8706 11.5091 14.9123 11.6258C14.954 11.7424 14.9748 11.8674 14.9748 12.0008C14.9748 12.1341 14.954 12.2591 14.9123 12.3758C14.8706 12.4924 14.7998 12.6008 14.6998 12.7008L10.0998 17.3008C9.91647 17.4841 9.68314 17.5758 9.3998 17.5758C9.11647 17.5758 8.88314 17.4841 8.6998 17.3008C8.51647 17.1174 8.4248 16.8841 8.4248 16.6008C8.4248 16.3174 8.51647 16.0841 8.6998 15.9008L12.5998 12.0008Z" fill="#A9ABB8"/>
</g>
</g>
</svg>
