<svg width="16" height="16" viewBox="0 0 16 16" fill="none" xmlns="http://www.w3.org/2000/svg">
<g id="application">
<mask id="mask0_5950_10663" style="mask-type:alpha" maskUnits="userSpaceOnUse" x="0" y="0" width="16" height="16">
<rect id="Bounding box" width="16" height="16" fill="#D9D9D9"/>
</mask>
<g mask="url(#mask0_5950_10663)">
<path id="application_2" d="M8.00373 9.60156C8.33471 9.60156 8.61686 9.48372 8.8502 9.24803C9.08353 9.01233 9.2002 8.729 9.2002 8.39803C9.2002 8.06705 9.08235 7.7849 8.84666 7.55156C8.61096 7.31823 8.32763 7.20156 7.99666 7.20156C7.66568 7.20156 7.38353 7.31941 7.1502 7.5551C6.91686 7.7908 6.8002 8.07413 6.8002 8.4051C6.8002 8.73607 6.91804 9.01823 7.15373 9.25156C7.38943 9.4849 7.67276 9.60156 8.00373 9.60156ZM5.6002 12.0016H10.4002V11.4516C10.4002 11.2071 10.3335 10.9877 10.2002 10.7932C10.0669 10.5988 9.88908 10.4516 9.66686 10.3516C9.41131 10.2293 9.14186 10.1405 8.85853 10.0849C8.5752 10.0293 8.28908 10.0016 8.0002 10.0016C7.71131 10.0016 7.4252 10.0293 7.14186 10.0849C6.85853 10.1405 6.58908 10.2293 6.33353 10.3516C6.11131 10.4516 5.93353 10.5988 5.8002 10.7932C5.66686 10.9877 5.6002 11.2071 5.6002 11.4516V12.0016ZM11.5995 14.4016H4.39548C4.06529 14.4016 3.78353 14.2841 3.5502 14.0491C3.31686 13.8141 3.2002 13.5316 3.2002 13.2016V2.80156C3.2002 2.47156 3.3177 2.18906 3.5527 1.95406C3.7877 1.71906 4.0702 1.60156 4.4002 1.60156H9.1002C9.25822 1.60156 9.40883 1.62934 9.55205 1.6849C9.69526 1.74045 9.82797 1.82934 9.9502 1.95156L12.4502 4.45156C12.5724 4.57378 12.6613 4.7065 12.7169 4.84971C12.7724 4.99292 12.8002 5.14354 12.8002 5.30156V13.2016C12.8002 13.5316 12.6826 13.8141 12.4475 14.0491C12.2124 14.2841 11.9297 14.4016 11.5995 14.4016Z" fill="#A9ABB8"/>
</g>
</g>
</svg>
