<svg width="17" height="16" viewBox="0 0 17 16" fill="none" xmlns="http://www.w3.org/2000/svg">
<g id="birth">
<mask id="mask0_5600_13762" style="mask-type:alpha" maskUnits="userSpaceOnUse" x="0" y="0" width="17" height="16">
<rect id="Bounding box" x="0.5" width="16" height="16" fill="#D9D9D9"/>
</mask>
<g mask="url(#mask0_5600_13762)">
<path id="birth_2" d="M3.70039 14.3982C3.47372 14.3982 3.28372 14.3215 3.13039 14.1682C2.97706 14.0148 2.90039 13.8248 2.90039 13.5982V10.7982C2.90039 10.4682 3.01789 10.1857 3.25289 9.95068C3.48789 9.71568 3.77039 9.59818 4.10039 9.59818H12.9004C13.2304 9.59818 13.5129 9.71568 13.7479 9.95068C13.9829 10.1857 14.1004 10.4682 14.1004 10.7982V13.5982C14.1004 13.8248 14.0237 14.0148 13.8704 14.1682C13.7171 14.3215 13.5271 14.3982 13.3004 14.3982H3.70039ZM4.50039 8.39818V6.39818C4.50039 6.06484 4.61789 5.78151 4.85289 5.54818C5.08789 5.31484 5.37039 5.19818 5.70039 5.19818H7.90039V4.29818C7.7115 4.16484 7.56428 4.02595 7.45872 3.88151C7.35317 3.73707 7.30039 3.53835 7.30039 3.28536C7.30039 3.12724 7.32817 2.97873 7.38372 2.83984C7.43928 2.70095 7.52777 2.57079 7.64921 2.44936L8.28671 1.81186C8.30694 1.79163 8.37817 1.75929 8.50039 1.71484C8.54484 1.71484 8.61706 1.74262 8.71706 1.79818L9.36521 2.44633C9.48866 2.56978 9.57539 2.70095 9.62539 2.83984C9.67539 2.97873 9.70039 3.12724 9.70039 3.28536C9.70039 3.53835 9.64761 3.73707 9.54206 3.88151C9.4365 4.02595 9.28928 4.16484 9.10039 4.29818V5.19818H11.3171C11.6425 5.19818 11.921 5.31568 12.1528 5.55068C12.3845 5.78568 12.5004 6.06818 12.5004 6.39818V8.39818H4.50039Z" fill="#A9ABB8"/>
</g>
</g>
</svg>
