<svg width="17" height="16" viewBox="0 0 17 16" fill="none" xmlns="http://www.w3.org/2000/svg">
<g id="male">
<mask id="mask0_5600_13754" style="mask-type:alpha" maskUnits="userSpaceOnUse" x="0" y="0" width="17" height="16">
<rect id="Bounding box" x="0.5" width="16" height="16" fill="#D9D9D9"/>
</mask>
<g mask="url(#mask0_5600_13754)">
<path id="male_2" d="M6.83268 13.3307C5.81046 13.3307 4.94379 12.9752 4.23268 12.2641C3.52157 11.553 3.16602 10.6863 3.16602 9.66406C3.16602 8.64184 3.52157 7.77517 4.23268 7.06406C4.94379 6.35295 5.81046 5.9974 6.83268 5.9974C7.19935 5.9974 7.55768 6.0474 7.90768 6.1474C8.25768 6.2474 8.58268 6.40851 8.88268 6.63073L11.4493 4.06406H10.5327C10.3438 4.06406 10.1799 3.99462 10.041 3.85573C9.90213 3.71684 9.83268 3.55295 9.83268 3.36406C9.83268 3.17517 9.90213 3.01128 10.041 2.8724C10.1799 2.73351 10.3438 2.66406 10.5327 2.66406H13.1327C13.3216 2.66406 13.4855 2.73351 13.6243 2.8724C13.7632 3.01128 13.8327 3.17517 13.8327 3.36406V5.96406C13.8327 6.15295 13.7632 6.31684 13.6243 6.45573C13.4855 6.59462 13.3216 6.66406 13.1327 6.66406C12.9438 6.66406 12.7799 6.59462 12.641 6.45573C12.5021 6.31684 12.4327 6.15295 12.4327 5.96406V5.03073L9.86602 7.5974C10.0771 7.90851 10.2355 8.23906 10.341 8.58906C10.4466 8.93906 10.4993 9.2974 10.4993 9.66406C10.4993 10.6863 10.1438 11.553 9.43268 12.2641C8.72157 12.9752 7.8549 13.3307 6.83268 13.3307ZM6.83268 7.3974C6.19935 7.3974 5.66324 7.61684 5.22435 8.05573C4.78546 8.49462 4.56602 9.03073 4.56602 9.66406C4.56602 10.2974 4.78546 10.8335 5.22435 11.2724C5.66324 11.7113 6.19935 11.9307 6.83268 11.9307C7.46602 11.9307 8.00213 11.7113 8.44102 11.2724C8.8799 10.8335 9.09935 10.2974 9.09935 9.66406C9.09935 9.03073 8.8799 8.49462 8.44102 8.05573C8.00213 7.61684 7.46602 7.3974 6.83268 7.3974Z" fill="#A9ABB8"/>
</g>
</g>
</svg>
