<svg width="16" height="16" viewBox="0 0 16 16" fill="currentColor" xmlns="http://www.w3.org/2000/svg">
<g id="gloddy">
<circle id="bg" cx="8" cy="8" r="5.5" fill="#EBF3FF" stroke="#3387FF"/>
<path id="G" d="M8.13278 10.6936C7.53545 10.6936 7.02345 10.5869 6.59678 10.3736C6.17545 10.1549 5.85278 9.84823 5.62878 9.45356C5.41011 9.05356 5.30078 8.58423 5.30078 8.04556C5.30078 7.52823 5.38345 7.08556 5.54878 6.71756C5.71945 6.34423 5.94345 6.04023 6.22078 5.80556C6.49811 5.56556 6.80478 5.38956 7.14078 5.27756C7.47678 5.16023 7.81545 5.10156 8.15678 5.10156C8.60478 5.10156 8.98878 5.16823 9.30878 5.30156C9.62878 5.42956 9.87411 5.59756 10.0448 5.80556C10.2154 6.01356 10.3008 6.22956 10.3008 6.45356C10.3008 6.69356 10.2554 6.88023 10.1648 7.01356C10.0794 7.1469 9.96745 7.24023 9.82878 7.29356C9.69545 7.3469 9.55678 7.37356 9.41278 7.37356C9.23145 7.37356 9.08745 7.3549 8.98078 7.31756C8.87945 7.2749 8.77545 7.2349 8.66878 7.19756C8.56211 7.16023 8.41811 7.14156 8.23678 7.14156C7.89011 7.14156 7.61278 7.24556 7.40478 7.45356C7.20211 7.66156 7.10078 7.96023 7.10078 8.34956C7.10078 8.5789 7.14878 8.76823 7.24478 8.91756C7.34078 9.0669 7.46611 9.1789 7.62078 9.25356C7.78078 9.32823 7.95145 9.36556 8.13278 9.36556C8.31411 9.36556 8.46345 9.34423 8.58078 9.30156C8.70345 9.25356 8.79411 9.2029 8.85278 9.14956C8.91145 9.09623 8.94078 9.05623 8.94078 9.02956C8.58345 9.02956 8.29545 8.98956 8.07678 8.90956C7.85811 8.82423 7.74878 8.66156 7.74878 8.42156C7.74878 8.2189 7.82078 8.0509 7.96478 7.91756C8.10878 7.7789 8.37545 7.70956 8.76478 7.70956C9.14345 7.70956 9.43945 7.7549 9.65278 7.84556C9.87145 7.9309 10.0234 8.0669 10.1088 8.25356C10.1994 8.44023 10.2448 8.6829 10.2448 8.98156C10.2448 9.30156 10.1488 9.59223 9.95678 9.85356C9.76478 10.1149 9.50878 10.3229 9.18878 10.4776C8.86878 10.6269 8.51678 10.6989 8.13278 10.6936Z" fill="#3387FF"/>
</g>
</svg>
