<svg width="17" height="16" viewBox="0 0 17 16" fill="none" xmlns="http://www.w3.org/2000/svg">
<g id="school">
<mask id="mask0_5600_13746" style="mask-type:alpha" maskUnits="userSpaceOnUse" x="0" y="0" width="17" height="16">
<rect id="Bounding box" x="0.5" width="16" height="16" fill="#D9D9D9"/>
</mask>
<g mask="url(#mask0_5600_13746)">
<path id="account_balance" d="M4.50065 11.332C4.31176 11.332 4.15343 11.2681 4.02565 11.1404C3.89787 11.0126 3.83398 10.8543 3.83398 10.6654V7.31536C3.83398 7.12648 3.89787 6.97092 4.02565 6.8487C4.15343 6.72648 4.31176 6.66536 4.50065 6.66536C4.68954 6.66536 4.84787 6.72925 4.97565 6.85703C5.10343 6.98481 5.16732 7.14314 5.16732 7.33203V10.682C5.16732 10.8709 5.10343 11.0265 4.97565 11.1487C4.84787 11.2709 4.68954 11.332 4.50065 11.332ZM8.50065 11.332C8.31176 11.332 8.15343 11.2681 8.02565 11.1404C7.89787 11.0126 7.83398 10.8543 7.83398 10.6654V7.31536C7.83398 7.12648 7.89787 6.97092 8.02565 6.8487C8.15343 6.72648 8.31176 6.66536 8.50065 6.66536C8.68954 6.66536 8.84787 6.72925 8.97565 6.85703C9.10343 6.98481 9.16732 7.14314 9.16732 7.33203V10.682C9.16732 10.8709 9.10343 11.0265 8.97565 11.1487C8.84787 11.2709 8.68954 11.332 8.50065 11.332ZM2.48398 13.9987C2.2951 13.9987 2.13954 13.9348 2.01732 13.807C1.8951 13.6793 1.83398 13.5209 1.83398 13.332C1.83398 13.1431 1.89787 12.9848 2.02565 12.857C2.15343 12.7293 2.31176 12.6654 2.50065 12.6654H14.5173C14.7062 12.6654 14.8618 12.7293 14.984 12.857C15.1062 12.9848 15.1673 13.1431 15.1673 13.332C15.1673 13.5209 15.1034 13.6793 14.9756 13.807C14.8479 13.9348 14.6895 13.9987 14.5007 13.9987H2.48398ZM12.5007 11.332C12.3118 11.332 12.1534 11.2681 12.0257 11.1404C11.8979 11.0126 11.834 10.8543 11.834 10.6654V7.31536C11.834 7.12648 11.8979 6.97092 12.0257 6.8487C12.1534 6.72648 12.3118 6.66536 12.5007 6.66536C12.6895 6.66536 12.8479 6.72925 12.9756 6.85703C13.1034 6.98481 13.1673 7.14314 13.1673 7.33203V10.682C13.1673 10.8709 13.1034 11.0265 12.9756 11.1487C12.8479 11.2709 12.6895 11.332 12.5007 11.332ZM9.10065 0.965365L14.7173 3.76536C14.8618 3.84314 14.9729 3.95148 15.0507 4.09036C15.1284 4.22925 15.1673 4.38203 15.1673 4.5487C15.1673 4.77092 15.0868 4.95703 14.9257 5.10703C14.7645 5.25703 14.5729 5.33203 14.3506 5.33203H2.66732C2.4451 5.33203 2.25065 5.25703 2.08398 5.10703C1.91732 4.95703 1.83398 4.77092 1.83398 4.5487C1.83398 4.39314 1.8701 4.24314 1.94232 4.0987C2.01454 3.95425 2.12843 3.8487 2.28398 3.78203L7.90065 0.965365C8.08954 0.876476 8.28954 0.832031 8.50065 0.832031C8.71176 0.832031 8.91176 0.876476 9.10065 0.965365Z" fill="#A9ABB8"/>
</g>
</g>
</svg>
