<svg width="24" height="24" viewBox="0 0 24 24" fill="none" xmlns="http://www.w3.org/2000/svg">
<g id="announcement">
<mask id="mask0_5149_27188" style="mask-type:alpha" maskUnits="userSpaceOnUse" x="0" y="0" width="24" height="24">
<rect id="Bounding box" width="24" height="24" fill="#D9D9D9"/>
</mask>
<g mask="url(#mask0_5149_27188)">
<path id="announcement_2" d="M19 12.999H17C16.7167 12.999 16.4792 12.9031 16.2875 12.7115C16.0958 12.5198 16 12.2823 16 11.999C16 11.7156 16.0958 11.4781 16.2875 11.2865C16.4792 11.0948 16.7167 10.999 17 10.999H19C19.2833 10.999 19.5208 11.0948 19.7125 11.2865C19.9042 11.4781 20 11.7156 20 11.999C20 12.2823 19.9042 12.5198 19.7125 12.7115C19.5208 12.9031 19.2833 12.999 19 12.999ZM14.6 16.799C14.7667 16.5656 14.9833 16.4323 15.25 16.399C15.5167 16.3656 15.7667 16.4323 16 16.599L17.6 17.799C17.8333 17.9656 17.9667 18.1823 18 18.449C18.0333 18.7156 17.9667 18.9656 17.8 19.199C17.6333 19.4323 17.4167 19.5656 17.15 19.599C16.8833 19.6323 16.6333 19.5656 16.4 19.399L14.8 18.199C14.5667 18.0323 14.4333 17.8156 14.4 17.549C14.3667 17.2823 14.4333 17.0323 14.6 16.799ZM17.6 6.19896L16 7.39896C15.7667 7.56563 15.5167 7.63229 15.25 7.59896C14.9833 7.56562 14.7667 7.43229 14.6 7.19896C14.4333 6.96563 14.3667 6.71563 14.4 6.44896C14.4333 6.18229 14.5667 5.96562 14.8 5.79896L16.4 4.59896C16.6333 4.43229 16.8833 4.36562 17.15 4.39896C17.4167 4.43229 17.6333 4.56563 17.8 4.79896C17.9667 5.03229 18.0333 5.28229 18 5.54896C17.9667 5.81562 17.8333 6.03229 17.6 6.19896ZM7 14.999H4C3.71667 14.999 3.47917 14.9031 3.2875 14.7115C3.09583 14.5198 3 14.2823 3 13.999V9.99896C3 9.71562 3.09583 9.47813 3.2875 9.28646C3.47917 9.09479 3.71667 8.99896 4 8.99896H7L10.3 5.69896C10.6167 5.38229 10.9792 5.31146 11.3875 5.48646C11.7958 5.66146 12 5.97396 12 6.42396V17.574C12 18.024 11.7958 18.3365 11.3875 18.5115C10.9792 18.6865 10.6167 18.6156 10.3 18.299L7 14.999Z" fill="#3387FF"/>
</g>
</g>
</svg>
