<svg width="24" height="24" viewBox="0 0 24 24" fill="currentColor" xmlns="http://www.w3.org/2000/svg">
<mask id="mask0_5149_21565" style="mask-type:alpha" maskUnits="userSpaceOnUse" x="0" y="0" width="24" height="24">
<rect width="24" height="24" fill="#D9D9D9"/>
</mask>
<g mask="url(#mask0_5149_21565)">
<path d="M9.58663 12.0061L16.5634 18.9829C16.8007 19.2202 16.9154 19.4971 16.9075 19.8135C16.8996 20.1299 16.777 20.4067 16.5397 20.644C16.3024 20.8813 16.0255 21 15.7091 21C15.3927 21 15.1158 20.8813 14.8785 20.644L7.56953 13.3588C7.37969 13.1689 7.23731 12.9553 7.14238 12.718C7.04746 12.4807 7 12.2434 7 12.0061C7 11.7688 7.04746 11.5315 7.14238 11.2942C7.23731 11.0569 7.37969 10.8433 7.56953 10.6535L14.8785 3.34448C15.1158 3.10717 15.3967 2.99247 15.721 3.00038C16.0453 3.00829 16.3261 3.1309 16.5634 3.36821C16.8007 3.60551 16.9194 3.88237 16.9194 4.19878C16.9194 4.51518 16.8007 4.79204 16.5634 5.02934L9.58663 12.0061Z" fill="#525463"/>
</g>
</svg>
