<svg width="24" height="21" viewBox="0 0 24 21" fill="none" xmlns="http://www.w3.org/2000/svg">
<g id="comments">
<g id="Group 7877">
<path id="Vector 583" d="M4.30854 19.6954L4.98025 15.676C5.00441 15.5315 5.12953 15.4255 5.27612 15.4255L9.51876 15.4252C9.80073 15.4252 9.92698 15.7789 9.70872 15.9574L4.79437 19.9771C4.58004 20.1524 4.2629 19.9685 4.30854 19.6954Z" fill="#3387FF"/>
<rect id="Rectangle 957" x="0.870605" y="1.19141" width="21.3501" height="15.4195" rx="2" fill="#3387FF"/>
</g>
<path id="error" d="M18.3211 11.0156C18.5484 11.243 18.6621 11.5247 18.6621 11.8608C18.6621 12.1968 18.5484 12.4785 18.3211 12.7059C18.0938 12.9332 17.8121 13.0469 17.476 13.0469L5.61483 13.0469C5.27876 13.0469 4.99706 12.9332 4.76972 12.7059C4.54238 12.4785 4.42871 12.1968 4.42871 11.8608C4.42871 11.5247 4.54238 11.243 4.76972 11.0157C4.99706 10.7883 5.27876 10.6746 5.61483 10.6746L17.476 10.6746C17.8121 10.6746 18.0938 10.7883 18.3211 11.0156Z" fill="white"/>
<path id="error_2" d="M12.3906 6.27346C12.618 6.5008 12.7316 6.7825 12.7316 7.11857C12.7316 7.45464 12.618 7.73634 12.3906 7.96368C12.1633 8.19102 11.8816 8.30469 11.5455 8.30469L5.61483 8.30469C5.27876 8.30469 4.99706 8.19102 4.76972 7.96368C4.54238 7.73634 4.42871 7.45464 4.42871 7.11857C4.42871 6.78251 4.54238 6.5008 4.76972 6.27346C4.99706 6.04612 5.27876 5.93246 5.61483 5.93246L11.5455 5.93245C11.8816 5.93245 12.1633 6.04612 12.3906 6.27346Z" fill="white"/>
<g id="Group 7878">
<path id="draft_orders" d="M20.9079 1.05859L22.8135 2.96416L17.8746 8.02827C17.7838 8.11901 17.6817 8.18707 17.5683 8.23244C17.4549 8.27781 17.3377 8.30049 17.2167 8.30049H16.1505C16.0295 8.30049 15.9236 8.25512 15.8329 8.16438C15.7421 8.07364 15.6968 7.96777 15.6968 7.84679V6.78058C15.6968 6.65959 15.7195 6.54238 15.7648 6.42896C15.8102 6.31553 15.8783 6.21345 15.969 6.1227L20.9079 1.05859Z" fill="white"/>
<path id="draft_orders_2" d="M23.7278 2.17779L23.0926 2.81298L21.187 0.907412L21.8222 0.272223C22.0037 0.0907409 22.2154 0 22.4574 0C22.6994 0 22.9111 0.0907409 23.0926 0.272223L23.7278 0.907412C23.9092 1.08889 24 1.30062 24 1.5426C24 1.78458 23.9092 1.99631 23.7278 2.17779Z" fill="#3386FF"/>
</g>
</g>
</svg>
