<svg width="24" height="24" viewBox="0 0 24 24" fill="none" xmlns="http://www.w3.org/2000/svg">
<g id="group">
<mask id="mask0_5203_26137" style="mask-type:alpha" maskUnits="userSpaceOnUse" x="0" y="0" width="24" height="24">
<rect id="Bounding box" width="24" height="24" fill="#D9D9D9"/>
</mask>
<g mask="url(#mask0_5203_26137)">
<path id="group_2" d="M2 20C1.71667 20 1.47917 19.9042 1.2875 19.7125C1.09583 19.5208 1 19.2833 1 19V17.2C1 16.6333 1.14583 16.1125 1.4375 15.6375C1.72917 15.1625 2.11667 14.8 2.6 14.55C3.63333 14.0333 4.68333 13.6458 5.75 13.3875C6.81667 13.1292 7.9 13 9 13C10.1 13 11.1833 13.1292 12.25 13.3875C13.3167 13.6458 14.3667 14.0333 15.4 14.55C15.8833 14.8 16.2708 15.1625 16.5625 15.6375C16.8542 16.1125 17 16.6333 17 17.2V19C17 19.2833 16.9042 19.5208 16.7125 19.7125C16.5208 19.9042 16.2833 20 16 20H2ZM18.525 20C18.675 19.8833 18.7917 19.7375 18.875 19.5625C18.9583 19.3875 19 19.1917 19 18.975V17C19 16.2667 18.7958 15.5625 18.3875 14.8875C17.9792 14.2125 17.4 13.6333 16.65 13.15C17.5 13.25 18.3 13.4208 19.05 13.6625C19.8 13.9042 20.5 14.2 21.15 14.55C21.75 14.8833 22.2083 15.2542 22.525 15.6625C22.8417 16.0708 23 16.5167 23 17V19C23 19.2833 22.9042 19.5208 22.7125 19.7125C22.5208 19.9042 22.2833 20 22 20H18.525ZM9 12C7.9 12 6.95833 11.6083 6.175 10.825C5.39167 10.0417 5 9.1 5 8C5 6.9 5.39167 5.95833 6.175 5.175C6.95833 4.39167 7.9 4 9 4C10.1 4 11.0417 4.39167 11.825 5.175C12.6083 5.95833 13 6.9 13 8C13 9.1 12.6083 10.0417 11.825 10.825C11.0417 11.6083 10.1 12 9 12ZM19 8C19 9.1 18.6083 10.0417 17.825 10.825C17.0417 11.6083 16.1 12 15 12C14.8167 12 14.5833 11.9792 14.3 11.9375C14.0167 11.8958 13.7833 11.85 13.6 11.8C14.05 11.2667 14.3958 10.675 14.6375 10.025C14.8792 9.375 15 8.7 15 8C15 7.3 14.8792 6.625 14.6375 5.975C14.3958 5.325 14.05 4.73333 13.6 4.2C13.8333 4.11667 14.0667 4.0625 14.3 4.0375C14.5333 4.0125 14.7667 4 15 4C16.1 4 17.0417 4.39167 17.825 5.175C18.6083 5.95833 19 6.9 19 8Z" fill="#A9ABB8"/>
</g>
</g>
</svg>
