<svg width="24" height="24" viewBox="0 0 24 24" fill="none" xmlns="http://www.w3.org/2000/svg">
<mask id="mask0_6207_25253" style="mask-type:alpha" maskUnits="userSpaceOnUse" x="0" y="0" width="24" height="24">
<rect width="24" height="24" fill="#D9D9D9"/>
</mask>
<g mask="url(#mask0_6207_25253)">
<path d="M10.7998 12.0008L14.6998 15.9008C14.8831 16.0841 14.9748 16.3174 14.9748 16.6008C14.9748 16.8841 14.8831 17.1174 14.6998 17.3008C14.5165 17.4841 14.2831 17.5758 13.9998 17.5758C13.7165 17.5758 13.4831 17.4841 13.2998 17.3008L8.6998 12.7008C8.5998 12.6008 8.52897 12.4924 8.4873 12.3758C8.44564 12.2591 8.4248 12.1341 8.4248 12.0008C8.4248 11.8674 8.44564 11.7424 8.4873 11.6258C8.52897 11.5091 8.5998 11.4008 8.6998 11.3008L13.2998 6.70078C13.4831 6.51745 13.7165 6.42578 13.9998 6.42578C14.2831 6.42578 14.5165 6.51745 14.6998 6.70078C14.8831 6.88411 14.9748 7.11745 14.9748 7.40078C14.9748 7.68411 14.8831 7.91745 14.6998 8.10078L10.7998 12.0008Z" fill="#A9ABB8"/>
</g>
</svg>
