<svg width="24" height="24" viewBox="0 0 24 24" fill="none" xmlns="http://www.w3.org/2000/svg">
<g id="settings">
<mask id="mask0_5068_16759" style="mask-type:alpha" maskUnits="userSpaceOnUse" x="0" y="0" width="24" height="24">
<rect id="Bounding box" width="24" height="24" fill="#D9D9D9"/>
</mask>
<g mask="url(#mask0_5068_16759)">
<path id="settings_2" d="M13.8748 22H10.1248C9.87485 22 9.65818 21.9167 9.47485 21.75C9.29152 21.5833 9.18318 21.375 9.14985 21.125L8.84985 18.8C8.63318 18.7167 8.42902 18.6167 8.23735 18.5C8.04568 18.3833 7.85818 18.2583 7.67485 18.125L5.49985 19.025C5.26652 19.1083 5.03318 19.1167 4.79985 19.05C4.56652 18.9833 4.38318 18.8417 4.24985 18.625L2.39985 15.4C2.26652 15.1833 2.22485 14.95 2.27485 14.7C2.32485 14.45 2.44985 14.25 2.64985 14.1L4.52485 12.675C4.50818 12.5583 4.49985 12.4458 4.49985 12.3375V11.6625C4.49985 11.5542 4.50818 11.4417 4.52485 11.325L2.64985 9.9C2.44985 9.75 2.32485 9.55 2.27485 9.3C2.22485 9.05 2.26652 8.81667 2.39985 8.6L4.24985 5.375C4.36652 5.14167 4.54568 4.99583 4.78735 4.9375C5.02902 4.87917 5.26652 4.89167 5.49985 4.975L7.67485 5.875C7.85818 5.74167 8.04985 5.61667 8.24985 5.5C8.44985 5.38333 8.64985 5.28333 8.84985 5.2L9.14985 2.875C9.18318 2.625 9.29152 2.41667 9.47485 2.25C9.65818 2.08333 9.87485 2 10.1248 2H13.8748C14.1248 2 14.3415 2.08333 14.5248 2.25C14.7082 2.41667 14.8165 2.625 14.8498 2.875L15.1498 5.2C15.3665 5.28333 15.5707 5.38333 15.7623 5.5C15.954 5.61667 16.1415 5.74167 16.3248 5.875L18.4998 4.975C18.7332 4.89167 18.9665 4.88333 19.1999 4.95C19.4332 5.01667 19.6165 5.15833 19.7498 5.375L21.5998 8.6C21.7332 8.81667 21.7748 9.05 21.7248 9.3C21.6749 9.55 21.5499 9.75 21.3498 9.9L19.4748 11.325C19.4915 11.4417 19.4998 11.5542 19.4998 11.6625V12.3375C19.4998 12.4458 19.4832 12.5583 19.4499 12.675L21.3249 14.1C21.5249 14.25 21.6499 14.45 21.6999 14.7C21.7498 14.95 21.7082 15.1833 21.5749 15.4L19.7248 18.6C19.5915 18.8167 19.404 18.9625 19.1623 19.0375C18.9207 19.1125 18.6832 19.1083 18.4499 19.025L16.3248 18.125C16.1415 18.2583 15.9498 18.3833 15.7498 18.5C15.5498 18.6167 15.3498 18.7167 15.1498 18.8L14.8498 21.125C14.8165 21.375 14.7082 21.5833 14.5248 21.75C14.3415 21.9167 14.1248 22 13.8748 22ZM12.0498 15.5C13.0165 15.5 13.8415 15.1583 14.5248 14.475C15.2082 13.7917 15.5498 12.9667 15.5498 12C15.5498 11.0333 15.2082 10.2083 14.5248 9.525C13.8415 8.84167 13.0165 8.5 12.0498 8.5C11.0665 8.5 10.2373 8.84167 9.56235 9.525C8.88735 10.2083 8.54985 11.0333 8.54985 12C8.54985 12.9667 8.88735 13.7917 9.56235 14.475C10.2373 15.1583 11.0665 15.5 12.0498 15.5Z" fill="#525463"/>
</g>
</g>
</svg>
