<svg width="24" height="24" viewBox="0 0 24 24" fill="none" xmlns="http://www.w3.org/2000/svg">
<g id="thumb-up">
<mask id="mask0_5068_16789" style="mask-type:alpha" maskUnits="userSpaceOnUse" x="0" y="0" width="24" height="24">
<rect id="Bounding box" width="24" height="24" fill="#D9D9D9"/>
</mask>
<g mask="url(#mask0_5068_16789)">
<path id="thumb_up" d="M10 20.9993C9.45 20.9993 8.97917 20.8035 8.5875 20.4118C8.19583 20.0202 8 19.5493 8 18.9993V8.82434C8 8.55767 8.05417 8.30351 8.1625 8.06184C8.27083 7.82017 8.41667 7.60767 8.6 7.42434L14.025 2.02434C14.275 1.79101 14.5708 1.64934 14.9125 1.59934C15.2542 1.54934 15.5833 1.60767 15.9 1.77434C16.2167 1.94101 16.4458 2.17434 16.5875 2.47434C16.7292 2.77434 16.7583 3.08267 16.675 3.39934L15.55 7.99934H21C21.5333 7.99934 22 8.19934 22.4 8.59934C22.8 8.99934 23 9.46601 23 9.99934V11.9993C23 12.116 22.9875 12.241 22.9625 12.3743C22.9375 12.5077 22.9 12.6327 22.85 12.7493L19.85 19.7993C19.7 20.1327 19.45 20.416 19.1 20.6493C18.75 20.8827 18.3833 20.9993 18 20.9993H10ZM4 20.9993C3.45 20.9993 2.97917 20.8035 2.5875 20.4118C2.19583 20.0202 2 19.5493 2 18.9993V9.99934C2 9.44934 2.19583 8.97851 2.5875 8.58684C2.97917 8.19517 3.45 7.99934 4 7.99934C4.55 7.99934 5.02083 8.19517 5.4125 8.58684C5.80417 8.97851 6 9.44934 6 9.99934V18.9993C6 19.5493 5.80417 20.0202 5.4125 20.4118C5.02083 20.8035 4.55 20.9993 4 20.9993Z" fill="#525463"/>
</g>
</g>
</svg>
