<svg width="32" height="32" viewBox="0 0 32 32" fill="currentColor" xmlns="http://www.w3.org/2000/svg">
<circle cx="16" cy="16" r="13" fill="white"/>
<mask id="mask0_5173_18825" style="mask-type:alpha" maskUnits="userSpaceOnUse" x="0" y="0" width="32" height="32">
<rect width="32" height="32" fill="#D9D9D9"/>
</mask>
<g mask="url(#mask0_5173_18825)">
<path d="M16 22.5C16.3683 22.5 16.6771 22.3754 16.9263 22.1262C17.1754 21.8771 17.3 21.5683 17.3 21.2C17.3 20.8317 17.1754 20.5229 16.9263 20.2738C16.6771 20.0246 16.3683 19.9 16 19.9C15.6317 19.9 15.3229 20.0246 15.0738 20.2738C14.8246 20.5229 14.7 20.8317 14.7 21.2C14.7 21.5683 14.8246 21.8771 15.0738 22.1262C15.3229 22.3754 15.6317 22.5 16 22.5ZM16 17.3C16.3683 17.3 16.6771 17.1754 16.9263 16.9263C17.1754 16.6771 17.3 16.3683 17.3 16V10.8C17.3 10.4317 17.1754 10.1229 16.9263 9.87375C16.6771 9.62458 16.3683 9.5 16 9.5C15.6317 9.5 15.3229 9.62458 15.0738 9.87375C14.8246 10.1229 14.7 10.4317 14.7 10.8V16C14.7 16.3683 14.8246 16.6771 15.0738 16.9263C15.3229 17.1754 15.6317 17.3 16 17.3ZM16 29C14.2017 29 12.5117 28.6587 10.93 27.9762C9.34833 27.2937 7.9725 26.3675 6.8025 25.1975C5.6325 24.0275 4.70625 22.6517 4.02375 21.07C3.34125 19.4883 3 17.7983 3 16C3 14.2017 3.34125 12.5117 4.02375 10.93C4.70625 9.34833 5.6325 7.9725 6.8025 6.8025C7.9725 5.6325 9.34833 4.70625 10.93 4.02375C12.5117 3.34125 14.2017 3 16 3C17.7983 3 19.4883 3.34125 21.07 4.02375C22.6517 4.70625 24.0275 5.6325 25.1975 6.8025C26.3675 7.9725 27.2937 9.34833 27.9762 10.93C28.6587 12.5117 29 14.2017 29 16C29 17.7983 28.6587 19.4883 27.9762 21.07C27.2937 22.6517 26.3675 24.0275 25.1975 25.1975C24.0275 26.3675 22.6517 27.2937 21.07 27.9762C19.4883 28.6587 17.7983 29 16 29Z" fill="#E94735"/>
</g>
</svg>
