<svg width="32" height="32" viewBox="0 0 32 32" fill="none" xmlns="http://www.w3.org/2000/svg">
<g id="success">
<circle id="bg" cx="16" cy="16" r="13" fill="white"/>
<path id="education" fill-rule="evenodd" clip-rule="evenodd" d="M16 29C23.1797 29 29 23.1797 29 16C29 8.8203 23.1797 3 16 3C8.8203 3 3 8.8203 3 16C3 23.1797 8.8203 29 16 29ZM22.8961 14.3421L16.3464 17.694C15.7886 17.9794 15.1275 17.9794 14.5697 17.694L7.90388 14.2827C7.43204 14.0412 7.43204 13.3669 7.90388 13.1254L14.5697 9.71411C15.1275 9.42863 15.7886 9.42863 16.3464 9.71411L22.9434 13.0902C23.0683 13.1211 23.2599 13.2012 23.5461 13.3442L23.5462 13.3442C23.5555 13.3484 24.1961 13.6378 24.1961 13.9942V13.9942V15.2942V17.8942C24.1961 18.2532 23.9051 18.5442 23.5461 18.5442C23.1871 18.5442 22.8961 18.2532 22.8961 17.8942V15.2942V14.3421ZM10.1168 15.4211L14.5695 17.6999C15.1273 17.9852 15.7883 17.9852 16.3462 17.6961C15.7884 17.9817 15.1274 17.9817 14.5695 17.6961L10.1168 15.4211ZM10.1168 19.0977V16.8814L13.9772 18.8571C14.9069 19.3328 16.0087 19.3328 16.9384 18.8571L21.3752 16.5865V19.0977C21.3752 19.5623 21.1274 19.9914 20.7252 20.2234L16.396 22.7231C15.9938 22.9551 15.4982 22.9551 15.096 22.7231L10.7668 20.2234C10.3646 19.9914 10.1168 19.5623 10.1168 19.0977Z" fill="#3387FF"/>
</g>
</svg>
