<svg width="32" height="33" viewBox="0 0 32 33" fill="none" xmlns="http://www.w3.org/2000/svg">
<g clip-path="url(#clip0_5102_13100)">
<path fill-rule="evenodd" clip-rule="evenodd" d="M17.5116 4.29193C16.5775 3.74705 15.4225 3.74705 14.4884 4.29193L5.48839 9.54193C4.56673 10.0796 4 11.0663 4 12.1333V25.4102C4 27.6193 5.79086 29.4102 8 29.4102H12C12.5523 29.4102 13 28.9624 13 28.4102V22.4102C13 20.7539 14.3433 19.4102 16 19.4102C17.6567 19.4102 19 20.7539 19 22.4102V28.4102C19 28.9624 19.4477 29.4102 20 29.4102H24C26.2091 29.4102 28 27.6193 28 25.4102V12.1333C28 11.0663 27.4333 10.0796 26.5116 9.54193L17.5116 4.29193Z" fill="#858899"/>
</g>
<defs>
<clipPath id="clip0_5102_13100">
<rect width="32" height="32" fill="white" transform="translate(0 0.410156)"/>
</clipPath>
</defs>
</svg>
