<svg width="32" height="33" viewBox="0 0 32 33" fill="none" xmlns="http://www.w3.org/2000/svg">
<g clip-path="url(#clip0_5102_13183)">
<path fill-rule="evenodd" clip-rule="evenodd" d="M16 15.0255C18.3791 15.0255 20.3077 13.0969 20.3077 10.7178C20.3077 8.33878 18.3791 6.41016 16 6.41016C13.6209 6.41016 11.6923 8.33878 11.6923 10.7178C11.6923 13.0969 13.6209 15.0255 16 15.0255ZM7.38462 17.1794C9.16892 17.1794 10.6154 15.7329 10.6154 13.9486C10.6154 12.1643 9.16892 10.7178 7.38462 10.7178C5.60031 10.7178 4.15385 12.1643 4.15385 13.9486C4.15385 15.7329 5.60031 17.1794 7.38462 17.1794ZM27.8462 13.9486C27.8462 15.7329 26.3997 17.1794 24.6154 17.1794C22.8311 17.1794 21.3846 15.7329 21.3846 13.9486C21.3846 12.1643 22.8311 10.7178 24.6154 10.7178C26.3997 10.7178 27.8462 12.1643 27.8462 13.9486ZM16 16.1025C12.4314 16.1025 9.53846 18.9954 9.53846 22.564V24.8717C9.53846 25.9763 10.4339 26.8717 11.5385 26.8717H20.4615C21.5661 26.8717 22.4615 25.9763 22.4615 24.8717V22.564C22.4615 18.9954 19.5686 16.1025 16 16.1025ZM2 22.9556C2 20.3603 4.10395 18.2563 6.6993 18.2563C7.67256 18.2563 8.46154 19.0453 8.46154 20.0185V25.8717C8.46154 26.424 8.01382 26.8717 7.46154 26.8717H2.95727C2.42858 26.8717 2 26.4431 2 25.9144V22.9556ZM25.3007 18.2563C24.3274 18.2563 23.5385 19.0453 23.5385 20.0185V24.8717C23.5385 25.9763 24.4339 26.8717 25.5385 26.8717H29.4932C29.7731 26.8717 30 26.6448 30 26.3649V22.9556C30 20.3603 27.8961 18.2563 25.3007 18.2563Z" fill="#3387FF"/>
</g>
<defs>
<clipPath id="clip0_5102_13183">
<rect width="32" height="32" fill="white" transform="translate(0 0.410156)"/>
</clipPath>
</defs>
</svg>
