<svg width="32" height="32" viewBox="0 0 32 32" fill="none" xmlns="http://www.w3.org/2000/svg">
<path d="M2 14.625V26.3125C2 26.6923 2.31325 27 2.7 27H6.2V13.25H3.4C2.62694 13.25 2 13.8657 2 14.625ZM17.75 12.5625H16.7V10.8438C16.7 10.6538 16.5434 10.5 16.35 10.5H15.65C15.4566 10.5 15.3 10.6538 15.3 10.8438V13.5938C15.3 13.7837 15.4566 13.9375 15.65 13.9375H17.75C17.9434 13.9375 18.1 13.7837 18.1 13.5938V12.9063C18.1 12.7163 17.9434 12.5625 17.75 12.5625ZM23.7766 9.81422L16.7766 5.23075C16.5466 5.08028 16.2764 5 16 5C15.7236 5 15.4535 5.08028 15.2234 5.23075L8.22344 9.81422C8.0317 9.93977 7.87449 10.1098 7.76573 10.3094C7.65698 10.5089 7.60005 10.7317 7.6 10.9581V27H13.2V20.8125C13.2 20.4327 13.5133 20.125 13.9 20.125H18.1C18.4868 20.125 18.8 20.4327 18.8 20.8125V27H24.4V10.9585C24.4 10.4987 24.1659 10.069 23.7766 9.81422ZM16 16C14.0671 16 12.5 14.4609 12.5 12.5625C12.5 10.6641 14.0671 9.125 16 9.125C17.9329 9.125 19.5 10.6641 19.5 12.5625C19.5 14.4609 17.9329 16 16 16ZM28.6 13.25H25.8V27H29.3C29.6868 27 30 26.6923 30 26.3125V14.625C30 13.8657 29.3731 13.25 28.6 13.25Z" fill="#858899"/>
</svg>
