<svg width="32" height="33" viewBox="0 0 32 33" fill="none" xmlns="http://www.w3.org/2000/svg">
<g clip-path="url(#clip0_5102_13192)">
<path fill-rule="evenodd" clip-rule="evenodd" d="M29 16.4102C29 23.5899 23.1797 29.4102 16 29.4102C8.8203 29.4102 3 23.5899 3 16.4102C3 9.23045 8.8203 3.41016 16 3.41016C23.1797 3.41016 29 9.23045 29 16.4102ZM14.8306 14.9523C14.5383 14.531 13.9597 14.4264 13.5383 14.7187C13.117 15.0111 13.0124 15.5896 13.3047 16.011C13.7721 16.6846 14.6565 17.2214 15.6197 17.3476C16.6486 17.4825 17.7925 17.1516 18.6592 16.0586C18.9778 15.6568 18.9104 15.0727 18.5085 14.7541C18.1067 14.4354 17.5226 14.5029 17.204 14.9047C16.7691 15.4531 16.2861 15.5619 15.861 15.5062C15.3702 15.4419 14.9733 15.1581 14.8306 14.9523ZM12.6186 12.3037C12.6186 12.9706 12.078 13.5112 11.4112 13.5112C10.7443 13.5112 10.2037 12.9706 10.2037 12.3037C10.2037 11.6369 10.7443 11.0963 11.4112 11.0963C12.078 11.0963 12.6186 11.6369 12.6186 12.3037ZM20.5885 13.5112C21.2554 13.5112 21.796 12.9706 21.796 12.3037C21.796 11.6369 21.2554 11.0963 20.5885 11.0963C19.9216 11.0963 19.381 11.6369 19.381 12.3037C19.381 12.9706 19.9216 13.5112 20.5885 13.5112Z" fill="#3387FF"/>
</g>
<defs>
<clipPath id="clip0_5102_13192">
<rect width="32" height="32" fill="white" transform="translate(0 0.410156)"/>
</clipPath>
</defs>
</svg>
