<svg width="48" height="48" viewBox="0 0 48 48" fill="none" xmlns="http://www.w3.org/2000/svg">
<g id="active">
<circle id="bg" cx="24" cy="23.5898" r="16" fill="white"/>
<path id="fire" fill-rule="evenodd" clip-rule="evenodd" d="M24 39.5898C32.8366 39.5898 40 32.4264 40 23.5898C40 14.7533 32.8366 7.58984 24 7.58984C15.1634 7.58984 8 14.7533 8 23.5898C8 32.4264 15.1634 39.5898 24 39.5898ZM25.5529 16.3663C25.6764 16.1194 25.9767 16.0192 26.2237 16.1427L28.2237 17.1427C28.4707 17.2662 28.5708 17.5666 28.4473 17.8136C28.3238 18.0605 28.0235 18.1607 27.7765 18.0372L25.7765 17.0372C25.5295 16.9137 25.4294 16.6133 25.5529 16.3663ZM32.7425 20.8383C33.276 20.6953 33.5346 19.9308 33.3202 19.1306C33.1058 18.3304 32.4995 17.7976 31.966 17.9405C31.4326 18.0835 31.1739 18.848 31.3883 19.6482C31.6028 20.4484 32.209 20.9812 32.7425 20.8383ZM28.5819 20.1306C28.7963 20.9308 28.5377 21.6953 28.0042 21.8383C27.4707 21.9812 26.8645 21.4484 26.6501 20.6482C26.4356 19.848 26.6943 19.0835 27.2278 18.9405C27.7612 18.7976 28.3675 19.3304 28.5819 20.1306ZM28.5125 23.998L32.6124 23.4413C32.6124 23.4413 31.9419 27.256 31.1104 28.6624C30.3882 29.8829 29.4754 30.1844 29.4754 30.1844C29.4754 30.1844 26.7773 31.0201 27.4528 27.7877L28.5147 23.9985L28.5125 23.998Z" fill="#3387FF"/>
</g>
</svg>
