<svg width="48" height="49" viewBox="0 0 48 49" fill="none" xmlns="http://www.w3.org/2000/svg">
<mask id="mask0_5117_12901" style="mask-type:alpha" maskUnits="userSpaceOnUse" x="0" y="0" width="48" height="49">
<rect y="0.410156" width="48" height="48" fill="#D9D9D9"/>
</mask>
<g mask="url(#mask0_5117_12901)">
<path d="M21.05 28.9602L16.15 24.0602C15.85 23.7602 15.4833 23.6102 15.05 23.6102C14.6167 23.6102 14.2333 23.7768 13.9 24.1102C13.6 24.4102 13.45 24.7768 13.45 25.2102C13.45 25.6435 13.6 26.0102 13.9 26.3102L20 32.4602C20.3 32.7602 20.65 32.9102 21.05 32.9102C21.45 32.9102 21.8 32.7602 22.1 32.4602L34.05 20.5102C34.3833 20.1768 34.55 19.7935 34.55 19.3602C34.55 18.9268 34.3833 18.5435 34.05 18.2102C33.7167 17.9102 33.325 17.7685 32.875 17.7852C32.425 17.8018 32.05 17.9602 31.75 18.2602L21.05 28.9602ZM24 44.4102C21.2667 44.4102 18.6833 43.8852 16.25 42.8352C13.8167 41.7852 11.6917 40.3518 9.875 38.5352C8.05833 36.7185 6.625 34.5935 5.575 32.1602C4.525 29.7268 4 27.1435 4 24.4102C4 21.6435 4.525 19.0435 5.575 16.6102C6.625 14.1768 8.05833 12.0602 9.875 10.2602C11.6917 8.46016 13.8167 7.03516 16.25 5.98516C18.6833 4.93516 21.2667 4.41016 24 4.41016C26.7667 4.41016 29.3667 4.93516 31.8 5.98516C34.2333 7.03516 36.35 8.46016 38.15 10.2602C39.95 12.0602 41.375 14.1768 42.425 16.6102C43.475 19.0435 44 21.6435 44 24.4102C44 27.1435 43.475 29.7268 42.425 32.1602C41.375 34.5935 39.95 36.7185 38.15 38.5352C36.35 40.3518 34.2333 41.7852 31.8 42.8352C29.3667 43.8852 26.7667 44.4102 24 44.4102Z" fill="#3387FF"/>
</g>
</svg>
