<svg width="24" height="24" viewBox="0 0 24 24" fill="none" xmlns="http://www.w3.org/2000/svg">
<g id="delete">
<mask id="mask0_5149_29649" style="mask-type:alpha" maskUnits="userSpaceOnUse" x="0" y="0" width="24" height="24">
<rect id="Bounding box" width="24" height="24" fill="#D9D9D9"/>
</mask>
<g mask="url(#mask0_5149_29649)">
<path id="delete_2" d="M12.0001 13.0638L8.58346 16.4805C8.43068 16.6332 8.25707 16.7062 8.06263 16.6992C7.86818 16.6923 7.69457 16.6124 7.54179 16.4596C7.38902 16.3069 7.31263 16.1298 7.31263 15.9284C7.31263 15.727 7.38902 15.5499 7.54179 15.3971L10.9376 12.0013L7.52096 8.58464C7.36818 8.43186 7.29527 8.25477 7.30221 8.05339C7.30916 7.852 7.38902 7.67491 7.54179 7.52214C7.69457 7.36936 7.87166 7.29297 8.07304 7.29297C8.27443 7.29297 8.45152 7.36936 8.60429 7.52214L12.0001 10.9388L15.4168 7.52214C15.5696 7.36936 15.7467 7.29297 15.948 7.29297C16.1494 7.29297 16.3265 7.36936 16.4793 7.52214C16.6321 7.67491 16.7085 7.852 16.7085 8.05339C16.7085 8.25477 16.6321 8.43186 16.4793 8.58464L13.0626 12.0013L16.4793 15.418C16.6321 15.5707 16.7085 15.7444 16.7085 15.9388C16.7085 16.1332 16.6321 16.3069 16.4793 16.4596C16.3265 16.6124 16.1494 16.6888 15.948 16.6888C15.7467 16.6888 15.5696 16.6124 15.4168 16.4596L12.0001 13.0638Z" fill="#A9ABB8"/>
</g>
</g>
</svg>
