<svg width="24" height="24" viewBox="0 0 24 24" fill="none" xmlns="http://www.w3.org/2000/svg">
<circle cx="12" cy="12" r="10" fill="white"/>
<path fill-rule="evenodd" clip-rule="evenodd" d="M12 22C17.5228 22 22 17.5228 22 12C22 6.47715 17.5228 2 12 2C6.47715 2 2 6.47715 2 12C2 17.5228 6.47715 22 12 22ZM17.3047 10.7247L12.2665 13.303C11.8374 13.5226 11.3289 13.5226 10.8998 13.303L5.77222 10.679C5.40926 10.4932 5.40926 9.97452 5.77222 9.78877L10.8998 7.1647C11.3289 6.9451 11.8374 6.9451 12.2665 7.1647L17.341 9.76166C17.4371 9.78547 17.5846 9.84706 17.8047 9.95707L17.8048 9.95711C17.8119 9.96033 18.3047 10.1829 18.3047 10.4571V10.4571V11.4571V13.4571C18.3047 13.7332 18.0808 13.9571 17.8047 13.9571C17.5285 13.9571 17.3047 13.7332 17.3047 13.4571V11.4571V10.7247ZM7.47449 11.5547L10.8996 13.3076C11.3287 13.5271 11.8372 13.5271 12.2663 13.3047C11.8372 13.5244 11.3288 13.5244 10.8996 13.3047L7.47449 11.5547ZM7.47449 14.3828V12.678L10.444 14.1978C11.1592 14.5637 12.0067 14.5637 12.7218 14.1978L16.1347 12.4512V14.3828C16.1347 14.7402 15.9441 15.0703 15.6347 15.2488L12.3046 17.1716C11.9952 17.3501 11.614 17.3501 11.3046 17.1716L7.97449 15.2488C7.66508 15.0703 7.47449 14.7402 7.47449 14.3828Z" fill="#3387FF"/>
</svg>
