<svg width="33" height="26" viewBox="0 0 33 26" fill="none" xmlns="http://www.w3.org/2000/svg">
<path d="M5.47687 12.5255C7.63858 12.5255 9.39099 10.7731 9.39099 8.61139C9.39099 6.44968 7.63858 4.69727 5.47687 4.69727C3.31516 4.69727 1.56274 6.44968 1.56274 8.61139C1.56274 10.7731 3.31516 12.5255 5.47687 12.5255Z" fill="#1249FC"/>
<path d="M27.3956 12.5255C29.5573 12.5255 31.3097 10.7731 31.3097 8.61139C31.3097 6.44968 29.5573 4.69727 27.3956 4.69727C25.2339 4.69727 23.4814 6.44968 23.4814 8.61139C23.4814 10.7731 25.2339 12.5255 27.3956 12.5255Z" fill="#1249FC"/>
<path d="M5.89937 14.0917H5.98392C6.25468 14.0793 6.52461 14.1299 6.77248 14.2396C7.02035 14.3492 7.2394 14.5148 7.41239 14.7235C7.58539 14.9322 7.70759 15.1782 7.76943 15.4421C7.83127 15.706 7.83105 15.9806 7.76876 16.2444C7.58326 16.932 7.48954 17.641 7.49006 18.3532V23.5622C7.47416 23.9723 7.2963 24.3593 6.99547 24.6384C6.69463 24.9175 6.29539 25.066 5.88528 25.0512H1.60478C1.19467 25.066 0.795428 24.9175 0.494593 24.6384C0.193758 24.3593 0.0158987 23.9723 0 23.5622V19.7952C0.0449191 18.2628 0.686968 16.8087 1.78914 15.7431C2.89131 14.6775 4.36632 14.0849 5.89937 14.0917Z" fill="#1249FC"/>
<path d="M26.9729 14.0917H26.8884C26.6176 14.0793 26.3477 14.1299 26.0998 14.2396C25.8519 14.3492 25.6329 14.5148 25.4599 14.7235C25.2869 14.9322 25.1647 15.1782 25.1029 15.4421C25.041 15.706 25.0412 15.9806 25.1035 16.2444C25.289 16.932 25.3827 17.641 25.3822 18.3532V23.5622C25.3981 23.9723 25.576 24.3593 25.8768 24.6384C26.1777 24.9175 26.5769 25.066 26.987 25.0512H31.2675C31.6776 25.066 32.0769 24.9175 32.3777 24.6384C32.6785 24.3593 32.8564 23.9723 32.8723 23.5622V19.7952C32.8274 18.2628 32.1853 16.8087 31.0831 15.7431C29.981 14.6775 28.506 14.0849 26.9729 14.0917Z" fill="#1249FC"/>
<path d="M16.4361 10.9595C19.4625 10.9595 21.9158 8.50617 21.9158 5.47977C21.9158 2.45338 19.4625 0 16.4361 0C13.4097 0 10.9563 2.45338 10.9563 5.47977C10.9563 8.50617 13.4097 10.9595 16.4361 10.9595Z" fill="#1249FC"/>
<path d="M23.4423 18.1312C23.4298 18.0216 23.4142 17.915 23.3954 17.8086C23.3766 17.7021 23.3484 17.5643 23.3171 17.4437C23.2967 17.3561 23.2732 17.2668 23.2466 17.1823C23.22 17.0977 23.184 16.9788 23.148 16.8786C23.112 16.7784 23.0854 16.711 23.0509 16.6296C23.0165 16.5482 23.0008 16.5107 22.9758 16.4528C22.9507 16.3949 22.9319 16.3557 22.9084 16.3087L22.9006 16.29C22.8568 16.1976 22.8067 16.1036 22.755 16.0144C22.7206 15.9486 22.6846 15.8843 22.6454 15.8217C22.5859 15.7173 22.5233 15.6197 22.4575 15.5289L22.301 15.3021L22.2885 15.2864C22.2331 15.2112 22.1757 15.1391 22.1162 15.0702L22.0614 15.0045C22.004 14.9346 21.944 14.8672 21.8814 14.8025C21.8706 14.7893 21.8591 14.7769 21.8469 14.765C21.7874 14.7008 21.7248 14.6382 21.659 14.5756C21.5933 14.513 21.5369 14.4565 21.4743 14.4017C21.4587 14.386 21.443 14.372 21.4273 14.3579C21.4129 14.3425 21.3972 14.3284 21.3804 14.3157C21.3146 14.2578 21.2504 14.2028 21.1847 14.1511C21.1189 14.0995 21.0171 14.0165 20.9295 13.9539C20.8637 13.9038 20.7964 13.8569 20.7291 13.813C20.6617 13.7692 20.6242 13.7441 20.5725 13.7081C20.4347 13.6173 20.2938 13.5343 20.1466 13.456C20.095 13.4263 20.0402 13.3981 19.9901 13.3731C19.959 13.3545 19.9265 13.3383 19.893 13.3245C19.8335 13.2917 19.7709 13.2619 19.7082 13.2338C19.5517 13.1617 19.4061 13.0975 19.2495 13.0396C19.1994 13.0192 19.1524 13.002 19.1039 12.9832C19.0554 12.9644 18.9708 12.9348 18.9004 12.9144C18.6489 12.8303 18.3927 12.7606 18.1332 12.7061C18.0471 12.6857 17.961 12.6686 17.8749 12.653C17.7893 12.6363 17.7006 12.6222 17.6087 12.6107C17.5789 12.6034 17.5485 12.5987 17.5179 12.5966C17.4866 12.5966 17.4584 12.5871 17.424 12.584C17.3488 12.573 17.2674 12.5652 17.1923 12.5589H17.1375C17.0388 12.5495 16.9386 12.5434 16.8368 12.5387H16.8102C16.6928 12.5387 16.5754 12.5293 16.4548 12.5293C16.3343 12.5293 16.2169 12.5293 16.0994 12.5387H16.0728C15.9711 12.5387 15.8724 12.5495 15.7722 12.5589H15.7174C15.6391 12.5589 15.5609 12.573 15.4857 12.584C15.4513 12.584 15.4231 12.584 15.3917 12.5966C15.3611 12.5987 15.3308 12.6034 15.3009 12.6107C15.2091 12.6222 15.1204 12.6363 15.0348 12.653C14.9487 12.6686 14.8626 12.6857 14.7765 12.7061C14.5169 12.7606 14.2608 12.8303 14.0093 12.9144C13.9388 12.9348 13.8715 12.9582 13.8058 12.9832C13.74 13.0083 13.7087 13.0177 13.6602 13.0396C13.5036 13.0975 13.347 13.1617 13.2014 13.2338C13.1388 13.2619 13.0762 13.2917 13.0167 13.3245C12.9831 13.3382 12.9507 13.3545 12.9196 13.3731C12.8679 13.3981 12.8131 13.4263 12.763 13.456C12.6174 13.5343 12.4765 13.6126 12.3372 13.7081C12.2855 13.7426 12.2323 13.7755 12.1806 13.813C12.1289 13.8506 12.0444 13.9038 11.9802 13.9539C11.891 14.0165 11.808 14.0822 11.725 14.1511C11.642 14.22 11.5951 14.2578 11.5293 14.3157C11.498 14.3407 11.4635 14.3719 11.4322 14.4017C11.3696 14.4581 11.307 14.5161 11.2475 14.5756C11.188 14.6351 11.1191 14.7008 11.0596 14.765C11.0474 14.7769 11.0359 14.7893 11.0252 14.8025C10.9625 14.8672 10.9025 14.9346 10.8451 15.0045C10.8263 15.0248 10.8091 15.0467 10.7903 15.0702C10.7298 15.1391 10.6724 15.2112 10.6181 15.2864L10.6056 15.3021L10.449 15.5289C10.3843 15.6239 10.3217 15.7215 10.2611 15.8217C10.222 15.8843 10.186 15.9486 10.1515 16.0144C10.0999 16.1052 10.0498 16.1976 10.0059 16.29L9.9981 16.3087C9.97461 16.3541 9.95113 16.4042 9.93078 16.4528C9.91042 16.5013 9.8791 16.5685 9.85562 16.6296C9.83213 16.6906 9.7883 16.7941 9.75855 16.8786C9.72881 16.9631 9.68809 17.0805 9.65991 17.1823C9.63173 17.2841 9.60981 17.3561 9.58946 17.4437C9.55815 17.5643 9.53153 17.6849 9.51117 17.8086C9.49082 17.9323 9.47673 18.0216 9.46421 18.1312C9.42646 18.3482 9.40189 18.5672 9.39062 18.7871V23.6578C9.41483 24.0495 9.59307 24.4159 9.88641 24.6766C10.1798 24.9374 10.5644 25.0716 10.9563 25.0497H21.9158C22.3077 25.0716 22.6923 24.9374 22.9857 24.6766C23.279 24.4159 23.4573 24.0495 23.4815 23.6578V18.7871C23.4816 18.5679 23.4685 18.3489 23.4423 18.1312Z" fill="#1249FC"/>
</svg>
