<svg width="253" height="68" viewBox="0 0 253 68" fill="none" xmlns="http://www.w3.org/2000/svg">
<rect x="0.5" width="252" height="56" rx="28" fill="#EBF3FF"/>
<path d="M33.1094 26.9219L34.3281 22.6719H35.4844L34.625 26.9219H33.1094ZM36.0781 26.9219L37.2969 22.6719H38.4531L37.5938 26.9219H36.0781ZM40.6813 34V22.6875H42.0875V27.7188H48.0719V22.6875H49.4938V34H48.0719V28.9531H42.0875V34H40.6813ZM55.175 34.1719C52.8625 34.1719 51.3 32.4375 51.3 29.7969C51.3 27.1562 52.8625 25.4062 55.175 25.4062C57.4719 25.4062 59.0187 27.1562 59.0187 29.7969C59.0187 32.4375 57.4719 34.1719 55.175 34.1719ZM55.175 32.9844C56.8781 32.9844 57.675 31.4844 57.675 29.7969C57.675 28.1094 56.8781 26.5938 55.175 26.5938C53.4406 26.5938 52.6437 28.1094 52.6437 29.7969C52.6437 31.4844 53.4406 32.9844 55.175 32.9844ZM62.0281 28.9062V34H60.6844V25.5156H61.9813V26.8438H62.0906C62.4969 25.9844 63.2781 25.4062 64.575 25.4062C66.2938 25.4062 67.4344 26.4531 67.4344 28.6094V34H66.0906V28.7031C66.0906 27.3906 65.3719 26.6094 64.1688 26.6094C62.9344 26.6094 62.0281 27.4375 62.0281 28.9062ZM72.9281 37.3594C70.8812 37.3594 69.4906 36.4688 69.3344 34.8906H70.7406C70.9281 35.75 71.725 36.1875 72.9281 36.1875C74.3812 36.1875 75.2719 35.5625 75.2719 34.1562V32.4375H75.1625C74.8812 32.9062 74.3344 33.875 72.6937 33.875C70.6312 33.875 69.0844 32.3125 69.0844 29.6406C69.0844 27.0312 70.5844 25.4062 72.7094 25.4062C74.35 25.4062 74.8812 26.4062 75.1937 26.8594H75.3031V25.5156H76.6156V34.2344C76.6156 36.4219 74.9906 37.3594 72.9281 37.3594ZM72.8812 32.6719C74.4281 32.6719 75.3031 31.5625 75.3031 29.6875C75.3031 27.875 74.4594 26.6094 72.8812 26.6094C71.2562 26.6094 70.4437 27.9844 70.4437 29.6875C70.4437 31.4531 71.2719 32.6719 72.8812 32.6719ZM81.8594 34.1719C79.75 34.1719 78.25 32.4688 78.25 29.7812C78.25 27.0938 79.75 25.4062 81.875 25.4062C83.5156 25.4062 84.0469 26.4062 84.3281 26.8594H84.4219V22.6875H85.7812V34H84.4688V32.7031H84.3281C84.0312 33.1719 83.4844 34.1719 81.8594 34.1719ZM82.0469 32.9688C83.5938 32.9688 84.4688 31.6562 84.4688 29.75C84.4688 27.875 83.625 26.6094 82.0469 26.6094C80.4219 26.6094 79.6094 27.9844 79.6094 29.75C79.6094 31.5625 80.4375 32.9688 82.0469 32.9688ZM87.6031 31.5938C87.6031 29.6406 89.3219 29.2031 90.7906 29.0938C91.3297 29.0547 92.7047 28.9844 93.0875 28.9688V28.2812C93.0875 27.2031 92.4469 26.5781 91.1656 26.5781C90.0875 26.5781 89.4469 27.0781 89.2594 27.7188H87.8531C88.025 26.3594 89.3531 25.4062 91.2281 25.4062C92.3375 25.4062 94.4156 25.7344 94.4156 28.4062V34H93.0875V32.8438H93.025C92.7438 33.4219 91.9625 34.2031 90.4938 34.2031C88.8844 34.2031 87.6031 33.25 87.6031 31.5938ZM88.9469 31.6562C88.9469 32.5469 89.6969 33 90.7281 33C92.2438 33 93.0875 31.9844 93.0875 30.9219V30.0625C92.6891 30.0938 91.3531 30.1953 90.9469 30.2188C89.7281 30.2969 88.9469 30.7344 88.9469 31.6562ZM100.034 34.1719C97.5812 34.1719 96.0656 32.4375 96.0656 29.8281C96.0656 27.2188 97.5969 25.4062 99.9094 25.4062C101.691 25.4062 103.566 26.5 103.566 29.6406V30.2031H97.4094C97.4719 32 98.5187 32.9844 100.034 32.9844C101.05 32.9844 101.691 32.5469 102.003 32.0156H103.441C103.034 33.2969 101.784 34.1719 100.034 34.1719ZM97.425 29.0625H102.206C102.206 27.6406 101.3 26.5938 99.9094 26.5938C98.4406 26.5938 97.5031 27.75 97.425 29.0625ZM108.725 31.5938C108.725 29.6406 110.444 29.2031 111.912 29.0938C112.452 29.0547 113.827 28.9844 114.209 28.9688V28.2812C114.209 27.2031 113.569 26.5781 112.287 26.5781C111.209 26.5781 110.569 27.0781 110.381 27.7188H108.975C109.147 26.3594 110.475 25.4062 112.35 25.4062C113.459 25.4062 115.537 25.7344 115.537 28.4062V34H114.209V32.8438H114.147C113.866 33.4219 113.084 34.2031 111.616 34.2031C110.006 34.2031 108.725 33.25 108.725 31.5938ZM110.069 31.6562C110.069 32.5469 110.819 33 111.85 33C113.366 33 114.209 31.9844 114.209 30.9219V30.0625C113.811 30.0938 112.475 30.1953 112.069 30.2188C110.85 30.2969 110.069 30.7344 110.069 31.6562ZM121.031 37.3594C118.984 37.3594 117.594 36.4688 117.438 34.8906H118.844C119.031 35.75 119.828 36.1875 121.031 36.1875C122.484 36.1875 123.375 35.5625 123.375 34.1562V32.4375H123.266C122.984 32.9062 122.438 33.875 120.797 33.875C118.734 33.875 117.188 32.3125 117.188 29.6406C117.188 27.0312 118.688 25.4062 120.812 25.4062C122.453 25.4062 122.984 26.4062 123.297 26.8594H123.406V25.5156H124.719V34.2344C124.719 36.4219 123.094 37.3594 121.031 37.3594ZM120.984 32.6719C122.531 32.6719 123.406 31.5625 123.406 29.6875C123.406 27.875 122.562 26.6094 120.984 26.6094C119.359 26.6094 118.547 27.9844 118.547 29.6875C118.547 31.4531 119.375 32.6719 120.984 32.6719ZM126.353 31.5938C126.353 29.6406 128.072 29.2031 129.541 29.0938C130.08 29.0547 131.455 28.9844 131.838 28.9688V28.2812C131.838 27.2031 131.197 26.5781 129.916 26.5781C128.838 26.5781 128.197 27.0781 128.009 27.7188H126.603C126.775 26.3594 128.103 25.4062 129.978 25.4062C131.088 25.4062 133.166 25.7344 133.166 28.4062V34H131.838V32.8438H131.775C131.494 33.4219 130.713 34.2031 129.244 34.2031C127.634 34.2031 126.353 33.25 126.353 31.5938ZM127.697 31.6562C127.697 32.5469 128.447 33 129.478 33C130.994 33 131.838 31.9844 131.838 30.9219V30.0625C131.439 30.0938 130.103 30.1953 129.697 30.2188C128.478 30.2969 127.697 30.7344 127.697 31.6562ZM135.222 34V25.5156H136.566V34H135.222ZM135.894 24.1094C135.378 24.1094 134.956 23.7188 134.956 23.2188C134.956 22.7188 135.378 22.3281 135.894 22.3281C136.409 22.3281 136.847 22.7188 136.847 23.2188C136.847 23.7188 136.409 24.1094 135.894 24.1094ZM139.95 28.9062V34H138.606V25.5156H139.903V26.8438H140.012C140.419 25.9844 141.2 25.4062 142.497 25.4062C144.216 25.4062 145.356 26.4531 145.356 28.6094V34H144.012V28.7031C144.012 27.3906 143.294 26.6094 142.091 26.6094C140.856 26.6094 139.95 27.4375 139.95 28.9062ZM149.116 30.7344C149.131 28.6406 149.772 28 150.85 27.3438C151.491 26.9531 151.991 26.3281 151.991 25.4531C151.991 24.3906 151.162 23.7188 150.131 23.7188C149.241 23.7188 148.35 24.25 148.256 25.5312H146.834C146.912 23.6406 148.35 22.5312 150.131 22.5312C152.084 22.5312 153.366 23.7969 153.366 25.5156C153.366 26.7344 152.787 27.5938 151.819 28.1875C150.85 28.7812 150.491 29.375 150.459 30.7344V30.8125H149.116V30.7344ZM149.834 34.0938C149.287 34.0938 148.819 33.6406 148.834 33.0781C148.819 32.5312 149.287 32.0781 149.834 32.0781C150.381 32.0781 150.834 32.5312 150.834 33.0781C150.834 33.6406 150.381 34.0938 149.834 34.0938ZM158.447 23.9375V22.6875H166.978V23.9375H163.431V34H162.009V23.9375H158.447ZM170.816 34.1719C168.503 34.1719 166.941 32.4375 166.941 29.7969C166.941 27.1562 168.503 25.4062 170.816 25.4062C173.113 25.4062 174.659 27.1562 174.659 29.7969C174.659 32.4375 173.113 34.1719 170.816 34.1719ZM170.816 32.9844C172.519 32.9844 173.316 31.4844 173.316 29.7969C173.316 28.1094 172.519 26.5938 170.816 26.5938C169.081 26.5938 168.284 28.1094 168.284 29.7969C168.284 31.4844 169.081 32.9844 170.816 32.9844ZM179.794 34.1719C177.481 34.1719 175.919 32.4375 175.919 29.7969C175.919 27.1562 177.481 25.4062 179.794 25.4062C182.091 25.4062 183.637 27.1562 183.637 29.7969C183.637 32.4375 182.091 34.1719 179.794 34.1719ZM179.794 32.9844C181.497 32.9844 182.294 31.4844 182.294 29.7969C182.294 28.1094 181.497 26.5938 179.794 26.5938C178.059 26.5938 177.262 28.1094 177.262 29.7969C177.262 31.4844 178.059 32.9844 179.794 32.9844ZM193.016 25.5156V26.6406H191.141V34H189.781V26.6406H188.422V25.5156H189.781V24.3594C189.781 22.9844 190.703 22.1562 192.203 22.1562C192.531 22.1562 192.922 22.2031 193.203 22.25V23.4531C192.922 23.4062 192.672 23.3906 192.5 23.3906C191.562 23.3906 191.141 23.7812 191.141 24.6562V25.5156H193.016ZM193.853 31.5938C193.853 29.6406 195.572 29.2031 197.041 29.0938C197.58 29.0547 198.955 28.9844 199.337 28.9688V28.2812C199.337 27.2031 198.697 26.5781 197.416 26.5781C196.337 26.5781 195.697 27.0781 195.509 27.7188H194.103C194.275 26.3594 195.603 25.4062 197.478 25.4062C198.587 25.4062 200.666 25.7344 200.666 28.4062V34H199.337V32.8438H199.275C198.994 33.4219 198.212 34.2031 196.744 34.2031C195.134 34.2031 193.853 33.25 193.853 31.5938ZM195.197 31.6562C195.197 32.5469 195.947 33 196.978 33C198.494 33 199.337 31.9844 199.337 30.9219V30.0625C198.939 30.0938 197.603 30.1953 197.197 30.2188C195.978 30.2969 195.197 30.7344 195.197 31.6562ZM202.722 34V25.5156H204.019V26.8125H204.113C204.425 25.9531 205.3 25.375 206.3 25.375C206.503 25.375 206.847 25.3906 207.003 25.4062V26.7656C206.909 26.7344 206.534 26.6719 206.191 26.6719C204.972 26.6719 204.066 27.5156 204.066 28.6562V34H202.722ZM208.2 34.0938C207.653 34.0938 207.184 33.6406 207.2 33.0781C207.184 32.5312 207.653 32.0781 208.2 32.0781C208.747 32.0781 209.2 32.5312 209.2 33.0781C209.2 33.6406 208.747 34.0938 208.2 34.0938ZM212.163 34.0938C211.616 34.0938 211.147 33.6406 211.163 33.0781C211.147 32.5312 211.616 32.0781 212.163 32.0781C212.709 32.0781 213.163 32.5312 213.163 33.0781C213.163 33.6406 212.709 34.0938 212.163 34.0938ZM219.578 22.7031L218.359 26.9531H217.203L218.062 22.7031H219.578ZM216.609 22.7031L215.391 26.9531H214.234L215.094 22.7031H216.609Z" fill="#1C1B1F"/>
<path d="M127.366 67.5C126.981 68.1667 126.019 68.1667 125.634 67.5L118.706 55.5C118.321 54.8333 118.802 54 119.572 54L133.428 54C134.198 54 134.679 54.8333 134.294 55.5L127.366 67.5Z" fill="#EBF3FF"/>
</svg>
