<svg width="261" height="68" viewBox="0 0 261 68" fill="none" xmlns="http://www.w3.org/2000/svg">
<rect x="0.5" width="260" height="56" rx="28" fill="#EBF3FF"/>
<path d="M45.7812 32.4531V33.4844H33.0625V32.4531H38.7812V29.0625H34.5625V22.5469H44.2031V29.0625H39.9844V32.4531H45.7812ZM35.7656 28.0781H43.0156V23.5312H35.7656V28.0781ZM58.2594 21.3906V29.3281H57.0406V21.3906H58.2594ZM47.1187 25.375C47.1109 23.4375 48.65 22.125 50.7594 22.125C52.8687 22.125 54.3922 23.4375 54.4 25.375C54.3922 27.2812 52.8687 28.6094 50.7594 28.6094C48.65 28.6094 47.1109 27.2812 47.1187 25.375ZM48.3219 25.375C48.3062 26.6641 49.3297 27.5703 50.7594 27.5625C52.1734 27.5703 53.1969 26.6641 53.1969 25.375C53.1969 24.0781 52.1734 23.1641 50.7594 23.1719C49.3297 23.1641 48.3062 24.0781 48.3219 25.375ZM49.2281 35.0781V30.0781H58.2594V35.0781H49.2281ZM50.4312 34.0781H57.0562V31.0781H50.4312V34.0781ZM69.3719 25.1094C69.3641 27.6484 71.0906 30.1953 73.1375 31.125L72.3875 32.0938C70.8016 31.3281 69.4344 29.6797 68.7703 27.7031C68.1297 29.7969 66.7625 31.5547 65.1375 32.375L64.3563 31.3438C66.4266 30.3984 68.1375 27.7422 68.1531 25.1094V22.5781H69.3719V25.1094ZM74.6531 35.2969V21.375H75.8875V35.2969H74.6531ZM89.0219 21.375V25.6094H91.1156V26.6406H89.0219V31.5469H87.7875V21.375H89.0219ZM78.1781 28.9531C81.5141 27.9141 83.6781 25.9375 83.9359 23.4844H78.7562V22.4531H85.2719C85.2719 26.0312 82.7172 28.6875 78.7094 29.9375L78.1781 28.9531ZM80.3187 34.9688V30.5156H81.5375V33.9375H89.6625V34.9688H80.3187ZM100.775 25.6406C100.783 28 102.494 30.3984 104.541 31.2812L103.853 32.25C102.228 31.5156 100.83 29.9141 100.181 27.9922C99.5328 30.0312 98.1266 31.7969 96.5406 32.5938L95.8063 31.625C97.7984 30.6719 99.5328 28.0469 99.5406 25.6406V23.8281H96.2594V22.8125H104.088V23.8281H100.775V25.6406ZM106.025 35.2656V21.375H107.259V35.2656H106.025ZM120.394 21.3906V24.6875H122.503V25.7188H120.394V29.1562H119.175V21.3906H120.394ZM110.128 34.25C111.87 33.6094 112.948 32.0859 112.956 30.75V29.7344H114.113V30.75C114.113 31.9922 114.761 33.3203 116.081 34.0859C117.425 33.25 118.089 31.8281 118.097 30.75V29.7344H119.3V30.75C119.292 32.1953 120.331 33.6484 122.128 34.25L121.503 35.1719C120.12 34.6641 119.159 33.6875 118.691 32.5156C118.261 33.6484 117.425 34.7266 116.113 35.2969C114.753 34.7656 113.909 33.7266 113.511 32.5469C113.019 33.6797 112.066 34.6562 110.753 35.1719L110.128 34.25ZM110.206 28.2812V22.25H111.441V27.25C113.425 27.2422 115.464 27.0859 117.706 26.6406L117.863 27.6562C115.503 28.1328 113.402 28.2891 111.316 28.2812H110.206ZM134.497 25.5938V26.5781H124.981V21.8906H126.2V25.5938H134.497ZM123.247 29.4688V28.4688H135.966V29.4688H123.247ZM124.903 34.9219V30.8906H126.122V33.9062H134.575V34.9219H124.903ZM148.881 21.375V35.2656H147.694V21.375H148.881ZM137.537 31.9219V23.0938H142.772V24.1094H138.725V30.8906C140.733 30.875 141.998 30.8047 143.491 30.4688L143.616 31.5156C142.006 31.8438 140.647 31.9141 138.412 31.9219H137.537ZM141.834 27.7188V26.6875H144.866V21.7188H146.037V34.5469H144.866V27.7188H141.834ZM153 32.9531L151.781 37.2031H150.625L151.484 32.9531H153ZM158.456 30.9688C159.3 30.9688 160.37 30.9609 161.488 30.9219V28.5859C159.941 28.3594 158.886 27.2266 158.894 25.6406C158.886 23.8984 160.198 22.7109 162.05 22.7031C163.933 22.7109 165.245 23.8984 165.253 25.6406C165.245 27.2188 164.206 28.3438 162.659 28.5781V30.875C163.722 30.8203 164.769 30.7422 165.675 30.625L165.769 31.5312C163.472 31.9141 160.511 32 158.628 32L158.456 30.9688ZM160.003 25.6406C159.988 26.8047 160.87 27.6016 162.05 27.6094C163.245 27.6016 164.12 26.8047 164.128 25.6406C164.12 24.5156 163.245 23.7031 162.05 23.7031C160.87 23.7031 159.988 24.5156 160.003 25.6406ZM166.331 34.5312V21.6875H167.488V27.1719H169.222V21.375H170.394V35.2656H169.222V28.2031H167.488V34.5312H166.331ZM187.131 21.375V25.6094H189.225V26.6406H187.131V31.625H185.913V21.375H187.131ZM176.538 25.7812C176.53 23.7656 178.108 22.3672 180.178 22.3594C182.264 22.3672 183.819 23.7656 183.834 25.7812C183.819 27.7891 182.264 29.2031 180.178 29.2031C178.108 29.2031 176.53 27.7891 176.538 25.7812ZM177.741 25.7812C177.733 27.1484 178.803 28.125 180.178 28.125C181.577 28.125 182.623 27.1484 182.631 25.7812C182.623 24.4062 181.577 23.4375 180.178 23.4375C178.803 23.4375 177.733 24.4062 177.741 25.7812ZM178.444 34.9688V30.5625H179.647V33.9375H187.772V34.9688H178.444ZM200.244 22.2812C203.197 22.2969 205.322 23.7344 205.322 25.9219C205.322 27.9922 203.478 29.3594 200.837 29.5391V32.4531H206.634V33.4844H193.916V32.4531H199.634V29.5391C197.009 29.3516 195.166 27.9844 195.166 25.9219C195.166 23.7344 197.298 22.2969 200.244 22.2812ZM196.353 25.9219C196.345 27.5234 197.994 28.5625 200.244 28.5781C202.494 28.5625 204.134 27.5234 204.134 25.9219C204.134 24.3516 202.494 23.2891 200.244 23.2969C197.994 23.2891 196.345 24.3516 196.353 25.9219ZM212.613 25.6406C212.62 28 214.331 30.3984 216.378 31.2812L215.691 32.25C214.066 31.5156 212.667 29.9141 212.019 27.9922C211.37 30.0312 209.964 31.7969 208.378 32.5938L207.644 31.625C209.636 30.6719 211.37 28.0469 211.378 25.6406V23.8281H208.097V22.8125H215.925V23.8281H212.613V25.6406ZM217.863 35.2656V21.375H219.097V35.2656H217.863ZM223.591 30.7344C223.606 28.6406 224.247 28 225.325 27.3438C225.973 26.9531 226.466 26.3281 226.466 25.4531C226.466 24.3906 225.637 23.7109 224.606 23.7188C223.716 23.7109 222.817 24.2422 222.731 25.5312H221.309C221.387 23.6328 222.817 22.5312 224.606 22.5312C226.567 22.5312 227.841 23.7891 227.841 25.5156C227.841 26.7422 227.262 27.5938 226.294 28.1875C225.317 28.7812 224.966 29.3828 224.934 30.7344V30.8125H223.591V30.7344ZM223.309 33.0781C223.294 32.5312 223.762 32.0781 224.309 32.0781C224.864 32.0781 225.317 32.5312 225.309 33.0781C225.317 33.6328 224.864 34.0859 224.309 34.0938C223.762 34.0859 223.294 33.6328 223.309 33.0781Z" fill="#1C1B1F"/>
<path d="M131.366 67.5C130.981 68.1667 130.019 68.1667 129.634 67.5L122.706 55.5C122.321 54.8333 122.802 54 123.572 54L137.428 54C138.198 54 138.679 54.8333 138.294 55.5L131.366 67.5Z" fill="#EBF3FF"/>
</svg>
