<svg width="255" height="68" viewBox="0 0 255 68" fill="none" xmlns="http://www.w3.org/2000/svg">
<rect x="0.5" width="254" height="56" rx="28" fill="#EBF3FF"/>
<path d="M33.1094 26.9219L34.3281 22.6719H35.4844L34.625 26.9219H33.1094ZM36.0781 26.9219L37.2969 22.6719H38.4531L37.5938 26.9219H36.0781ZM40.0563 23.9375V22.6875H48.5875V23.9375H45.0406V34H43.6188V23.9375H40.0563ZM50.1906 34V25.5156H51.5344V34H50.1906ZM50.8625 24.1094C50.3469 24.1094 49.925 23.7188 49.925 23.2188C49.925 22.7188 50.3469 22.3281 50.8625 22.3281C51.3781 22.3281 51.8156 22.7188 51.8156 23.2188C51.8156 23.7188 51.3781 24.1094 50.8625 24.1094ZM53.575 34V25.5156H54.8719V26.8438H54.9813C55.3406 25.9375 56.1531 25.4062 57.2625 25.4062C58.3719 25.4062 59.1219 25.9375 59.5281 26.8438H59.6219C60.0594 25.9688 60.95 25.4062 62.1688 25.4062C63.6844 25.4062 64.7625 26.3281 64.7625 28.3281V34H63.4188V28.3438C63.4188 27.0938 62.6219 26.6094 61.7 26.6094C60.5125 26.6094 59.8406 27.4062 59.8406 28.4844V34H58.4813V28.2031C58.4813 27.25 57.7938 26.6094 56.825 26.6094C55.8094 26.6094 54.9188 27.4688 54.9188 28.7031V34H53.575ZM70.3812 34.1719C67.9281 34.1719 66.4125 32.4375 66.4125 29.8281C66.4125 27.2188 67.9437 25.4062 70.2562 25.4062C72.0375 25.4062 73.9125 26.5 73.9125 29.6406V30.2031H67.7562C67.8187 32 68.8656 32.9844 70.3812 32.9844C71.3969 32.9844 72.0375 32.5469 72.35 32.0156H73.7875C73.3812 33.2969 72.1312 34.1719 70.3812 34.1719ZM67.7719 29.0625H72.5531C72.5531 27.6406 71.6469 26.5938 70.2562 26.5938C68.7875 26.5938 67.85 27.75 67.7719 29.0625ZM77.4375 22.7031L76.2188 26.9531H75.0625L75.9219 22.7031H77.4375ZM82.525 27.7188C82.3375 27.0156 81.8063 26.5469 80.8063 26.5469C79.7594 26.5469 79.0094 27.1094 79.0094 27.8281C79.0094 28.3906 79.4625 28.7812 80.4625 29.0156L81.7281 29.3281C83.2438 29.6875 83.9938 30.4375 83.9938 31.625C83.9938 33.0938 82.7906 34.1719 80.6656 34.1719C78.7594 34.1719 77.6188 33.3281 77.4 31.7812H78.8063C78.9625 32.6094 79.5719 33 80.6344 33C81.8375 33 82.6031 32.5 82.6031 31.7031C82.6031 31.1094 82.1813 30.7031 81.2125 30.4844L79.9313 30.1875C78.4469 29.8438 77.6656 29.0312 77.6656 27.9062C77.6656 26.4531 78.9313 25.4062 80.8063 25.4062C82.5563 25.4062 83.6656 26.3438 83.8375 27.7188H82.525ZM94.9188 30.5156V25.5156H96.2469V34H94.9188V32.5625H94.825C94.4188 33.4219 93.5906 34.1094 92.3094 34.1094C90.7 34.1094 89.5594 33.0625 89.5594 30.9062V25.5156H90.9031V30.8125C90.9031 32.0312 91.6688 32.8125 92.7469 32.8125C93.7 32.8125 94.9188 32.0938 94.9188 30.5156ZM98.3031 37.1875V25.5156H99.6V26.8594H99.7562C100.037 26.4062 100.569 25.4062 102.209 25.4062C104.334 25.4062 105.819 27.0938 105.819 29.7812C105.819 32.4688 104.334 34.1719 102.225 34.1719C100.6 34.1719 100.037 33.1719 99.7562 32.7031H99.6469V37.1875H98.3031ZM99.6156 29.75C99.6156 31.6562 100.475 32.9688 102.037 32.9688C103.647 32.9688 104.475 31.5625 104.475 29.75C104.475 27.9844 103.662 26.6094 102.037 26.6094C100.444 26.6094 99.6156 27.875 99.6156 29.75ZM109.234 32.9531L108.016 37.2031H106.859L107.719 32.9531H109.234ZM117.284 34L114.706 25.5156H116.128L117.941 31.9844H118.019L119.816 25.5156H121.253L123.019 31.9531H123.113L124.925 25.5156H126.331L123.753 34H122.425L120.581 27.5312H120.456L118.628 34H117.284ZM129.059 28.9062V34H127.716V22.6875H129.059V26.8438H129.169C129.559 25.9688 130.325 25.4062 131.669 25.4062C133.403 25.4062 134.559 26.4375 134.559 28.6094V34H133.216V28.7031C133.216 27.375 132.481 26.6094 131.262 26.6094C129.997 26.6094 129.059 27.4375 129.059 28.9062ZM137.162 37.1875C136.866 37.1875 136.584 37.1719 136.412 37.1562V35.9531C136.553 35.9688 136.866 35.9844 137.069 35.9844C137.616 35.9844 138.069 35.9375 138.522 34.7031L138.772 34.0625L135.631 25.5156H137.1L139.412 32.25H139.506L141.819 25.5156H143.287L139.694 35.2188C139.194 36.5469 138.366 37.1875 137.162 37.1875ZM149.931 28.9062V34H148.588V25.5156H149.884V26.8438H149.994C150.4 25.9844 151.181 25.4062 152.478 25.4062C154.197 25.4062 155.338 26.4531 155.338 28.6094V34H153.994V28.7031C153.994 27.3906 153.275 26.6094 152.072 26.6094C150.838 26.6094 149.931 27.4375 149.931 28.9062ZM160.863 34.1719C158.55 34.1719 156.988 32.4375 156.988 29.7969C156.988 27.1562 158.55 25.4062 160.863 25.4062C163.159 25.4062 164.706 27.1562 164.706 29.7969C164.706 32.4375 163.159 34.1719 160.863 34.1719ZM160.863 32.9844C162.566 32.9844 163.363 31.4844 163.363 29.7969C163.363 28.1094 162.566 26.5938 160.863 26.5938C159.128 26.5938 158.331 28.1094 158.331 29.7969C158.331 31.4844 159.128 32.9844 160.863 32.9844ZM175.006 27.7188C174.819 27.0156 174.288 26.5469 173.288 26.5469C172.241 26.5469 171.491 27.1094 171.491 27.8281C171.491 28.3906 171.944 28.7812 172.944 29.0156L174.209 29.3281C175.725 29.6875 176.475 30.4375 176.475 31.625C176.475 33.0938 175.272 34.1719 173.147 34.1719C171.241 34.1719 170.1 33.3281 169.881 31.7812H171.288C171.444 32.6094 172.053 33 173.116 33C174.319 33 175.084 32.5 175.084 31.7031C175.084 31.1094 174.663 30.7031 173.694 30.4844L172.413 30.1875C170.928 29.8438 170.147 29.0312 170.147 27.9062C170.147 26.4531 171.413 25.4062 173.288 25.4062C175.038 25.4062 176.147 26.3438 176.319 27.7188H175.006ZM179.469 28.9062V34H178.125V22.6875H179.469V26.8438H179.578C179.969 25.9688 180.734 25.4062 182.078 25.4062C183.812 25.4062 184.969 26.4375 184.969 28.6094V34H183.625V28.7031C183.625 27.375 182.891 26.6094 181.672 26.6094C180.406 26.6094 179.469 27.4375 179.469 28.9062ZM190.494 34.1719C188.181 34.1719 186.619 32.4375 186.619 29.7969C186.619 27.1562 188.181 25.4062 190.494 25.4062C192.791 25.4062 194.337 27.1562 194.337 29.7969C194.337 32.4375 192.791 34.1719 190.494 34.1719ZM190.494 32.9844C192.197 32.9844 192.994 31.4844 192.994 29.7969C192.994 28.1094 192.197 26.5938 190.494 26.5938C188.759 26.5938 187.962 28.1094 187.962 29.7969C187.962 31.4844 188.759 32.9844 190.494 32.9844ZM197.628 34L195.05 25.5156H196.472L198.284 31.9844H198.363L200.159 25.5156H201.597L203.363 31.9531H203.456L205.269 25.5156H206.675L204.097 34H202.769L200.925 27.5312H200.8L198.972 34H197.628ZM209.762 30.7344C209.778 28.6406 210.419 28 211.497 27.3438C212.137 26.9531 212.637 26.3281 212.637 25.4531C212.637 24.3906 211.809 23.7188 210.778 23.7188C209.887 23.7188 208.997 24.25 208.903 25.5312H207.481C207.559 23.6406 208.997 22.5312 210.778 22.5312C212.731 22.5312 214.012 23.7969 214.012 25.5156C214.012 26.7344 213.434 27.5938 212.466 28.1875C211.497 28.7812 211.137 29.375 211.106 30.7344V30.8125H209.762V30.7344ZM210.481 34.0938C209.934 34.0938 209.466 33.6406 209.481 33.0781C209.466 32.5312 209.934 32.0781 210.481 32.0781C211.028 32.0781 211.481 32.5312 211.481 33.0781C211.481 33.6406 211.028 34.0938 210.481 34.0938ZM220.959 22.7031L219.741 26.9531H218.584L219.444 22.7031H220.959ZM217.991 22.7031L216.772 26.9531H215.616L216.475 22.7031H217.991Z" fill="#1C1B1F"/>
<path d="M128.366 67.5C127.981 68.1667 127.019 68.1667 126.634 67.5L119.706 55.5C119.321 54.8333 119.802 54 120.572 54L134.428 54C135.198 54 135.679 54.8333 135.294 55.5L128.366 67.5Z" fill="#EBF3FF"/>
</svg>
