<svg width="203" height="68" viewBox="0 0 203 68" fill="none" xmlns="http://www.w3.org/2000/svg">
<rect x="0.5" width="202" height="56" rx="28" fill="#EBF3FF"/>
<path d="M44.7656 27.8281V28.8281H39.7344V22.7031H44.5938V23.7031H40.9688V27.8281H44.7656ZM33.0625 33.4844V32.4688H38.7656V29.5312H39.9688V32.4688H45.7812V33.4844H33.0625ZM34.1719 28.8281V22.7031H38.8906V23.7188H35.3906V27.8125C36.5625 27.8047 37.7266 27.7188 39.0156 27.4219L39.125 28.4531C37.6016 28.7969 36.3203 28.8359 34.9375 28.8281H34.1719ZM57.0344 31C60.0812 30.9922 61.8 31.7344 61.8156 33.1406C61.8 34.5156 60.0812 35.2344 57.0344 35.2344C53.9562 35.2344 52.2297 34.5156 52.2375 33.1406C52.2297 31.7344 53.9562 30.9922 57.0344 31ZM50.7062 30.125V29.1406H56.425V28.0547C53.925 27.9609 52.5187 27.2891 52.5187 26.0938C52.5187 24.7734 54.1516 24.1016 57.0344 24.0938C59.9094 24.1016 61.5344 24.7734 61.5344 26.0938C61.5344 27.2891 60.1359 27.9609 57.6437 28.0547V29.1406H63.3625V30.125H50.7062ZM51.3625 23.5312V22.5469H56.425V21.1875H57.6437V22.5469H62.6281V23.5312H51.3625ZM53.4875 33.1406C53.4953 33.8984 54.7766 34.3203 57.0344 34.3125C59.2844 34.3203 60.5656 33.8984 60.5656 33.1406C60.5656 32.3516 59.2844 31.9219 57.0344 31.9219C54.7766 31.9219 53.4953 32.3516 53.4875 33.1406ZM53.8312 26.0938C53.8234 26.7812 54.9953 27.1797 57.0344 27.1875C59.0734 27.1797 60.2297 26.7812 60.2375 26.0938C60.2297 25.3594 59.0734 24.9609 57.0344 24.9688C54.9953 24.9609 53.8234 25.3594 53.8312 26.0938ZM76.3094 21.375V35.2656H75.1375V27.9844H73.0906V34.5469H71.9656V21.6875H73.0906V26.9688H75.1375V21.375H76.3094ZM64.95 31.8281V23.0781H70.1531V24.0938H66.1688V30.7812C68.0828 30.7734 69.4031 30.7031 70.95 30.3906L71.0594 31.4219C69.3875 31.7656 67.9734 31.8203 65.8406 31.8281H64.95ZM81.8812 22.4531C83.9281 22.4609 85.3812 24.3438 85.3969 27.2969C85.3812 30.2578 83.9281 32.1328 81.8812 32.125C79.8187 32.1328 78.3734 30.2578 78.3812 27.2969C78.3734 24.3438 79.8187 22.4609 81.8812 22.4531ZM79.5375 27.2969C79.5453 29.5547 80.5062 31.0391 81.8812 31.0312C83.2719 31.0391 84.2094 29.5547 84.2094 27.2969C84.2094 25.0391 83.2719 23.5547 81.8812 23.5469C80.5062 23.5547 79.5453 25.0391 79.5375 27.2969ZM87.6937 35.2656V21.375H88.9125V24.875H91.1625V25.9219H88.9125V29.0156H91.1625V30.0469H88.9125V35.2656H87.6937ZM94.1094 30.7344C94.125 28.6406 94.7656 28 95.8438 27.3438C96.4922 26.9531 96.9844 26.3281 96.9844 25.4531C96.9844 24.3906 96.1562 23.7109 95.125 23.7188C94.2344 23.7109 93.3359 24.2422 93.25 25.5312H91.8281C91.9062 23.6328 93.3359 22.5312 95.125 22.5312C97.0859 22.5312 98.3594 23.7891 98.3594 25.5156C98.3594 26.7422 97.7812 27.5938 96.8125 28.1875C95.8359 28.7812 95.4844 29.3828 95.4531 30.7344V30.8125H94.1094V30.7344ZM93.8281 33.0781C93.8125 32.5312 94.2812 32.0781 94.8281 32.0781C95.3828 32.0781 95.8359 32.5312 95.8281 33.0781C95.8359 33.6328 95.3828 34.0859 94.8281 34.0938C94.2812 34.0859 93.8125 33.6328 93.8281 33.0781ZM114.909 21.375V35.2969H113.675V26.9844H109.347V25.9688H113.675V21.375H114.909ZM104.144 31.9219V22.9375H105.378V30.8906C107.503 30.8672 109.386 30.7578 111.472 30.3281L111.628 31.3438C109.409 31.8047 107.456 31.9219 105.206 31.9219H104.144ZM129.809 29.4531V30.4688H124.012V35.2656H122.809V30.4688H117.091V29.4531H129.809ZM118.731 27.5625V22.1562H128.153V27.5625H118.731ZM119.934 26.5938H126.934V23.1562H119.934V26.5938ZM141.781 22.5938V25.2656H145.031V21.3906H146.266V31.5312H145.031V26.2656H141.781V29.0312H135.406V22.5938H141.781ZM136.625 28.0469H140.578V23.6094H136.625V28.0469ZM137.344 34.9688V30.5938H138.578V33.9375H146.656V34.9688H137.344ZM160.369 21.375V35.2656H159.181V21.375H160.369ZM149.025 31.9219V23.0938H154.259V24.1094H150.213V30.8906C152.22 30.875 153.486 30.8047 154.978 30.4688L155.103 31.5156C153.494 31.8438 152.134 31.9141 149.9 31.9219H149.025ZM153.322 27.7188V26.6875H156.353V21.7188H157.525V34.5469H156.353V27.7188H153.322ZM163.675 34.0938C163.128 34.0859 162.659 33.6328 162.675 33.0781C162.659 32.5312 163.128 32.0781 163.675 32.0781C164.23 32.0781 164.683 32.5312 164.675 33.0781C164.683 33.6328 164.23 34.0859 163.675 34.0938ZM167.637 34.0938C167.091 34.0859 166.622 33.6328 166.637 33.0781C166.622 32.5312 167.091 32.0781 167.637 32.0781C168.192 32.0781 168.645 32.5312 168.637 33.0781C168.645 33.6328 168.192 34.0859 167.637 34.0938Z" fill="#1C1B1F"/>
<path d="M102.366 67.5C101.981 68.1667 101.019 68.1667 100.634 67.5L93.7058 55.5C93.3209 54.8333 93.802 54 94.5718 54L108.428 54C109.198 54 109.679 54.8333 109.294 55.5L102.366 67.5Z" fill="#EBF3FF"/>
</svg>
