<svg width="33" height="32" viewBox="0 0 33 32" fill="none" xmlns="http://www.w3.org/2000/svg">
<g clip-path="url(#clip0_8601_66636)">
<path fill-rule="evenodd" clip-rule="evenodd" d="M29.5 16C29.5 23.1797 23.6797 29 16.5 29C9.3203 29 3.5 23.1797 3.5 16C3.5 8.8203 9.3203 3 16.5 3C23.6797 3 29.5 8.8203 29.5 16ZM15.3306 14.5422C15.0383 14.1208 14.4597 14.0162 14.0383 14.3086C13.617 14.6009 13.5124 15.1795 13.8047 15.6008C14.2721 16.2745 15.1565 16.8113 16.1197 16.9375C17.1486 17.0723 18.2925 16.7414 19.1592 15.6484C19.4778 15.2466 19.4104 14.6625 19.0085 14.3439C18.6067 14.0253 18.0226 14.0927 17.704 14.4946C17.2691 15.043 16.7861 15.1518 16.361 15.0961C15.8702 15.0318 15.4733 14.7479 15.3306 14.5422ZM13.1186 11.8936C13.1186 12.5604 12.578 13.101 11.9112 13.101C11.2443 13.101 10.7037 12.5604 10.7037 11.8936C10.7037 11.2267 11.2443 10.6861 11.9112 10.6861C12.578 10.6861 13.1186 11.2267 13.1186 11.8936ZM21.0885 13.101C21.7554 13.101 22.296 12.5604 22.296 11.8936C22.296 11.2267 21.7554 10.6861 21.0885 10.6861C20.4216 10.6861 19.881 11.2267 19.881 11.8936C19.881 12.5604 20.4216 13.101 21.0885 13.101Z" fill="currentColor"/>
</g>
<defs>
<clipPath id="clip0_8601_66636">
<rect width="32" height="32" fill="white" transform="translate(0.5)"/>
</clipPath>
</defs>
</svg>
