<svg width="375" height="60" viewBox="0 0 375 60" fill="none" xmlns="http://www.w3.org/2000/svg">
<path d="M97.5504 22V7.85938H100.48V13.7188H106.613V7.85938H109.562V22H106.613V16.1406H100.48V22H97.5504ZM111.279 19.0312C111.279 16.668 113.193 15.8867 115.224 15.7695C115.986 15.7207 117.411 15.6523 117.861 15.6328V14.7734C117.841 13.8945 117.236 13.3672 116.161 13.3672C115.185 13.3672 114.56 13.8164 114.404 14.5391H111.65C111.825 12.7031 113.427 11.2578 116.239 11.2578C118.544 11.2578 120.732 12.293 120.732 14.8516V22H117.997V20.5352H117.919C117.392 21.5117 116.396 22.1953 114.814 22.1953C112.782 22.1953 111.279 21.1406 111.279 19.0312ZM114.052 18.9531C114.052 19.7734 114.716 20.2031 115.634 20.2031C116.943 20.2031 117.88 19.3242 117.861 18.2109V17.4297C117.421 17.4492 116.191 17.5176 115.693 17.5664C114.696 17.6641 114.052 18.1328 114.052 18.9531ZM132.292 11.3945L128.561 22H125.319L121.608 11.3945H124.655L126.882 19.0117H126.999L129.225 11.3945H132.292ZM138.051 22.2148C134.809 22.2148 132.817 20.1055 132.817 16.7461C132.817 13.4648 134.829 11.2578 137.934 11.2578C140.727 11.2578 142.914 13.0156 142.914 16.6289V17.4492H135.668C135.668 19.0508 136.625 20.0469 138.11 20.0469C139.086 20.0469 139.789 19.6172 140.082 18.9727H142.836C142.426 20.9258 140.668 22.2148 138.051 22.2148ZM135.668 15.6328H140.18C140.18 14.3438 139.282 13.4258 137.993 13.4258C136.664 13.4258 135.717 14.4121 135.668 15.6328ZM154.785 11.3945V13.5625H152.675V22H149.785V13.5625H148.281V11.3945H149.785V10.5938C149.785 8.36719 151.132 7.19531 153.261 7.19531C153.925 7.19531 154.472 7.25391 154.98 7.37109V9.55859C154.57 9.51953 154.257 9.5 154.101 9.5C153.164 9.5 152.675 9.87109 152.675 10.75V11.3945H154.785ZM163.181 17.4883V11.3945H166.071V22H163.298V20.0859H163.181C162.693 21.3164 161.56 22.1367 159.958 22.1367C157.829 22.1367 156.384 20.6328 156.384 18.1523V11.3945H159.275V17.6445C159.275 18.8945 159.997 19.6953 161.13 19.6953C162.185 19.6953 163.181 18.9336 163.181 17.4883ZM171.108 15.8672V22H168.218V11.3945H170.971V13.25H171.089C171.577 12.0195 172.71 11.2578 174.272 11.2578C176.479 11.2578 177.944 12.7617 177.925 15.2422V22H175.054V15.75C175.054 14.4414 174.331 13.6602 173.139 13.6602C171.929 13.6602 171.108 14.4609 171.108 15.8672ZM189.346 26.1992C186.416 26.1992 184.619 24.8906 184.443 22.8789H187.295C187.451 23.7188 188.252 24.1094 189.404 24.1094C190.752 24.1094 191.65 23.543 191.65 22.0586V20.125H191.514C191.123 20.9844 190.186 21.8438 188.486 21.8438C186.084 21.8438 184.17 20.1641 184.17 16.6289C184.17 13.0352 186.143 11.2578 188.486 11.2578C190.264 11.2578 191.123 12.3125 191.514 13.1719H191.631V11.3945H194.502V22.1172C194.502 24.8125 192.354 26.1992 189.346 26.1992ZM189.385 19.6758C190.83 19.6758 191.65 18.543 191.65 16.668C191.65 14.7734 190.83 13.5625 189.385 13.5625C187.92 13.5625 187.139 14.832 187.139 16.668C187.139 18.5039 187.92 19.6758 189.385 19.6758ZM196.14 19.0312C196.14 16.668 198.054 15.8867 200.086 15.7695C200.847 15.7207 202.273 15.6523 202.722 15.6328V14.7734C202.703 13.8945 202.097 13.3672 201.023 13.3672C200.046 13.3672 199.421 13.8164 199.265 14.5391H196.511C196.687 12.7031 198.289 11.2578 201.101 11.2578C203.406 11.2578 205.593 12.293 205.593 14.8516V22H202.859V20.5352H202.781C202.254 21.5117 201.257 22.1953 199.675 22.1953C197.644 22.1953 196.14 21.1406 196.14 19.0312ZM198.914 18.9531C198.914 19.7734 199.578 20.2031 200.496 20.2031C201.804 20.2031 202.742 19.3242 202.722 18.2109V17.4297C202.283 17.4492 201.052 17.5176 200.554 17.5664C199.558 17.6641 198.914 18.1328 198.914 18.9531ZM213.286 11.3945V13.5625H211.294V18.7383C211.294 19.5781 211.704 19.793 212.29 19.8125C212.583 19.8125 213.091 19.793 213.443 19.7539V22.0391C213.13 22.0977 212.622 22.1367 211.9 22.1367C209.81 22.1367 208.384 21.1992 208.404 19.1484V13.5625H206.939V11.3945H208.404V8.85547H211.294V11.3945H213.286ZM218.128 15.8672V22H215.237V7.85938H218.05V13.25H218.167C218.655 12.0195 219.729 11.2578 221.331 11.2578C223.538 11.2578 225.003 12.7422 225.003 15.2422V22H222.112V15.75C222.112 14.4414 221.409 13.6602 220.198 13.6602C218.987 13.6602 218.128 14.4609 218.128 15.8672ZM231.934 22.2148C228.692 22.2148 226.7 20.1055 226.7 16.7461C226.7 13.4648 228.711 11.2578 231.817 11.2578C234.61 11.2578 236.797 13.0156 236.797 16.6289V17.4492H229.551C229.551 19.0508 230.508 20.0469 231.993 20.0469C232.969 20.0469 233.672 19.6172 233.965 18.9727H236.719C236.309 20.9258 234.551 22.2148 231.934 22.2148ZM229.551 15.6328H234.063C234.063 14.3438 233.164 13.4258 231.875 13.4258C230.547 13.4258 229.6 14.4121 229.551 15.6328ZM238.514 22V11.3945H241.307V13.2305H241.424C241.814 11.9219 242.791 11.2383 243.982 11.2383C244.275 11.2383 244.646 11.2773 244.9 11.3359V13.9141C244.627 13.8359 244.08 13.7578 243.67 13.7578C242.361 13.7578 241.404 14.6758 241.404 15.9648V22H238.514ZM246.207 22V11.3945H249.097V22H246.207ZM247.652 10.0078C246.773 10.0078 246.07 9.34375 246.07 8.54297C246.07 7.72266 246.773 7.05859 247.652 7.05859C248.511 7.05859 249.214 7.72266 249.214 8.54297C249.214 9.34375 248.511 10.0078 247.652 10.0078ZM254.134 15.8672V22H251.243V11.3945H253.997V13.25H254.114C254.603 12.0195 255.736 11.2578 257.298 11.2578C259.505 11.2578 260.97 12.7617 260.95 15.2422V22H258.079V15.75C258.079 14.4414 257.357 13.6602 256.165 13.6602C254.954 13.6602 254.134 14.4609 254.134 15.8672ZM267.862 26.1992C264.932 26.1992 263.136 24.8906 262.96 22.8789H265.811C265.968 23.7188 266.768 24.1094 267.921 24.1094C269.268 24.1094 270.167 23.543 270.167 22.0586V20.125H270.03C269.639 20.9844 268.702 21.8438 267.003 21.8438C264.6 21.8438 262.686 20.1641 262.686 16.6289C262.686 13.0352 264.659 11.2578 267.003 11.2578C268.78 11.2578 269.639 12.3125 270.03 13.1719H270.147V11.3945H273.018V22.1172C273.018 24.8125 270.87 26.1992 267.862 26.1992ZM267.901 19.6758C269.346 19.6758 270.167 18.543 270.167 16.668C270.167 14.7734 269.346 13.5625 267.901 13.5625C266.436 13.5625 265.655 14.832 265.655 16.668C265.655 18.5039 266.436 19.6758 267.901 19.6758ZM72.384 52L69.4934 41.3945H72.423L74.0832 48.5625H74.1809L75.9191 41.3945H78.7902L80.548 48.5234H80.6457L82.2863 41.3945H85.216L82.3059 52H79.259L77.423 45.2617H77.2863L75.4504 52H72.384ZM86.5809 52V41.3945H89.4715V52H86.5809ZM88.0262 40.0078C87.1473 40.0078 86.4441 39.3438 86.4441 38.543C86.4441 37.7227 87.1473 37.0586 88.0262 37.0586C88.8855 37.0586 89.5887 37.7227 89.5887 38.543C89.5887 39.3438 88.8855 40.0078 88.0262 40.0078ZM97.2035 41.3945V43.5625H95.2113V48.7383C95.2113 49.5781 95.6215 49.793 96.2074 49.8125C96.5004 49.8125 97.0082 49.793 97.3598 49.7539V52.0391C97.0473 52.0977 96.5395 52.1367 95.8168 52.1367C93.727 52.1367 92.3012 51.1992 92.3207 49.1484V43.5625H90.8559V41.3945H92.3207V38.8555H95.2113V41.3945H97.2035ZM102.045 45.8672V52H99.1543V37.8594H101.967V43.25H102.084C102.572 42.0195 103.646 41.2578 105.248 41.2578C107.455 41.2578 108.92 42.7422 108.92 45.2422V52H106.029V45.75C106.029 44.4414 105.326 43.6602 104.115 43.6602C102.904 43.6602 102.045 44.4609 102.045 45.8672ZM118.446 37.8594V52H115.556V37.8594H118.446ZM125.358 52.2148C122.155 52.2148 120.163 50.0078 120.163 46.7266C120.163 43.4453 122.155 41.2578 125.358 41.2578C128.561 41.2578 130.573 43.4453 130.573 46.7266C130.573 50.0078 128.561 52.2148 125.358 52.2148ZM125.378 49.9688C126.862 49.9688 127.624 48.582 127.624 46.7266C127.624 44.8516 126.862 43.4648 125.378 43.4648C123.874 43.4648 123.093 44.8516 123.093 46.7266C123.093 48.582 123.874 49.9688 125.378 49.9688ZM137.055 52.2148C133.813 52.2148 131.86 49.9688 131.86 46.7266C131.86 43.4844 133.832 41.2578 137.055 41.2578C139.789 41.2578 141.645 42.8594 141.762 45.2812H139.047C138.871 44.2266 138.188 43.5039 137.094 43.5039C135.707 43.5039 134.789 44.6758 134.789 46.6875C134.789 48.7383 135.688 49.9102 137.094 49.9102C138.11 49.9102 138.871 49.2852 139.047 48.1523H141.762C141.625 50.5547 139.868 52.2148 137.055 52.2148ZM142.951 49.0312C142.951 46.668 144.865 45.8867 146.896 45.7695C147.658 45.7207 149.084 45.6523 149.533 45.6328V44.7734C149.514 43.8945 148.908 43.3672 147.834 43.3672C146.857 43.3672 146.232 43.8164 146.076 44.5391H143.322C143.498 42.7031 145.1 41.2578 147.912 41.2578C150.217 41.2578 152.404 42.293 152.404 44.8516V52H149.67V50.5352H149.592C149.064 51.5117 148.068 52.1953 146.486 52.1953C144.455 52.1953 142.951 51.1406 142.951 49.0312ZM145.725 48.9531C145.725 49.7734 146.389 50.2031 147.307 50.2031C148.615 50.2031 149.553 49.3242 149.533 48.2109V47.4297C149.094 47.4492 147.863 47.5176 147.365 47.5664C146.369 47.6641 145.725 48.1328 145.725 48.9531ZM157.402 37.8594V52H154.511V37.8594H157.402ZM169.702 41.3945V43.5625H167.593V52H164.702V43.5625H163.198V41.3945H164.702V40.5938C164.702 38.3672 166.05 37.1953 168.179 37.1953C168.843 37.1953 169.389 37.2539 169.897 37.3711V39.5586C169.487 39.5195 169.175 39.5 169.018 39.5C168.081 39.5 167.593 39.8711 167.593 40.75V41.3945H169.702ZM175.676 52.2148C172.473 52.2148 170.481 50.0078 170.481 46.7266C170.481 43.4453 172.473 41.2578 175.676 41.2578C178.879 41.2578 180.891 43.4453 180.891 46.7266C180.891 50.0078 178.879 52.2148 175.676 52.2148ZM175.696 49.9688C177.18 49.9688 177.942 48.582 177.942 46.7266C177.942 44.8516 177.18 43.4648 175.696 43.4648C174.192 43.4648 173.411 44.8516 173.411 46.7266C173.411 48.582 174.192 49.9688 175.696 49.9688ZM182.607 52V41.3945H185.4V43.2305H185.518C185.908 41.9219 186.885 41.2383 188.076 41.2383C188.369 41.2383 188.74 41.2773 188.994 41.3359V43.9141C188.721 43.8359 188.174 43.7578 187.764 43.7578C186.455 43.7578 185.498 44.6758 185.498 45.9648V52H182.607ZM194.773 52.2148C191.531 52.2148 189.539 50.1055 189.539 46.7461C189.539 43.4648 191.55 41.2578 194.656 41.2578C197.449 41.2578 199.636 43.0156 199.636 46.6289V47.4492H192.39C192.39 49.0508 193.347 50.0469 194.832 50.0469C195.808 50.0469 196.511 49.6172 196.804 48.9727H199.558C199.148 50.9258 197.39 52.2148 194.773 52.2148ZM192.39 45.6328H196.902C196.902 44.3438 196.004 43.4258 194.714 43.4258C193.386 43.4258 192.439 44.4121 192.39 45.6328ZM201.353 52V41.3945H204.243V52H201.353ZM202.798 40.0078C201.919 40.0078 201.216 39.3438 201.216 38.543C201.216 37.7227 201.919 37.0586 202.798 37.0586C203.657 37.0586 204.361 37.7227 204.361 38.543C204.361 39.3438 203.657 40.0078 202.798 40.0078ZM211.155 56.1992C208.225 56.1992 206.429 54.8906 206.253 52.8789H209.104C209.261 53.7188 210.061 54.1094 211.214 54.1094C212.561 54.1094 213.46 53.543 213.46 52.0586V50.125H213.323C212.932 50.9844 211.995 51.8438 210.296 51.8438C207.893 51.8438 205.979 50.1641 205.979 46.6289C205.979 43.0352 207.952 41.2578 210.296 41.2578C212.073 41.2578 212.932 42.3125 213.323 43.1719H213.44V41.3945H216.311V52.1172C216.311 54.8125 214.163 56.1992 211.155 56.1992ZM211.194 49.6758C212.639 49.6758 213.46 48.543 213.46 46.668C213.46 44.7734 212.639 43.5625 211.194 43.5625C209.729 43.5625 208.948 44.832 208.948 46.668C208.948 48.5039 209.729 49.6758 211.194 49.6758ZM221.348 45.8672V52H218.457V41.3945H221.211V43.25H221.329C221.817 42.0195 222.95 41.2578 224.512 41.2578C226.719 41.2578 228.184 42.7617 228.164 45.2422V52H225.293V45.75C225.293 44.4414 224.571 43.6602 223.379 43.6602C222.168 43.6602 221.348 44.4609 221.348 45.8672ZM240.464 41.3945V43.5625H238.355V52H235.464V43.5625H233.961V41.3945H235.464V40.5938C235.464 38.3672 236.812 37.1953 238.941 37.1953C239.605 37.1953 240.152 37.2539 240.66 37.3711V39.5586C240.25 39.5195 239.937 39.5 239.781 39.5C238.843 39.5 238.355 39.8711 238.355 40.75V41.3945H240.464ZM242.064 52V41.3945H244.857V43.2305H244.974C245.364 41.9219 246.341 41.2383 247.532 41.2383C247.825 41.2383 248.196 41.2773 248.45 41.3359V43.9141C248.177 43.8359 247.63 43.7578 247.22 43.7578C245.911 43.7578 244.954 44.6758 244.954 45.9648V52H242.064ZM249.757 52V41.3945H252.647V52H249.757ZM251.202 40.0078C250.323 40.0078 249.62 39.3438 249.62 38.543C249.62 37.7227 250.323 37.0586 251.202 37.0586C252.061 37.0586 252.764 37.7227 252.764 38.543C252.764 39.3438 252.061 40.0078 251.202 40.0078ZM259.598 52.2148C256.356 52.2148 254.364 50.1055 254.364 46.7461C254.364 43.4648 256.375 41.2578 259.481 41.2578C262.274 41.2578 264.461 43.0156 264.461 46.6289V47.4492H257.215C257.215 49.0508 258.172 50.0469 259.657 50.0469C260.633 50.0469 261.336 49.6172 261.629 48.9727H264.383C263.973 50.9258 262.215 52.2148 259.598 52.2148ZM257.215 45.6328H261.727C261.727 44.3438 260.829 43.4258 259.539 43.4258C258.211 43.4258 257.264 44.4121 257.215 45.6328ZM269.068 45.8672V52H266.178V41.3945H268.932V43.25H269.049C269.537 42.0195 270.67 41.2578 272.232 41.2578C274.439 41.2578 275.904 42.7617 275.885 45.2422V52H273.014V45.75C273.014 44.4414 272.291 43.6602 271.1 43.6602C269.889 43.6602 269.068 44.4609 269.068 45.8672ZM281.937 52.1758C279.515 52.1758 277.621 50.2422 277.621 46.707C277.621 43.0742 279.593 41.2578 281.937 41.2578C283.714 41.2578 284.554 42.3125 284.945 43.1719H285.043V37.8594H287.933V52H285.082V50.3008H284.945C284.535 51.1797 283.656 52.1758 281.937 52.1758ZM282.836 49.8711C284.281 49.8711 285.101 48.6016 285.101 46.6875C285.101 44.7734 284.281 43.5625 282.836 43.5625C281.371 43.5625 280.589 44.832 280.589 46.6875C280.589 48.5625 281.371 49.8711 282.836 49.8711ZM296.212 44.5391C296.095 43.7969 295.431 43.3086 294.474 43.3086C293.536 43.3086 292.814 43.7578 292.833 44.4023C292.814 44.8711 293.204 45.2422 294.2 45.457L296.095 45.8477C298.146 46.2773 299.142 47.1953 299.161 48.7188C299.142 50.8086 297.267 52.2148 294.454 52.2148C291.583 52.2148 289.904 50.9258 289.669 48.8555H292.579C292.716 49.6953 293.4 50.125 294.454 50.125C295.509 50.125 296.212 49.6953 296.212 49.0117C296.212 48.4648 295.763 48.1328 294.767 47.918L293.009 47.5664C290.997 47.1758 289.943 46.1211 289.962 44.5586C289.943 42.5273 291.7 41.2578 294.435 41.2578C297.111 41.2578 298.771 42.5273 298.927 44.5391H296.212ZM304.276 37.8594L304.022 47.7617H301.522L301.268 37.8594H304.276ZM302.792 52.1758C301.874 52.1758 301.132 51.4336 301.151 50.5352C301.132 49.6367 301.874 48.9141 302.792 48.9141C303.651 48.9141 304.413 49.6367 304.413 50.5352C304.413 51.4336 303.651 52.1758 302.792 52.1758Z" fill="#1C1B1F"/>
</svg>
