<svg width="181" height="48" viewBox="0 0 181 48" fill="none" xmlns="http://www.w3.org/2000/svg">
<path d="M14.5656 0.0234375V6.83984H17.0852V8.89062H14.5656V17.7578H12.0656V0.0234375H14.5656ZM0.346878 12.7773C4.55586 10.668 6.82149 7.83594 7.29024 3.87109H1.3625V1.83984H9.81953C9.8 7.15234 7.72969 11.752 1.75313 14.6914L0.346878 12.7773ZM31.9656 0.0234375V6.99609H34.3289V9.04688H31.9656V17.7969H29.4656V0.0234375H31.9656ZM17.3758 12.6406C19.7977 10.0137 20.5008 7.41602 20.657 3.87109H18.157V1.83984H23.0398C23.0203 6.72266 22.5125 10.5312 19.3289 14.0273L17.3758 12.6406ZM22.3953 13.793C24.8074 10.8242 25.4715 7.77734 25.6082 3.87109H23.6258V1.83984H27.9617C27.952 6.9082 27.5125 11.3125 24.368 15.1797L22.3953 13.793ZM51.1625 8.67578V10.668H44.4242V13.7539H41.9047V10.668H34.893V8.67578H51.1625ZM36.5727 4.04688C36.5727 1.79102 39.1508 0.375 43.018 0.355469C46.8656 0.375 49.434 1.79102 49.4438 4.04688C49.434 6.3125 46.8656 7.71875 43.018 7.71875C39.1508 7.71875 36.5727 6.3125 36.5727 4.04688ZM36.8266 17.4844V12.1719H39.3461V15.4727H49.3656V17.4844H36.8266ZM39.268 4.04688C39.2582 5.13086 40.723 5.7168 43.018 5.72656C45.3129 5.7168 46.768 5.13086 46.768 4.04688C46.768 2.91406 45.3129 2.32812 43.018 2.32812C40.723 2.32812 39.2582 2.91406 39.268 4.04688ZM62.3688 1.07812C65.191 1.08789 67.2809 2.88477 67.2906 5.43359C67.2809 7.60156 65.777 9.22266 63.5992 9.67188V12.0645C65.1031 11.9766 66.6168 11.8496 68.0523 11.6445L68.2477 13.4414C64.3023 14.1934 60.0836 14.2227 56.9781 14.2227L56.6852 12.2109C57.9938 12.2109 59.5172 12.2012 61.1188 12.1621V9.66211C58.9508 9.21289 57.4176 7.5918 57.4273 5.43359C57.4176 2.88477 59.566 1.08789 62.3688 1.07812ZM59.9078 5.43359C59.898 6.81055 60.9625 7.66992 62.3688 7.66016C63.7848 7.66992 64.859 6.81055 64.8688 5.43359C64.859 4.01758 63.7848 3.2168 62.3688 3.20703C60.9625 3.2168 59.898 4.01758 59.9078 5.43359ZM69.068 17.8359V0.0234375H71.5484V17.8359H69.068ZM88.1281 0.804688V2.19141C88.1379 3.5 88.1379 5.00391 87.7668 6.91797H90.0617V8.91016H83.1477V11.4688H88.1477V17.7969H85.6477V13.4219H75.4328V11.4688H80.6477V8.91016H73.7922V6.91797H85.2473C85.5793 5.24805 85.6281 3.94922 85.6477 2.77734H75.7844V0.804688H88.1281ZM105.86 0.0429688V12.8164H103.36V0.0429688H105.86ZM91.2508 5.64844C91.2508 3.04102 93.3797 1.16602 96.1141 1.17578C98.8387 1.16602 100.968 3.04102 100.977 5.64844C100.968 8.29492 98.8387 10.1602 96.1141 10.1602C93.3797 10.1602 91.2508 8.29492 91.2508 5.64844ZM93.6922 5.64844C93.6727 7.13281 94.7176 7.99219 96.1141 7.99219C97.4617 7.99219 98.5066 7.13281 98.5164 5.64844C98.5066 4.20312 97.4617 3.33398 96.1141 3.34375C94.7176 3.33398 93.6727 4.20312 93.6922 5.64844ZM93.9461 17.4844V11.5273H96.4656V15.4922H106.329V17.4844H93.9461ZM127.555 0.0429688V13.0312H125.055V0.0429688H127.555ZM112.828 9.22266C115.768 8.36328 117.076 6.27344 117.066 4.16406V4.02734H113.434V2.09375H117.066V0.121094H119.605V2.09375H123.219V4.02734H119.586V4.16406C119.566 6.14648 120.914 8.11914 123.844 8.91016L122.652 10.8633C120.602 10.2969 119.186 9.11523 118.375 7.60156C117.574 9.25195 116.129 10.5605 114.02 11.1562L112.828 9.22266ZM115.641 17.4844V11.8789H118.16V15.4922H128.023V17.4844H115.641ZM144.173 1.05859V2.66016C144.164 4.32031 144.164 6.12695 143.714 8.61719H146.068V10.6289H139.134V17.8164H136.634V10.6289H129.857V8.61719H141.185C141.644 6.33203 141.683 4.58398 141.693 3.05078H131.713V1.05859H144.173ZM163.292 6.95703V8.91016H147.042V6.95703H163.292ZM148.917 11.8398V9.96484H161.28V14.6133H151.378V15.707H161.749V17.6406H148.937V12.8359H158.82V11.8398H148.917ZM149.073 5.98047V0.375H161.222V2.36719H151.554V4.02734H161.359V5.98047H149.073ZM174.227 1.80078V3.22656C174.208 4.89648 174.208 7.08398 173.739 10.043L171.278 9.84766C171.688 7.26953 171.727 5.36523 171.747 3.79297H165.009V1.80078H174.227ZM164.071 12.1719C165.067 12.1719 166.18 12.1621 167.333 12.1328V6.89844H169.794V12.0547C171.542 11.9863 173.309 11.8594 174.95 11.6445L175.106 13.5C171.444 14.1152 167.421 14.1836 164.305 14.1641L164.071 12.1719ZM175.79 17.7969V0.0234375H178.309V7.17188H180.731V9.24219H178.309V17.7969H175.79ZM33.2352 43.6758V45.7266H16.9656V43.6758H23.8211V40.043H18.6844V31.332H31.4187V40.043H26.3016V43.6758H33.2352ZM21.1453 38.0898H28.9578V33.3242H21.1453V38.0898ZM49.0336 30.043V40.082H46.5336V30.043H49.0336ZM34.4242 35.1406C34.4242 32.6016 36.5141 30.8438 39.2875 30.8438C42.0512 30.8438 44.141 32.6016 44.1508 35.1406C44.141 37.582 42.0512 39.3789 39.2875 39.3789C36.5141 39.3789 34.4242 37.582 34.4242 35.1406ZM36.8656 35.1406C36.8461 36.459 37.8617 37.2891 39.2875 37.2891C40.6742 37.2891 41.6801 36.459 41.6898 35.1406C41.6801 33.7441 40.6742 32.9336 39.2875 32.9336C37.8617 32.9336 36.8461 33.7441 36.8656 35.1406ZM37.1195 47.6016V40.8828H49.0336V47.6016H37.1195ZM39.5805 45.6094H46.5922V42.8555H39.5805V45.6094ZM59.4414 30.2773C63.5332 30.2773 65.8965 31.3516 65.9062 33.3047C65.8965 35.2871 63.5332 36.3516 59.4414 36.3516C55.3398 36.3516 52.957 35.2871 52.957 33.3047C52.957 31.3516 55.3398 30.2773 59.4414 30.2773ZM51.3359 39.1641V37.1914H67.5469V39.1641H51.3359ZM53.2109 42.0156V40.1992H65.5742V44.7305H55.6719V45.8047H66.043V47.6797H53.2305V42.9922H63.1133V42.0156H53.2109ZM55.5742 33.3047C55.5644 34.1738 56.834 34.5156 59.4414 34.5156C62.0684 34.5156 63.3281 34.1738 63.3281 33.3047C63.3281 32.5137 62.0684 32.0938 59.4414 32.0938C56.834 32.0938 55.5644 32.5137 55.5742 33.3047ZM89.2414 37.25V39.2227H73.0305V37.25H89.2414ZM73.7531 34.8477C77.0734 34.6426 78.9289 33.627 79.4758 32.543H74.5148V30.5898H87.7766V32.543H82.7668C83.3137 33.6367 85.1887 34.6426 88.5383 34.8477L87.757 36.7617C84.466 36.5176 82.1809 35.4824 81.1164 33.9883C80.0519 35.4727 77.7961 36.5176 74.5344 36.7617L73.7531 34.8477ZM74.9055 42.0156V40.1992H87.2687V44.7305H77.3664V45.8047H87.7375V47.6797H74.925V42.9922H84.8078V42.0156H74.9055ZM99.3172 31.8789C99.3172 32.8066 99.2586 33.7148 99.1219 34.5938H102.716V30.0039H105.196V47.7969H102.716V41.4102H98.4187V39.418H102.716V36.5664H98.6824C97.7059 39.8574 95.4793 42.6699 91.3094 44.7305L90.0203 42.7578C94.2781 40.5898 96.368 37.7676 96.7781 33.832H90.8797V31.8789H99.3172ZM123.67 43.6953V45.7266H107.401V43.6953H114.256V40.4141H109.12V31.1562H111.62V33.9102H119.373V31.1562H121.854V40.4141H116.737V43.6953H123.67ZM111.62 38.4219H119.373V35.9023H111.62V38.4219ZM130.289 34.4961C130.279 37.377 131.08 40.3457 133.512 41.8984L132.164 43.832C130.621 42.9043 129.654 41.3613 129.088 39.5449C128.453 41.5566 127.389 43.2461 125.777 44.2227L124.254 42.3867C126.891 40.7559 127.867 37.6211 127.867 34.6133V31.5469H130.289V34.4961ZM131.637 38.0508V36.0195H133.941V30.2773H136.266V46.9766H133.941V38.0508H131.637ZM137.613 47.7969V30.0234H139.996V47.7969H137.613ZM158.041 43.6758V45.7266H141.771V43.6758H145.404V39.3203C144.027 38.4902 143.197 37.2305 143.197 35.668C143.197 32.7871 146.009 30.8926 149.877 30.8828C153.724 30.8926 156.566 32.7871 156.576 35.668C156.566 37.2012 155.765 38.4414 154.427 39.2715V43.6758H158.041ZM145.658 35.668C145.658 37.4062 147.328 38.4805 149.877 38.4805C152.386 38.4805 154.105 37.4062 154.115 35.668C154.105 33.8809 152.386 32.8457 149.877 32.8555C147.328 32.8457 145.658 33.8809 145.658 35.668ZM147.865 43.6758H151.908V40.2188C151.273 40.3457 150.589 40.4141 149.877 40.4141C149.164 40.4141 148.49 40.3457 147.865 40.2285V43.6758ZM162.999 31.8594L162.745 41.7617H160.245L159.991 31.8594H162.999ZM159.874 44.5352C159.855 43.6367 160.597 42.9043 161.515 42.9141C162.384 42.9043 163.136 43.6367 163.136 44.5352C163.136 45.4434 162.384 46.1758 161.515 46.1758C160.597 46.1758 159.855 45.4434 159.874 44.5352Z" fill="#1C1B1F"/>
</svg>
