<svg width="375" height="60" viewBox="0 0 375 60" fill="none" xmlns="http://www.w3.org/2000/svg">
<path d="M50.5875 22V7.85938H56.1344C59.357 7.85938 61.193 9.83203 61.193 12.625C61.193 15.457 59.318 17.3906 56.0562 17.3906H53.5172V22H50.5875ZM53.5172 15.0273H55.5875C57.3258 15.0273 58.1656 14.0508 58.1656 12.625C58.1656 11.2188 57.3258 10.2617 55.5875 10.2617H53.5172V15.0273ZM62.8898 22V11.3945H65.6828V13.2305H65.8C66.1906 11.9219 67.1672 11.2383 68.3586 11.2383C68.6516 11.2383 69.0226 11.2773 69.2766 11.3359V13.9141C69.0031 13.8359 68.4562 13.7578 68.0461 13.7578C66.7375 13.7578 65.7805 14.6758 65.7805 15.9648V22H62.8898ZM75.0555 22.2148C71.8133 22.2148 69.8211 20.1055 69.8211 16.7461C69.8211 13.4648 71.8328 11.2578 74.9383 11.2578C77.7312 11.2578 79.9187 13.0156 79.9187 16.6289V17.4492H72.6726C72.6726 19.0508 73.6297 20.0469 75.1141 20.0469C76.0906 20.0469 76.7937 19.6172 77.0867 18.9727H79.8406C79.4305 20.9258 77.6726 22.2148 75.0555 22.2148ZM72.6726 15.6328H77.1844C77.1844 14.3438 76.2859 13.4258 74.9969 13.4258C73.6687 13.4258 72.7215 14.4121 72.6726 15.6328ZM81.6352 25.9844V11.3945H84.4867V13.1719H84.6039C84.9945 12.3125 85.8539 11.2578 87.6312 11.2578C89.975 11.2578 91.9281 13.0742 91.9281 16.707C91.9281 20.2422 90.0531 22.1758 87.6312 22.1758C85.893 22.1758 85.0141 21.1797 84.6039 20.3008H84.5258V25.9844H81.6352ZM84.4672 16.6875C84.4672 18.6016 85.2875 19.8711 86.7133 19.8711C88.1977 19.8711 88.9789 18.5625 88.9789 16.6875C88.9789 14.832 88.1977 13.5625 86.7133 13.5625C85.268 13.5625 84.4672 14.7734 84.4672 16.6875ZM93.7031 25.9844V11.3945H96.5547V13.1719H96.6719C97.0625 12.3125 97.9219 11.2578 99.6992 11.2578C102.043 11.2578 103.996 13.0742 103.996 16.707C103.996 20.2422 102.121 22.1758 99.6992 22.1758C97.9609 22.1758 97.082 21.1797 96.6719 20.3008H96.5937V25.9844H93.7031ZM96.5351 16.6875C96.5351 18.6016 97.3555 19.8711 98.7812 19.8711C100.266 19.8711 101.047 18.5625 101.047 16.6875C101.047 14.832 100.266 13.5625 98.7812 13.5625C97.3359 13.5625 96.5351 14.7734 96.5351 16.6875ZM110.576 22.2148C107.334 22.2148 105.341 20.1055 105.341 16.7461C105.341 13.4648 107.353 11.2578 110.459 11.2578C113.252 11.2578 115.439 13.0156 115.439 16.6289V17.4492H108.193C108.193 19.0508 109.15 20.0469 110.634 20.0469C111.611 20.0469 112.314 19.6172 112.607 18.9727H115.361C114.951 20.9258 113.193 22.2148 110.576 22.2148ZM108.193 15.6328H112.705C112.705 14.3438 111.806 13.4258 110.517 13.4258C109.189 13.4258 108.242 14.4121 108.193 15.6328ZM121.062 22.1758C118.64 22.1758 116.745 20.2422 116.745 16.707C116.745 13.0742 118.718 11.2578 121.062 11.2578C122.839 11.2578 123.679 12.3125 124.07 13.1719H124.167V7.85938H127.058V22H124.206V20.3008H124.07C123.659 21.1797 122.78 22.1758 121.062 22.1758ZM121.96 19.8711C123.405 19.8711 124.226 18.6016 124.226 16.6875C124.226 14.7734 123.405 13.5625 121.96 13.5625C120.495 13.5625 119.714 14.832 119.714 16.6875C119.714 18.5625 120.495 19.8711 121.96 19.8711ZM139.436 11.3945V13.5625H137.327V22H134.436V13.5625H132.932V11.3945H134.436V10.5938C134.436 8.36719 135.784 7.19531 137.912 7.19531C138.577 7.19531 139.123 7.25391 139.631 7.37109V9.55859C139.221 9.51953 138.909 9.5 138.752 9.5C137.815 9.5 137.327 9.87109 137.327 10.75V11.3945H139.436ZM145.41 22.2148C142.207 22.2148 140.215 20.0078 140.215 16.7266C140.215 13.4453 142.207 11.2578 145.41 11.2578C148.613 11.2578 150.625 13.4453 150.625 16.7266C150.625 20.0078 148.613 22.2148 145.41 22.2148ZM145.43 19.9688C146.914 19.9688 147.676 18.582 147.676 16.7266C147.676 14.8516 146.914 13.4648 145.43 13.4648C143.926 13.4648 143.145 14.8516 143.145 16.7266C143.145 18.582 143.926 19.9688 145.43 19.9688ZM152.341 22V11.3945H155.134V13.2305H155.252C155.642 11.9219 156.619 11.2383 157.81 11.2383C158.103 11.2383 158.474 11.2773 158.728 11.3359V13.9141C158.455 13.8359 157.908 13.7578 157.498 13.7578C156.189 13.7578 155.232 14.6758 155.232 15.9648V22H152.341ZM164.544 22V11.3945H167.337V13.2305H167.454C167.845 11.9219 168.821 11.2383 170.012 11.2383C170.305 11.2383 170.677 11.2773 170.93 11.3359V13.9141C170.657 13.8359 170.11 13.7578 169.7 13.7578C168.391 13.7578 167.434 14.6758 167.434 15.9648V22H164.544ZM176.709 22.2148C173.467 22.2148 171.475 20.1055 171.475 16.7461C171.475 13.4648 173.487 11.2578 176.592 11.2578C179.385 11.2578 181.573 13.0156 181.573 16.6289V17.4492H174.327C174.327 19.0508 175.284 20.0469 176.768 20.0469C177.745 20.0469 178.448 19.6172 178.741 18.9727H181.495C181.084 20.9258 179.327 22.2148 176.709 22.2148ZM174.327 15.6328H178.838C178.838 14.3438 177.94 13.4258 176.651 13.4258C175.323 13.4258 174.375 14.4121 174.327 15.6328ZM186.18 7.85938V22H183.289V7.85938H186.18ZM188.326 22V11.3945H191.216V22H188.326ZM189.771 10.0078C188.892 10.0078 188.189 9.34375 188.189 8.54297C188.189 7.72266 188.892 7.05859 189.771 7.05859C190.63 7.05859 191.334 7.72266 191.334 8.54297C191.334 9.34375 190.63 10.0078 189.771 10.0078ZM192.855 19.0312C192.855 16.668 194.769 15.8867 196.8 15.7695C197.562 15.7207 198.987 15.6523 199.437 15.6328V14.7734C199.417 13.8945 198.812 13.3672 197.737 13.3672C196.761 13.3672 196.136 13.8164 195.98 14.5391H193.226C193.402 12.7031 195.003 11.2578 197.816 11.2578C200.12 11.2578 202.308 12.293 202.308 14.8516V22H199.573V20.5352H199.495C198.968 21.5117 197.972 22.1953 196.39 22.1953C194.359 22.1953 192.855 21.1406 192.855 19.0312ZM195.628 18.9531C195.628 19.7734 196.292 20.2031 197.21 20.2031C198.519 20.2031 199.456 19.3242 199.437 18.2109V17.4297C198.997 17.4492 197.767 17.5176 197.269 17.5664C196.273 17.6641 195.628 18.1328 195.628 18.9531ZM204.473 22V7.85938H207.364V13.1719H207.442C207.852 12.3125 208.692 11.2578 210.47 11.2578C212.813 11.2578 214.786 13.0742 214.786 16.707C214.786 20.2422 212.891 22.1758 210.47 22.1758C208.731 22.1758 207.852 21.1797 207.442 20.3008H207.325V22H204.473ZM207.305 16.6875C207.305 18.6016 208.126 19.8711 209.552 19.8711C211.036 19.8711 211.817 18.5625 211.817 16.6875C211.817 14.832 211.036 13.5625 209.552 13.5625C208.106 13.5625 207.305 14.7734 207.305 16.6875ZM219.432 7.85938V22H216.541V7.85938H219.432ZM226.383 22.2148C223.141 22.2148 221.148 20.1055 221.148 16.7461C221.148 13.4648 223.16 11.2578 226.266 11.2578C229.059 11.2578 231.246 13.0156 231.246 16.6289V17.4492H224C224 19.0508 224.957 20.0469 226.441 20.0469C227.418 20.0469 228.121 19.6172 228.414 18.9727H231.168C230.758 20.9258 229 22.2148 226.383 22.2148ZM224 15.6328H228.512C228.512 14.3438 227.613 13.4258 226.324 13.4258C224.996 13.4258 224.049 14.4121 224 15.6328ZM237.472 22V11.3945H240.226V13.25H240.343C240.792 12.0195 241.866 11.2578 243.292 11.2578C244.757 11.2578 245.831 12.0195 246.183 13.25H246.28C246.73 12.0391 247.921 11.2578 249.484 11.2578C251.456 11.2578 252.823 12.5664 252.823 14.8711V22H249.933V15.4375C249.933 14.2266 249.23 13.6406 248.273 13.6406C247.179 13.6406 246.554 14.4023 246.554 15.5156V22H243.741V15.3594C243.741 14.3047 243.077 13.6406 242.101 13.6406C241.124 13.6406 240.362 14.4219 240.362 15.6328V22H237.472ZM259.755 22.2148C256.512 22.2148 254.52 20.1055 254.52 16.7461C254.52 13.4648 256.532 11.2578 259.637 11.2578C262.43 11.2578 264.618 13.0156 264.618 16.6289V17.4492H257.372C257.372 19.0508 258.329 20.0469 259.813 20.0469C260.79 20.0469 261.493 19.6172 261.786 18.9727H264.54C264.13 20.9258 262.372 22.2148 259.755 22.2148ZM257.372 15.6328H261.884C261.884 14.3438 260.985 13.4258 259.696 13.4258C258.368 13.4258 257.421 14.4121 257.372 15.6328ZM271.139 22.2148C267.897 22.2148 265.905 20.1055 265.905 16.7461C265.905 13.4648 267.916 11.2578 271.022 11.2578C273.815 11.2578 276.002 13.0156 276.002 16.6289V17.4492H268.756C268.756 19.0508 269.713 20.0469 271.198 20.0469C272.174 20.0469 272.877 19.6172 273.17 18.9727H275.924C275.514 20.9258 273.756 22.2148 271.139 22.2148ZM268.756 15.6328H273.268C273.268 14.3438 272.37 13.4258 271.08 13.4258C269.752 13.4258 268.805 14.4121 268.756 15.6328ZM283.305 11.3945V13.5625H281.312V18.7383C281.312 19.5781 281.723 19.793 282.309 19.8125C282.602 19.8125 283.109 19.793 283.461 19.7539V22.0391C283.148 22.0977 282.641 22.1367 281.918 22.1367C279.828 22.1367 278.402 21.1992 278.422 19.1484V13.5625H276.957V11.3945H278.422V8.85547H281.312V11.3945H283.305ZM291.818 17.4883V11.3945H294.709V22H291.935V20.0859H291.818C291.33 21.3164 290.197 22.1367 288.595 22.1367C286.466 22.1367 285.021 20.6328 285.021 18.1523V11.3945H287.912V17.6445C287.912 18.8945 288.634 19.6953 289.767 19.6953C290.822 19.6953 291.818 18.9336 291.818 17.4883ZM296.855 25.9844V11.3945H299.706V13.1719H299.823C300.214 12.3125 301.073 11.2578 302.851 11.2578C305.195 11.2578 307.148 13.0742 307.148 16.707C307.148 20.2422 305.273 22.1758 302.851 22.1758C301.112 22.1758 300.234 21.1797 299.823 20.3008H299.745V25.9844H296.855ZM299.687 16.6875C299.687 18.6016 300.507 19.8711 301.933 19.8711C303.417 19.8711 304.198 18.5625 304.198 16.6875C304.198 14.832 303.417 13.5625 301.933 13.5625C300.487 13.5625 299.687 14.7734 299.687 16.6875ZM314.977 14.5391C314.86 13.7969 314.196 13.3086 313.239 13.3086C312.302 13.3086 311.579 13.7578 311.598 14.4023C311.579 14.8711 311.97 15.2422 312.966 15.457L314.86 15.8477C316.911 16.2773 317.907 17.1953 317.927 18.7188C317.907 20.8086 316.032 22.2148 313.22 22.2148C310.348 22.2148 308.669 20.9258 308.434 18.8555H311.345C311.481 19.6953 312.165 20.125 313.22 20.125C314.274 20.125 314.977 19.6953 314.977 19.0117C314.977 18.4648 314.528 18.1328 313.532 17.918L311.774 17.5664C309.762 17.1758 308.708 16.1211 308.727 14.5586C308.708 12.5273 310.466 11.2578 313.2 11.2578C315.876 11.2578 317.536 12.5273 317.692 14.5391H314.977ZM323.041 7.85938L322.788 17.7617H320.288L320.034 7.85938H323.041ZM321.557 22.1758C320.639 22.1758 319.897 21.4336 319.916 20.5352C319.897 19.6367 320.639 18.9141 321.557 18.9141C322.416 18.9141 323.178 19.6367 323.178 20.5352C323.178 21.4336 322.416 22.1758 321.557 22.1758Z" fill="#1C1B1F"/>
</svg>
