<svg width="375" height="60" viewBox="0 0 375 60" fill="none" xmlns="http://www.w3.org/2000/svg">
<path d="M132.41 7.07812V15.0859H123.718V7.07812H132.41ZM125.847 23.6016V16.9023H137.8V18.8945H128.308V21.6094H138.113V23.6016H125.847ZM126.179 13.1133H129.929V9.07031H126.179V13.1133ZM135.203 16.043V6.04297H137.703V16.043H135.203ZM148.111 6.27734C152.202 6.27734 154.566 7.35156 154.575 9.30469C154.566 11.2871 152.202 12.3516 148.111 12.3516C144.009 12.3516 141.626 11.2871 141.626 9.30469C141.626 7.35156 144.009 6.27734 148.111 6.27734ZM140.005 15.1641V13.1914H156.216V15.1641H140.005ZM141.88 18.0156V16.1992H154.243V20.7305H144.341V21.8047H154.712V23.6797H141.9V18.9922H151.782V18.0156H141.88ZM144.243 9.30469C144.234 10.1738 145.503 10.5156 148.111 10.5156C150.738 10.5156 151.997 10.1738 151.997 9.30469C151.997 8.51367 150.738 8.09375 148.111 8.09375C145.503 8.09375 144.234 8.51367 144.243 9.30469ZM170.762 7.48828V16.0234H162.227V7.48828H170.762ZM164.278 23.4844V17.7227H166.758V21.4922H176.446V23.4844H164.278ZM164.688 14.0703H168.301V9.48047H164.688V14.0703ZM173.301 18.9922V6.02344H175.801V11.1406H178.204V13.1914H175.801V18.9922H173.301ZM192.986 6.04297V11.4922H195.389V13.5234H192.986V19.3047H190.486V6.04297H192.986ZM178.885 9.87109V7.89844H182.928V6.00391H185.408V7.89844H189.432V9.87109H178.885ZM179.744 13.9336C179.744 11.873 181.57 10.4961 184.158 10.4961C186.736 10.4961 188.533 11.873 188.533 13.9336C188.533 15.9844 186.736 17.332 184.158 17.332C181.57 17.332 179.744 15.9844 179.744 13.9336ZM181.463 23.4844V18.2891H183.943V21.4922H193.631V23.4844H181.463ZM182.186 13.9336C182.176 14.9102 182.967 15.4375 184.158 15.4375C185.359 15.4375 186.17 14.9102 186.17 13.9336C186.17 12.9473 185.359 12.4004 184.158 12.3906C182.967 12.4004 182.176 12.9473 182.186 13.9336ZM216.849 19.6758V21.7266H200.579V19.6758H207.435V16.043H202.298V7.33203H215.032V16.043H209.915V19.6758H216.849ZM204.759 14.0898H212.571V9.32422H204.759V14.0898ZM232.647 6.04297V16.082H230.147V6.04297H232.647ZM218.038 11.1406C218.038 8.60156 220.128 6.84375 222.901 6.84375C225.665 6.84375 227.755 8.60156 227.764 11.1406C227.755 13.582 225.665 15.3789 222.901 15.3789C220.128 15.3789 218.038 13.582 218.038 11.1406ZM220.479 11.1406C220.46 12.459 221.475 13.2891 222.901 13.2891C224.288 13.2891 225.294 12.459 225.304 11.1406C225.294 9.74414 224.288 8.93359 222.901 8.93359C221.475 8.93359 220.46 9.74414 220.479 11.1406ZM220.733 23.6016V16.8828H232.647V23.6016H220.733ZM223.194 21.6094H230.206V18.8555H223.194V21.6094ZM243.055 6.27734C247.147 6.27734 249.51 7.35156 249.52 9.30469C249.51 11.2871 247.147 12.3516 243.055 12.3516C238.954 12.3516 236.571 11.2871 236.571 9.30469C236.571 7.35156 238.954 6.27734 243.055 6.27734ZM234.95 15.1641V13.1914H251.161V15.1641H234.95ZM236.825 18.0156V16.1992H249.188V20.7305H239.286V21.8047H249.657V23.6797H236.844V18.9922H246.727V18.0156H236.825ZM239.188 9.30469C239.178 10.1738 240.448 10.5156 243.055 10.5156C245.682 10.5156 246.942 10.1738 246.942 9.30469C246.942 8.51367 245.682 8.09375 243.055 8.09375C240.448 8.09375 239.178 8.51367 239.188 9.30469ZM105.873 35.9844V39.8516H108.275V41.8438H105.873V45.6133H103.373V35.9844H105.873ZM91.7711 39.2461V37.3516H95.8141V35.9062H98.2945V37.3516H102.318V39.2461H91.7711ZM92.6305 42.5859C92.6305 40.8086 94.398 39.6855 97.0445 39.6758C99.7105 39.6855 101.42 40.8086 101.42 42.5859C101.42 44.4023 99.7105 45.4863 97.0445 45.4961C94.398 45.4863 92.6305 44.4023 92.6305 42.5859ZM94.0758 48.1328V46.3359H105.873V50.8281H96.5563V51.8438H106.38V53.6797H94.1148V49.1289H103.392V48.1328H94.0758ZM95.0719 42.5859C95.0621 43.3477 95.8141 43.709 97.0445 43.7188C98.2848 43.709 99.0563 43.3477 99.0563 42.5859C99.0563 41.834 98.2848 41.4238 97.0445 41.4336C95.8141 41.4238 95.0621 41.834 95.0719 42.5859ZM122.899 37.4102C122.889 39.5098 125.038 41.8242 129.11 42.332L128.134 44.3438C125.028 43.8945 122.753 42.459 121.591 40.5352C120.419 42.4492 118.153 43.8945 115.087 44.3438L114.091 42.332C118.134 41.8242 120.272 39.5098 120.282 37.4102V36.5508H122.899V37.4102ZM113.466 47.7227V45.6914H129.677V47.7227H122.763V53.7969H120.302V47.7227H113.466ZM141.625 47.4297C141.625 48.8555 142.23 50.3398 143.666 51.3164C145.141 50.2715 145.785 48.748 145.785 47.4297V46.8242H148.246V47.4297C148.227 49.2852 149.213 50.9941 151.586 51.7266L150.375 53.543C148.676 52.9668 147.562 51.8828 146.947 50.5059C146.361 51.8828 145.326 53.0742 143.734 53.6992C142.064 53.0938 141.02 51.9414 140.443 50.5742C139.809 51.8926 138.715 52.9668 137.094 53.543L135.863 51.7266C138.197 50.9258 139.193 49.1582 139.203 47.4297V46.8242H141.625V47.4297ZM135.434 41.2188C135.434 38.6992 137.523 36.9414 140.297 36.9414C143.061 36.9414 145.15 38.6992 145.16 41.2188C145.15 43.6895 143.061 45.4668 140.297 45.457C137.523 45.4668 135.434 43.6895 135.434 41.2188ZM137.875 41.2188C137.855 42.5566 138.871 43.3965 140.297 43.3867C141.684 43.3965 142.689 42.5566 142.699 41.2188C142.689 39.8418 141.684 39.0312 140.297 39.0312C138.871 39.0312 137.855 39.8418 137.875 41.2188ZM147.543 46.082V36.043H150.043V46.082H147.543ZM166.838 43.9727V45.9453H161.681V49.7344H168.615V51.7656H152.345V49.7344H159.201V45.9453H154.259V37.2734H166.701V39.2656H156.759V43.9727H166.838ZM185.78 45.5547V47.5469H169.511V45.5547H176.405V44.2656H171.542V39.3828H181.308V38.2891H171.503V36.3555H183.808V41.1797H174.023V42.3516H184.14V44.2656H178.886V45.5547H185.78ZM171.327 50.5156V48.5625H183.905V53.7188H181.386V50.5156H171.327ZM205.971 36.7852V38.7383H201.069C201.352 40.2031 203.198 41.6875 206.713 42.0781L205.795 44.0312C202.465 43.6602 200.248 42.2832 199.311 40.4375C198.373 42.2734 196.166 43.6602 192.846 44.0312L191.948 42.0781C195.463 41.6875 197.28 40.1934 197.573 38.7383H192.709V36.7852H205.971ZM191.205 46.8633V44.8711H207.475V46.8633H200.776V49.9297H198.315V46.8633H191.205ZM193.12 53.4844V48.3477H195.6V51.4922H205.678V53.4844H193.12ZM223.293 36.0234V53.8359H220.773V36.0234H223.293ZM209.289 49.6758V37.4297H211.789V41.7656H215.617V37.4297H218.078V49.6758H209.289ZM211.789 47.6641H215.617V43.6992H211.789V47.6641ZM240.869 36.043V46.9805H238.505V42.6055H237.119V46.7852H234.795V36.2773H237.119V40.5938H238.505V36.043H240.869ZM225.498 39.6953V37.7227H228.642V36.1211H231.123V37.7227H234.228V39.6953H225.498ZM226.045 43.3672C226.035 41.502 227.666 40.2617 229.892 40.2617C232.148 40.2617 233.769 41.502 233.779 43.3672C233.769 45.1934 232.148 46.4629 229.892 46.4727C227.666 46.4629 226.035 45.1934 226.045 43.3672ZM226.591 51.7266C228.896 51.0625 229.931 49.4609 229.931 47.8984V47.5273H232.412V47.8984C232.392 49.1973 232.978 50.5352 234.375 51.4238C235.791 50.4863 236.416 49.0898 236.435 47.8984V47.5273H238.916V47.8984C238.896 49.5488 239.892 51.1309 242.255 51.7266L241.103 53.582C239.384 53.0547 238.252 52.0195 237.627 50.7109C237.06 52.0195 236.035 53.1719 234.423 53.7578C232.773 53.1816 231.728 52.0977 231.152 50.7988C230.517 52.0488 229.394 53.0547 227.763 53.582L226.591 51.7266ZM228.271 43.3672C228.261 44.1973 228.916 44.6758 229.892 44.6758C230.859 44.6758 231.523 44.1973 231.533 43.3672C231.523 42.498 230.859 42.0391 229.892 42.0391C228.925 42.0391 228.261 42.498 228.271 43.3672ZM247.683 37.2734C250.085 37.2734 251.882 39.2461 252.234 42.4492H255.32V36.0234H257.78V53.8359H255.32V44.4414H252.263C251.999 47.8594 250.163 49.9492 247.683 49.9492C244.987 49.9492 243.054 47.5078 243.073 43.6016C243.054 39.7246 244.987 37.2734 247.683 37.2734ZM245.456 43.6016C245.446 46.248 246.355 47.6934 247.683 47.6836C249.021 47.6934 249.909 46.248 249.909 43.6016C249.909 40.9648 249.021 39.5195 247.683 39.5195C246.355 39.5195 245.446 40.9648 245.456 43.6016ZM276.235 49.6758V51.7266H259.966V49.6758H263.598V45.3203C262.221 44.4902 261.391 43.2305 261.391 41.668C261.391 38.7871 264.204 36.8926 268.071 36.8828C271.919 36.8926 274.761 38.7871 274.77 41.668C274.761 43.2012 273.96 44.4414 272.622 45.2715V49.6758H276.235ZM263.852 41.668C263.852 43.4062 265.522 44.4805 268.071 44.4805C270.581 44.4805 272.3 43.4062 272.309 41.668C272.3 39.8809 270.581 38.8457 268.071 38.8555C265.522 38.8457 263.852 39.8809 263.852 41.668ZM266.059 49.6758H270.102V46.2188C269.468 46.3457 268.784 46.4141 268.071 46.4141C267.358 46.4141 266.684 46.3457 266.059 46.2285V49.6758ZM281.194 37.8594L280.94 47.7617H278.44L278.186 37.8594H281.194ZM278.069 50.5352C278.049 49.6367 278.791 48.9043 279.709 48.9141C280.579 48.9043 281.33 49.6367 281.33 50.5352C281.33 51.4434 280.579 52.1758 279.709 52.1758C278.791 52.1758 278.049 51.4434 278.069 50.5352Z" fill="#1C1B1F"/>
</svg>
