<svg width="33" height="32" viewBox="0 0 33 32" fill="none" xmlns="http://www.w3.org/2000/svg">
<g clip-path="url(#clip0_8601_66631)">
<path fill-rule="evenodd" clip-rule="evenodd" d="M16.5 14.6154C18.8791 14.6154 20.8077 12.6868 20.8077 10.3077C20.8077 7.92862 18.8791 6 16.5 6C14.1209 6 12.1923 7.92862 12.1923 10.3077C12.1923 12.6868 14.1209 14.6154 16.5 14.6154ZM7.88462 16.7692C9.66892 16.7692 11.1154 15.3228 11.1154 13.5385C11.1154 11.7542 9.66892 10.3077 7.88462 10.3077C6.10031 10.3077 4.65385 11.7542 4.65385 13.5385C4.65385 15.3228 6.10031 16.7692 7.88462 16.7692ZM28.3462 13.5385C28.3462 15.3228 26.8997 16.7692 25.1154 16.7692C23.3311 16.7692 21.8846 15.3228 21.8846 13.5385C21.8846 11.7542 23.3311 10.3077 25.1154 10.3077C26.8997 10.3077 28.3462 11.7542 28.3462 13.5385ZM16.5 15.6923C12.9314 15.6923 10.0385 18.5852 10.0385 22.1538V24.4615C10.0385 25.5661 10.9339 26.4615 12.0385 26.4615H20.9615C22.0661 26.4615 22.9615 25.5661 22.9615 24.4615V22.1538C22.9615 18.5852 20.0686 15.6923 16.5 15.6923ZM2.5 22.5455C2.5 19.9501 4.60395 17.8462 7.1993 17.8462C8.17256 17.8462 8.96154 18.6351 8.96154 19.6084V25.4615C8.96154 26.0138 8.51382 26.4615 7.96154 26.4615H3.45727C2.92858 26.4615 2.5 26.033 2.5 25.5043V22.5455ZM25.8007 17.8462C24.8274 17.8462 24.0385 18.6351 24.0385 19.6084V24.4615C24.0385 25.5661 24.9339 26.4615 26.0385 26.4615H29.9932C30.2731 26.4615 30.5 26.2346 30.5 25.9548V22.5455C30.5 19.9501 28.3961 17.8462 25.8007 17.8462Z" fill="currentColor"/>
</g>
<defs>
<clipPath id="clip0_8601_66631">
<rect width="32" height="32" fill="white" transform="translate(0.5)"/>
</clipPath>
</defs>
</svg>
