<svg width="16" height="17" viewBox="0 0 16 17" fill="none" xmlns="http://www.w3.org/2000/svg">
<mask id="mask0_5149_36066" style="mask-type:alpha" maskUnits="userSpaceOnUse" x="0" y="0" width="16" height="17">
<rect y="0.410156" width="16" height="16" fill="#D9D9D9"/>
</mask>
<g mask="url(#mask0_5149_36066)">
<path d="M7.30016 10.3448C6.4335 10.1781 5.72239 9.7615 5.16683 9.09491C4.61127 8.42833 4.3335 7.65607 4.3335 6.77813C4.3335 5.7559 4.68905 4.88368 5.40016 4.16146C6.11127 3.43924 6.97794 3.07812 8.00016 3.07812C9.02239 3.07812 9.88905 3.43924 10.6002 4.16146C11.3113 4.88368 11.6668 5.7559 11.6668 6.77813C11.6668 7.65607 11.3891 8.42833 10.8335 9.09491C10.2779 9.7615 9.56683 10.1781 8.70016 10.3448V11.6781H9.35513C9.54071 11.6781 9.70016 11.7436 9.8335 11.8746C9.96683 12.0056 10.0335 12.1678 10.0335 12.3615C10.0335 12.5551 9.96801 12.7174 9.83705 12.8483C9.70607 12.9793 9.54377 13.0448 9.35016 13.0448H8.70016V13.7115C8.70016 13.9003 8.63072 14.0642 8.49183 14.2031C8.35294 14.342 8.18905 14.4115 8.00016 14.4115C7.81127 14.4115 7.64739 14.342 7.5085 14.2031C7.36961 14.0642 7.30016 13.9003 7.30016 13.7115V13.0448H6.6452C6.45962 13.0448 6.30016 12.9793 6.16683 12.8483C6.0335 12.7174 5.96683 12.5551 5.96683 12.3615C5.96683 12.1678 6.03232 12.0056 6.1633 11.8746C6.29426 11.7436 6.45655 11.6781 6.65016 11.6781H7.30016V10.3448ZM8.00016 9.01146C8.6335 9.01146 9.16961 8.79479 9.6085 8.36146C10.0474 7.92813 10.2668 7.38924 10.2668 6.74479C10.2668 6.11876 10.0474 5.58447 9.6085 5.14194C9.16961 4.6994 8.6335 4.47812 8.00016 4.47812C7.36683 4.47812 6.83072 4.6994 6.39183 5.14194C5.95294 5.58447 5.7335 6.11876 5.7335 6.74479C5.7335 7.38924 5.95294 7.92813 6.39183 8.36146C6.83072 8.79479 7.36683 9.01146 8.00016 9.01146Z" fill="#A9ABB8"/>
</g>
</svg>
