<svg width="16" height="17" viewBox="0 0 16 17" fill="currentColor" xmlns="http://www.w3.org/2000/svg">
<path fill-rule="evenodd" clip-rule="evenodd" d="M8 14.4102C11.3137 14.4102 14 11.7239 14 8.41016C14 5.09645 11.3137 2.41016 8 2.41016C4.68629 2.41016 2 5.09645 2 8.41016C2 11.7239 4.68629 14.4102 8 14.4102ZM8.5 5.41016C8.5 5.6863 8.27614 5.91016 8 5.91016C7.72386 5.91016 7.5 5.6863 7.5 5.41016C7.5 5.13401 7.72386 4.91016 8 4.91016C8.27614 4.91016 8.5 5.13401 8.5 5.41016ZM10.5301 10.825C9.50362 10.6876 6.49381 10.7081 5.47123 10.8335C5.3182 10.8522 5.10159 10.7201 5.07385 10.5685L4.57597 7.84719C4.5456 7.68121 4.72176 7.55453 4.86944 7.63615L6.48341 8.5281C6.58208 8.58263 6.70631 8.54487 6.75794 8.44464L7.88584 6.25527C7.96031 6.11073 8.16697 6.11073 8.24143 6.25527L9.36684 8.4398C9.41941 8.54185 9.54691 8.5788 9.6459 8.52067L11.1234 7.65311C11.271 7.56644 11.4522 7.69319 11.4214 7.86157L10.9261 10.5685C10.8984 10.7201 10.6829 10.8454 10.5301 10.825ZM5 6.91016C5 7.1863 4.77614 7.41016 4.5 7.41016C4.22386 7.41016 4 7.1863 4 6.91016C4 6.63401 4.22386 6.41016 4.5 6.41016C4.77614 6.41016 5 6.63401 5 6.91016ZM11.5 7.41016C11.7761 7.41016 12 7.1863 12 6.91016C12 6.63401 11.7761 6.41016 11.5 6.41016C11.2239 6.41016 11 6.63401 11 6.91016C11 7.1863 11.2239 7.41016 11.5 7.41016Z" fill="#F16657"/>
</svg>
