<svg width="48" height="48" viewBox="0 0 48 48" fill="currentColor" xmlns="http://www.w3.org/2000/svg">
<g id="add-a-photo">
<mask id="mask0_5985_1137" style="mask-type:alpha" maskUnits="userSpaceOnUse" x="0" y="0" width="48" height="48">
<rect id="Bounding box" width="48" height="48" fill="#D9D9D9"/>
</mask>
<g mask="url(#mask0_5985_1137)">
<path id="add_a_photo" d="M41.4913 15.2984C41.0638 15.2984 40.7083 15.1547 40.425 14.8672C40.1417 14.5797 40 14.2234 40 13.7984V10.9984H37.2C36.775 10.9984 36.4188 10.8539 36.1313 10.5647C35.8438 10.2755 35.7 9.91716 35.7 9.48969C35.7 9.06219 35.8438 8.70677 36.1313 8.42344C36.4188 8.1401 36.775 7.99844 37.2 7.99844H40V5.14844C40 4.72344 40.1446 4.36719 40.4338 4.07969C40.7229 3.79219 41.0813 3.64844 41.5088 3.64844C41.9363 3.64844 42.2917 3.79219 42.575 4.07969C42.8583 4.36719 43 4.72344 43 5.14844V7.99844H45.85C46.275 7.99844 46.6313 8.14302 46.9188 8.43219C47.2062 8.72139 47.35 9.07972 47.35 9.50719C47.35 9.93469 47.2062 10.2901 46.9188 10.5734C46.6313 10.8568 46.275 10.9984 45.85 10.9984H43V13.7984C43 14.2234 42.8554 14.5797 42.5662 14.8672C42.2771 15.1547 41.9187 15.2984 41.4913 15.2984ZM22.975 36.6484C25.3917 36.6484 27.4167 35.8318 29.05 34.1984C30.6833 32.5651 31.5 30.5401 31.5 28.1234C31.5 25.7068 30.6833 23.6901 29.05 22.0734C27.4167 20.4568 25.3917 19.6484 22.975 19.6484C20.5583 19.6484 18.5417 20.4568 16.925 22.0734C15.3083 23.6901 14.5 25.7068 14.5 28.1234C14.5 30.5401 15.3083 32.5651 16.925 34.1984C18.5417 35.8318 20.5583 36.6484 22.975 36.6484ZM22.975 33.6484C21.3917 33.6484 20.0833 33.1234 19.05 32.0734C18.0167 31.0234 17.5 29.7068 17.5 28.1234C17.5 26.5401 18.0167 25.2318 19.05 24.1984C20.0833 23.1651 21.3917 22.6484 22.975 22.6484C24.5583 22.6484 25.875 23.1651 26.925 24.1984C27.975 25.2318 28.5 26.5401 28.5 28.1234C28.5 29.7068 27.975 31.0234 26.925 32.0734C25.875 33.1234 24.5583 33.6484 22.975 33.6484ZM6 43.9984C5.2 43.9984 4.5 43.6984 3.9 43.0984C3.3 42.4984 3 41.7984 3 40.9984V15.3484C3 14.5818 3.3 13.8901 3.9 13.2734C4.5 12.6568 5.2 12.3484 6 12.3484H13.35L16.1 9.04844C16.3667 8.68177 16.7 8.4151 17.1 8.24844C17.5 8.08177 17.9333 7.99844 18.4 7.99844H31.2C31.625 7.99844 31.9813 8.14219 32.2688 8.42969C32.5563 8.71719 32.7 9.07344 32.7 9.49844V11.7484C32.7 12.3734 32.9188 12.9047 33.3563 13.3422C33.7938 13.7797 34.325 13.9984 34.95 13.9984H37V16.0484C37 16.6734 37.2188 17.2047 37.6562 17.6422C38.0938 18.0797 38.625 18.2984 39.25 18.2984H41.5C41.925 18.2984 42.2813 18.4422 42.5688 18.7297C42.8563 19.0172 43 19.3734 43 19.7984V40.9984C43 41.7984 42.6917 42.4984 42.075 43.0984C41.4583 43.6984 40.7667 43.9984 40 43.9984H6Z" fill="white"/>
</g>
</g>
</svg>
