<svg width="48" height="48" viewBox="0 0 48 48" fill="currentColor" xmlns="http://www.w3.org/2000/svg">
<g id="warning">
<mask id="mask0_5361_9224" style="mask-type:alpha" maskUnits="userSpaceOnUse" x="0" y="0" width="48" height="48">
<rect id="Bounding box" width="48" height="48" fill="#D9D9D9"/>
</mask>
<g mask="url(#mask0_5361_9224)">
<path id="warning_2" d="M4.60009 42C4.30009 42 4.03922 41.9313 3.81749 41.7938C3.59576 41.6562 3.42329 41.475 3.30009 41.25C3.16119 41.03 3.08481 40.7917 3.07094 40.535C3.05704 40.2783 3.13342 40.0167 3.30009 39.75L22.7001 6.25C22.8668 5.98333 23.0584 5.79167 23.2751 5.675C23.4918 5.55833 23.7334 5.5 24.0001 5.5C24.2668 5.5 24.5084 5.55833 24.7251 5.675C24.9418 5.79167 25.1334 5.98333 25.3001 6.25L44.7001 39.75C44.8668 40.0167 44.9431 40.2783 44.9292 40.535C44.9154 40.7917 44.839 41.03 44.7001 41.25C44.5769 41.475 44.4044 41.6562 44.1827 41.7938C43.961 41.9313 43.7001 42 43.4001 42H4.60009ZM24.2088 36.15C24.6363 36.15 24.9918 36.0054 25.2751 35.7163C25.5584 35.4271 25.7001 35.0687 25.7001 34.6413C25.7001 34.2138 25.5555 33.8583 25.2663 33.575C24.9771 33.2917 24.6188 33.15 24.1913 33.15C23.7638 33.15 23.4084 33.2946 23.1251 33.5837C22.8418 33.8729 22.7001 34.2313 22.7001 34.6588C22.7001 35.0863 22.8447 35.4417 23.1338 35.725C23.423 36.0083 23.7814 36.15 24.2088 36.15ZM24.2088 30.6C24.6363 30.6 24.9918 30.4563 25.2751 30.1688C25.5584 29.8813 25.7001 29.525 25.7001 29.1V20.9C25.7001 20.475 25.5555 20.1188 25.2663 19.8313C24.9771 19.5437 24.6188 19.4 24.1913 19.4C23.7638 19.4 23.4084 19.5437 23.1251 19.8313C22.8418 20.1188 22.7001 20.475 22.7001 20.9V29.1C22.7001 29.525 22.8447 29.8813 23.1338 30.1688C23.423 30.4563 23.7814 30.6 24.2088 30.6Z" fill="#F16657"/>
</g>
</g>
</svg>
