<svg width="12" height="12" viewBox="0 0 12 12" fill="none" xmlns="http://www.w3.org/2000/svg">
<g id="gloddy">
<circle id="bg" cx="6" cy="6" r="5.5" fill="#EBF3FF" stroke="#3387FF"/>
<path id="G" d="M6.13278 8.79122C5.53545 8.79122 5.02345 8.68455 4.59678 8.47122C4.17545 8.25255 3.85278 7.94589 3.62878 7.55122C3.41011 7.15122 3.30078 6.68189 3.30078 6.14322C3.30078 5.62589 3.38345 5.18322 3.54878 4.81522C3.71945 4.44189 3.94345 4.13789 4.22078 3.90322C4.49811 3.66322 4.80478 3.48722 5.14078 3.37522C5.47678 3.25789 5.81545 3.19922 6.15678 3.19922C6.60478 3.19922 6.98878 3.26589 7.30878 3.39922C7.62878 3.52722 7.87411 3.69522 8.04478 3.90322C8.21545 4.11122 8.30078 4.32722 8.30078 4.55122C8.30078 4.79122 8.25545 4.97789 8.16478 5.11122C8.07945 5.24455 7.96745 5.33789 7.82878 5.39122C7.69545 5.44455 7.55678 5.47122 7.41278 5.47122C7.23145 5.47122 7.08745 5.45255 6.98078 5.41522C6.87945 5.37255 6.77545 5.33255 6.66878 5.29522C6.56211 5.25789 6.41811 5.23922 6.23678 5.23922C5.89011 5.23922 5.61278 5.34322 5.40478 5.55122C5.20211 5.75922 5.10078 6.05789 5.10078 6.44722C5.10078 6.67655 5.14878 6.86589 5.24478 7.01522C5.34078 7.16455 5.46611 7.27655 5.62078 7.35122C5.78078 7.42589 5.95145 7.46322 6.13278 7.46322C6.31411 7.46322 6.46345 7.44189 6.58078 7.39922C6.70345 7.35122 6.79411 7.30055 6.85278 7.24722C6.91145 7.19389 6.94078 7.15389 6.94078 7.12722C6.58345 7.12722 6.29545 7.08722 6.07678 7.00722C5.85811 6.92189 5.74878 6.75922 5.74878 6.51922C5.74878 6.31655 5.82078 6.14855 5.96478 6.01522C6.10878 5.87655 6.37545 5.80722 6.76478 5.80722C7.14345 5.80722 7.43945 5.85255 7.65278 5.94322C7.87145 6.02855 8.02345 6.16455 8.10878 6.35122C8.19945 6.53789 8.24478 6.78055 8.24478 7.07922C8.24478 7.39922 8.14878 7.68989 7.95678 7.95122C7.76478 8.21255 7.50878 8.42055 7.18878 8.57522C6.86878 8.72455 6.51678 8.79655 6.13278 8.79122Z" fill="#3387FF"/>
</g>
</svg>
