<svg width="16" height="16" viewBox="0 0 16 16" fill="none" xmlns="http://www.w3.org/2000/svg">
<g id="group">
<mask id="mask0_5471_14902" style="mask-type:alpha" maskUnits="userSpaceOnUse" x="0" y="0" width="16" height="16">
<rect id="Bounding box" width="16" height="16" fill="#D9D9D9"/>
</mask>
<g mask="url(#mask0_5471_14902)">
<path id="group_2" d="M1.6001 12.7992V11.2659C1.6001 10.977 1.66954 10.7131 1.80843 10.4742C1.94732 10.2353 2.13899 10.0437 2.38343 9.89922C2.98343 9.54366 3.61954 9.27144 4.29176 9.08255C4.96399 8.89366 5.66676 8.79922 6.4001 8.79922C7.13343 8.79922 7.83621 8.89366 8.50843 9.08255C9.18065 9.27144 9.81676 9.54366 10.4168 9.89922C10.6612 10.0437 10.8529 10.2353 10.9918 10.4742C11.1307 10.7131 11.2001 10.977 11.2001 11.2659V12.7992H1.6001ZM12.4001 12.7992V11.2659C12.4001 10.7992 12.2918 10.3659 12.0751 9.96589C11.8584 9.56589 11.5668 9.23811 11.2001 8.98255C11.6334 9.07144 12.0529 9.19089 12.4584 9.34089C12.864 9.49089 13.2501 9.677 13.6168 9.89922C13.8612 10.0437 14.0529 10.2353 14.1918 10.4742C14.3307 10.7131 14.4001 10.977 14.4001 11.2659V12.7992H12.4001ZM6.4001 7.99922C5.73343 7.99922 5.16676 7.76589 4.7001 7.29922C4.23343 6.83255 4.0001 6.26589 4.0001 5.59922C4.0001 4.93255 4.23343 4.36589 4.7001 3.89922C5.16676 3.43255 5.73343 3.19922 6.4001 3.19922C7.06676 3.19922 7.63343 3.43255 8.1001 3.89922C8.56676 4.36589 8.8001 4.93255 8.8001 5.59922C8.8001 6.26589 8.56676 6.83255 8.1001 7.29922C7.63343 7.76589 7.06676 7.99922 6.4001 7.99922ZM12.0001 5.59922C12.0001 6.26589 11.7668 6.83255 11.3001 7.29922C10.8334 7.76589 10.2668 7.99922 9.6001 7.99922C9.51121 7.99922 9.42788 7.99644 9.3501 7.99089C9.27232 7.98533 9.18899 7.97144 9.1001 7.94922C9.37788 7.627 9.59732 7.26866 9.75843 6.87422C9.91954 6.47977 10.0001 6.05477 10.0001 5.59922C10.0001 5.14366 9.91954 4.71866 9.75843 4.32422C9.59732 3.92977 9.37788 3.57144 9.1001 3.24922C9.18899 3.227 9.27232 3.21311 9.3501 3.20755C9.42788 3.202 9.51121 3.19922 9.6001 3.19922C10.2668 3.19922 10.8334 3.43255 11.3001 3.89922C11.7668 4.36589 12.0001 4.93255 12.0001 5.59922Z" fill="#F16657"/>
</g>
</g>
</svg>
