<svg width="16" height="16" viewBox="0 0 16 16" fill="none" xmlns="http://www.w3.org/2000/svg">
<g id="info">
<mask id="mask0_5310_514" style="mask-type:alpha" maskUnits="userSpaceOnUse" x="0" y="0" width="16" height="16">
<rect id="Bounding box" width="16" height="16" fill="#D9D9D9"/>
</mask>
<g mask="url(#mask0_5310_514)">
<path id="info_2" d="M7.99609 11.6117C8.1651 11.6117 8.30794 11.5542 8.42461 11.4392C8.54128 11.3242 8.59961 11.1817 8.59961 11.0117V8.21172C8.59961 8.04172 8.54245 7.89922 8.42813 7.78422C8.31379 7.66922 8.17213 7.61172 8.00313 7.61172C7.83412 7.61172 7.69128 7.66922 7.57461 7.78422C7.45794 7.89922 7.39961 8.04172 7.39961 8.21172V11.0117C7.39961 11.1817 7.45677 11.3242 7.57109 11.4392C7.68543 11.5542 7.82709 11.6117 7.99609 11.6117ZM7.99609 6.41172C8.1651 6.41172 8.30794 6.35456 8.42461 6.24024C8.54128 6.1259 8.59961 5.98424 8.59961 5.81524C8.59961 5.64622 8.54245 5.50339 8.42813 5.38672C8.31379 5.27005 8.17213 5.21172 8.00313 5.21172C7.83412 5.21172 7.69128 5.26888 7.57461 5.3832C7.45794 5.49754 7.39961 5.6392 7.39961 5.8082C7.39961 5.97721 7.45677 6.12005 7.57109 6.23672C7.68543 6.35339 7.82709 6.41172 7.99609 6.41172ZM8.00421 14.8117C7.12337 14.8117 6.29405 14.6451 5.51628 14.3117C4.7385 13.9784 4.05794 13.5201 3.47461 12.9367C2.89128 12.3534 2.43294 11.6731 2.09961 10.8958C1.76628 10.1184 1.59961 9.28787 1.59961 8.40409C1.59961 7.52029 1.76628 6.69227 2.09961 5.92005C2.43294 5.14783 2.89128 4.47005 3.47461 3.88672C4.05794 3.30339 4.73827 2.84505 5.51558 2.51172C6.2929 2.17839 7.12345 2.01172 8.00724 2.01172C8.89104 2.01172 9.71905 2.17839 10.4913 2.51172C11.2635 2.84505 11.9413 3.30339 12.5246 3.88672C13.1079 4.47005 13.5663 5.14907 13.8996 5.92379C14.2329 6.69851 14.3996 7.52629 14.3996 8.40712C14.3996 9.28796 14.2329 10.1173 13.8996 10.8951C13.5663 11.6728 13.1079 12.3534 12.5246 12.9367C11.9413 13.5201 11.2623 13.9784 10.4875 14.3117C9.71282 14.6451 8.88504 14.8117 8.00421 14.8117Z" fill="#CDCED6"/>
</g>
</g>
</svg>
