<svg width="20" height="20" viewBox="0 0 20 20" fill="none" xmlns="http://www.w3.org/2000/svg">
<g id="info">
<mask id="mask0_5205_5257" style="mask-type:alpha" maskUnits="userSpaceOnUse" x="0" y="0" width="20" height="20">
<rect id="Bounding box" width="20" height="20" fill="#D9D9D9"/>
</mask>
<g mask="url(#mask0_5205_5257)">
<path id="info_2" d="M7.99658 11.2016C8.16559 11.2016 8.30843 11.1441 8.4251 11.0291C8.54176 10.9141 8.6001 10.7716 8.6001 10.6016V7.80156C8.6001 7.63156 8.54294 7.48906 8.42862 7.37406C8.31428 7.25906 8.17262 7.20156 8.00361 7.20156C7.8346 7.20156 7.69176 7.25906 7.5751 7.37406C7.45843 7.48906 7.4001 7.63156 7.4001 7.80156V10.6016C7.4001 10.7716 7.45726 10.9141 7.57158 11.0291C7.68591 11.1441 7.82758 11.2016 7.99658 11.2016ZM7.99658 6.00156C8.16559 6.00156 8.30843 5.9444 8.4251 5.83008C8.54176 5.71575 8.6001 5.57408 8.6001 5.40508C8.6001 5.23607 8.54294 5.09323 8.42862 4.97656C8.31428 4.8599 8.17262 4.80156 8.00361 4.80156C7.8346 4.80156 7.69176 4.85872 7.5751 4.97305C7.45843 5.08738 7.4001 5.22905 7.4001 5.39805C7.4001 5.56706 7.45726 5.7099 7.57158 5.82656C7.68591 5.94323 7.82758 6.00156 7.99658 6.00156ZM8.0047 14.4016C7.12385 14.4016 6.29454 14.2349 5.51676 13.9016C4.73899 13.5682 4.05843 13.1099 3.4751 12.5266C2.89176 11.9432 2.43343 11.2629 2.1001 10.4856C1.76676 9.70827 1.6001 8.87772 1.6001 7.99393C1.6001 7.11013 1.76676 6.28212 2.1001 5.5099C2.43343 4.73767 2.89176 4.0599 3.4751 3.47656C4.05843 2.89323 4.73875 2.4349 5.51606 2.10156C6.29339 1.76823 7.12394 1.60156 8.00773 1.60156C8.89153 1.60156 9.71954 1.76823 10.4918 2.10156C11.264 2.4349 11.9418 2.89323 12.5251 3.47656C13.1084 4.0599 13.5668 4.73892 13.9001 5.51363C14.2334 6.28835 14.4001 7.11613 14.4001 7.99696C14.4001 8.87781 14.2334 9.70712 13.9001 10.4849C13.5668 11.2627 13.1084 11.9432 12.5251 12.5266C11.9418 13.1099 11.2627 13.5682 10.488 13.9016C9.71331 14.2349 8.88553 14.4016 8.0047 14.4016Z" fill="#CDCED6"/>
</g>
</g>
</svg>
