<svg width="24" height="24" viewBox="0 0 24 24" fill="none" xmlns="http://www.w3.org/2000/svg">
<circle cx="12" cy="12" r="8.25" fill="#F7F7FA" stroke="#525463" stroke-width="1.5"/>
<path d="M11.8437 16.0769C11.5637 16.0769 11.3317 16.0049 11.1477 15.8609C10.9717 15.7089 10.8517 15.5209 10.7877 15.2969C10.7237 15.0729 10.6837 14.8249 10.6677 14.5529C10.6517 14.2729 10.6437 13.9929 10.6437 13.7129C10.6517 13.4249 10.6517 13.1609 10.6437 12.9209C10.6357 12.6809 10.6117 12.4889 10.5717 12.3449C10.5317 12.2009 10.4557 12.1289 10.3437 12.1289C10.1837 12.1289 10.0717 12.1969 10.0077 12.3329C9.94371 12.4609 9.91171 12.6369 9.91171 12.8609C9.91171 13.0769 9.92371 13.3129 9.94771 13.5689C9.97971 13.8249 10.0117 14.0809 10.0437 14.3369C10.0757 14.5849 10.0917 14.8049 10.0917 14.9969C10.0917 15.3969 9.99971 15.6729 9.81571 15.8249C9.63971 15.9769 9.39571 16.0529 9.08371 16.0529C8.77171 16.0529 8.49571 15.9249 8.25571 15.6689C8.02371 15.4049 7.82771 15.0689 7.66771 14.6609C7.51571 14.2449 7.39971 13.7969 7.31971 13.3169C7.23971 12.8369 7.19971 12.3809 7.19971 11.9489C7.19971 11.4209 7.25571 10.9089 7.36771 10.4129C7.48771 9.91688 7.66371 9.47288 7.89571 9.08088C8.13571 8.68888 8.43171 8.37688 8.78371 8.14488C9.13571 7.91288 9.55171 7.79688 10.0317 7.79688C10.4077 7.79688 10.7197 7.88088 10.9677 8.04888C11.2157 8.20888 11.4117 8.41288 11.5557 8.66088C11.7077 8.90888 11.8117 9.16087 11.8677 9.41687C11.9237 9.16087 12.0237 8.90888 12.1677 8.66088C12.3117 8.41288 12.5077 8.20888 12.7557 8.04888C13.0037 7.88088 13.3117 7.79688 13.6797 7.79688C14.2877 7.79688 14.8037 7.98488 15.2277 8.36088C15.6597 8.73688 15.9877 9.25688 16.2117 9.92088C16.4357 10.5769 16.5477 11.3409 16.5477 12.2129C16.5477 12.6209 16.5037 13.0529 16.4157 13.5089C16.3277 13.9569 16.1997 14.3769 16.0317 14.7689C15.8717 15.1529 15.6757 15.4689 15.4437 15.7169C15.2117 15.9569 14.9477 16.0769 14.6517 16.0769C14.3317 16.0769 14.0797 15.9969 13.8957 15.8369C13.7117 15.6769 13.6197 15.3969 13.6197 14.9969C13.6197 14.8049 13.6357 14.5849 13.6677 14.3369C13.6997 14.0809 13.7317 13.8249 13.7637 13.5689C13.7957 13.3129 13.8117 13.0769 13.8117 12.8609C13.8117 12.6369 13.7797 12.4609 13.7157 12.3329C13.6597 12.1969 13.5517 12.1289 13.3917 12.1289C13.2797 12.1289 13.1997 12.2009 13.1517 12.3449C13.1117 12.4889 13.0837 12.6809 13.0677 12.9209C13.0597 13.1529 13.0557 13.4129 13.0557 13.7009C13.0557 13.9809 13.0477 14.2609 13.0317 14.5409C13.0237 14.8209 12.9877 15.0729 12.9237 15.2969C12.8677 15.5209 12.7477 15.7089 12.5637 15.8609C12.3797 16.0049 12.1397 16.0769 11.8437 16.0769Z" fill="#525463"/>
</svg>
