<svg width="48" height="48" viewBox="0 0 48 48" fill="none" xmlns="http://www.w3.org/2000/svg">
<mask id="mask0_5600_2403" style="mask-type:alpha" maskUnits="userSpaceOnUse" x="12" y="12" width="24" height="24">
<rect x="12" y="12" width="24" height="24" fill="#D9D9D9"/>
</mask>
<g mask="url(#mask0_5600_2403)">
<path d="M26.0394 33.5H22.4769C22.2394 33.5 22.0336 33.4208 21.8594 33.2625C21.6853 33.1042 21.5823 32.9062 21.5507 32.6687L21.2657 30.46C21.0598 30.3808 20.8659 30.2858 20.6838 30.175C20.5017 30.0642 20.3236 29.9454 20.1494 29.8187L18.0832 30.6737C17.8615 30.7529 17.6398 30.7608 17.4182 30.6975C17.1965 30.6342 17.0223 30.4996 16.8957 30.2937L15.1382 27.23C15.0115 27.0242 14.9719 26.8025 15.0194 26.565C15.0669 26.3275 15.1857 26.1375 15.3757 25.995L17.1569 24.6412C17.1411 24.5304 17.1332 24.4235 17.1332 24.3206V23.6794C17.1332 23.5765 17.1411 23.4696 17.1569 23.3587L15.3757 22.005C15.1857 21.8625 15.0669 21.6725 15.0194 21.435C14.9719 21.1975 15.0115 20.9758 15.1382 20.77L16.8957 17.7062C17.0065 17.4846 17.1767 17.346 17.4063 17.2906C17.6359 17.2352 17.8615 17.2471 18.0832 17.3263L20.1494 18.1812C20.3236 18.0546 20.5057 17.9358 20.6957 17.825C20.8857 17.7142 21.0757 17.6192 21.2657 17.54L21.5507 15.3313C21.5823 15.0938 21.6853 14.8958 21.8594 14.7375C22.0336 14.5792 22.2394 14.5 22.4769 14.5H26.0394C26.2769 14.5 26.4828 14.5792 26.6569 14.7375C26.8311 14.8958 26.934 15.0938 26.9657 15.3313L27.2507 17.54C27.4565 17.6192 27.6505 17.7142 27.8326 17.825C28.0146 17.9358 28.1928 18.0546 28.3669 18.1812L30.4332 17.3263C30.6548 17.2471 30.8765 17.2392 31.0982 17.3025C31.3199 17.3658 31.494 17.5004 31.6207 17.7062L33.3782 20.77C33.5049 20.9758 33.5444 21.1975 33.4969 21.435C33.4494 21.6725 33.3307 21.8625 33.1407 22.005L31.3594 23.3587C31.3753 23.4696 31.3832 23.5765 31.3832 23.6794V24.3206C31.3832 24.4235 31.3673 24.5304 31.3357 24.6412L33.1169 25.995C33.3069 26.1375 33.4257 26.3275 33.4732 26.565C33.5207 26.8025 33.4811 27.0242 33.3544 27.23L31.5969 30.27C31.4703 30.4758 31.2921 30.6144 31.0626 30.6856C30.833 30.7569 30.6074 30.7529 30.3857 30.6737L28.3669 29.8187C28.1928 29.9454 28.0107 30.0642 27.8207 30.175C27.6307 30.2858 27.4407 30.3808 27.2507 30.46L26.9657 32.6687C26.934 32.9062 26.8311 33.1042 26.6569 33.2625C26.4828 33.4208 26.2769 33.5 26.0394 33.5ZM24.3057 27.325C25.224 27.325 26.0078 27.0004 26.6569 26.3513C27.3061 25.7021 27.6307 24.9183 27.6307 24C27.6307 23.0817 27.3061 22.2979 26.6569 21.6487C26.0078 20.9996 25.224 20.675 24.3057 20.675C23.3715 20.675 22.5838 20.9996 21.9426 21.6487C21.3013 22.2979 20.9807 23.0817 20.9807 24C20.9807 24.9183 21.3013 25.7021 21.9426 26.3513C22.5838 27.0004 23.3715 27.325 24.3057 27.325Z" fill="#525463"/>
</g>
</svg>
