<svg width="16" height="16" viewBox="0 0 16 16" fill="none" xmlns="http://www.w3.org/2000/svg">
<g id="hood">
<circle id="bg" cx="8" cy="8" r="5.5" fill="#F7F7FA" stroke="#A9ABB8"/>
<path id="H" d="M6.40478 10.7752C6.09545 10.7752 5.86078 10.6712 5.70078 10.4632C5.54078 10.2499 5.43411 9.93788 5.38078 9.52722C5.32745 9.11655 5.30078 8.60722 5.30078 7.99922C5.30078 7.39122 5.32745 6.87922 5.38078 6.46322C5.43411 6.04722 5.54078 5.73522 5.70078 5.52722C5.86078 5.31388 6.09545 5.20722 6.40478 5.20722C6.67678 5.20722 6.88478 5.29255 7.02878 5.46322C7.17811 5.62855 7.28211 5.87122 7.34078 6.19122C7.40478 6.51122 7.44211 6.89522 7.45278 7.34322C7.54345 7.34322 7.63678 7.34322 7.73278 7.34322C7.82878 7.34322 7.92478 7.34322 8.02078 7.34322C8.13278 7.34322 8.24211 7.34322 8.34878 7.34322C8.46078 7.34322 8.56745 7.34589 8.66878 7.35122C8.67945 6.89788 8.71411 6.51122 8.77278 6.19122C8.83145 5.87122 8.93278 5.62589 9.07678 5.45522C9.22611 5.28455 9.43678 5.19922 9.70878 5.19922C10.0181 5.19922 10.2528 5.30589 10.4128 5.51922C10.5728 5.73255 10.6794 6.04722 10.7328 6.46322C10.7914 6.87922 10.8208 7.39122 10.8208 7.99922C10.8208 8.60722 10.7914 9.11655 10.7328 9.52722C10.6794 9.93788 10.5728 10.2472 10.4128 10.4552C10.2528 10.6632 10.0181 10.7672 9.70878 10.7672C9.32478 10.7672 9.06345 10.6019 8.92478 10.2712C8.78611 9.94055 8.70345 9.47122 8.67678 8.86322C8.55411 8.86855 8.42345 8.87122 8.28478 8.87122C8.14611 8.87122 8.00478 8.87122 7.86078 8.87122C7.79145 8.87122 7.72211 8.87122 7.65278 8.87122C7.58345 8.87122 7.51411 8.87122 7.44478 8.87122C7.41811 9.47389 7.33278 9.94322 7.18878 10.2792C7.05011 10.6099 6.78878 10.7752 6.40478 10.7752Z" fill="#A9ABB8"/>
</g>
</svg>
