<svg width="24" height="24" viewBox="0 0 24 24" fill="none" xmlns="http://www.w3.org/2000/svg">
<circle cx="12" cy="12" r="8.25" fill="#FEF6F5" stroke="#F16657" stroke-width="1.5"/>
<path d="M11.8572 16.1969C11.4732 16.1969 11.0932 16.1569 10.7172 16.0769C10.3412 15.9889 10.0012 15.8689 9.69717 15.7169C9.39317 15.5649 9.14917 15.3809 8.96517 15.1649C8.78917 14.9489 8.70117 14.7049 8.70117 14.4329C8.70117 14.0969 8.80117 13.8369 9.00117 13.6529C9.20917 13.4609 9.46117 13.3649 9.75717 13.3649C10.0292 13.3649 10.2532 13.4089 10.4292 13.4969C10.6052 13.5769 10.7652 13.6609 10.9092 13.7489C11.0612 13.8289 11.2212 13.8689 11.3892 13.8689C11.6532 13.8689 11.7852 13.7649 11.7852 13.5569C11.7852 13.4529 11.6932 13.3609 11.5092 13.2809C11.3252 13.2009 11.0892 13.1089 10.8012 13.0049C10.5132 12.8929 10.2132 12.7449 9.90117 12.5609C9.43717 12.2809 9.12117 11.9809 8.95317 11.6609C8.78517 11.3329 8.70117 10.9369 8.70117 10.4729C8.70117 10.0009 8.84917 9.56088 9.14517 9.15288C9.44117 8.74488 9.84117 8.41688 10.3452 8.16888C10.8492 7.92088 11.4132 7.79688 12.0372 7.79688C12.6372 7.79688 13.1812 7.88888 13.6692 8.07287C14.1572 8.25688 14.5412 8.50488 14.8212 8.81688C15.1092 9.12088 15.2532 9.46888 15.2532 9.86088C15.2532 10.1809 15.1852 10.4369 15.0492 10.6289C14.9212 10.8209 14.7572 10.9609 14.5572 11.0489C14.3652 11.1369 14.1772 11.1809 13.9932 11.1809C13.7212 11.1809 13.5172 11.1649 13.3812 11.1329C13.2452 11.1009 13.1372 11.0689 13.0572 11.0369C12.9852 10.9969 12.9052 10.9609 12.8172 10.9289C12.7372 10.8969 12.6132 10.8809 12.4452 10.8809C12.3492 10.8809 12.2532 10.9129 12.1572 10.9769C12.0612 11.0409 12.0132 11.1369 12.0132 11.2649C12.0132 11.3849 12.0972 11.4809 12.2652 11.5529C12.4412 11.6169 12.6252 11.6849 12.8172 11.7569C13.5292 12.0129 14.0692 12.3169 14.4372 12.6689C14.8052 13.0129 14.9892 13.4689 14.9892 14.0369C14.9892 14.7169 14.7132 15.2489 14.1612 15.6329C13.6172 16.0089 12.8492 16.1969 11.8572 16.1969Z" fill="#F16657"/>
</svg>
