<svg width="17" height="16" viewBox="0 0 17 16" fill="none" xmlns="http://www.w3.org/2000/svg">
<g id="soulmate">
<circle id="bg" cx="8.33398" cy="8" r="5.5" fill="#FEF6F5" stroke="#F16657"/>
<path id="S" d="M8.23877 10.7992C7.98277 10.7992 7.72943 10.7726 7.47877 10.7192C7.2281 10.6606 7.00143 10.5806 6.79877 10.4792C6.5961 10.3779 6.43343 10.2552 6.31077 10.1112C6.19343 9.96722 6.13477 9.80455 6.13477 9.62322C6.13477 9.39922 6.20143 9.22589 6.33477 9.10322C6.47343 8.97522 6.64143 8.91122 6.83877 8.91122C7.0201 8.91122 7.16943 8.94055 7.28677 8.99922C7.4041 9.05255 7.51077 9.10855 7.60677 9.16722C7.7081 9.22055 7.81477 9.24722 7.92677 9.24722C8.10277 9.24722 8.19077 9.17789 8.19077 9.03922C8.19077 8.96989 8.12943 8.90855 8.00677 8.85522C7.8841 8.80189 7.72677 8.74055 7.53477 8.67122C7.34277 8.59655 7.14277 8.49789 6.93477 8.37522C6.62543 8.18855 6.41477 7.98855 6.30277 7.77522C6.19077 7.55655 6.13477 7.29255 6.13477 6.98322C6.13477 6.66855 6.23343 6.37522 6.43077 6.10322C6.6281 5.83122 6.89477 5.61255 7.23077 5.44722C7.56677 5.28189 7.94277 5.19922 8.35877 5.19922C8.75877 5.19922 9.12143 5.26055 9.44677 5.38322C9.7721 5.50589 10.0281 5.67122 10.2148 5.87922C10.4068 6.08189 10.5028 6.31389 10.5028 6.57522C10.5028 6.78855 10.4574 6.95922 10.3668 7.08722C10.2814 7.21522 10.1721 7.30855 10.0388 7.36722C9.91077 7.42589 9.78543 7.45522 9.66277 7.45522C9.48143 7.45522 9.34543 7.44455 9.25477 7.42322C9.1641 7.40189 9.0921 7.38055 9.03877 7.35922C8.99077 7.33255 8.93743 7.30855 8.87877 7.28722C8.82543 7.26589 8.74277 7.25522 8.63077 7.25522C8.56677 7.25522 8.50277 7.27655 8.43877 7.31922C8.37477 7.36189 8.34277 7.42589 8.34277 7.51122C8.34277 7.59122 8.39877 7.65522 8.51077 7.70322C8.6281 7.74589 8.75077 7.79122 8.87877 7.83922C9.35343 8.00989 9.71343 8.21255 9.95877 8.44722C10.2041 8.67655 10.3268 8.98055 10.3268 9.35922C10.3268 9.81255 10.1428 10.1672 9.77477 10.4232C9.4121 10.6739 8.9001 10.7992 8.23877 10.7992Z" fill="#F16657"/>
</g>
</svg>
